<?xml version="1.0" standalone="no"?>
<!DOCTYPE svg PUBLIC "-//W3C//DTD SVG 20010904//EN"
 "http://www.w3.org/TR/2001/REC-SVG-20010904/DTD/svg10.dtd">
<svg version="1.0" xmlns="http://www.w3.org/2000/svg"
 width="1303.000000pt" height="1303.000000pt" viewBox="0 0 1303.000000 1303.000000"
 preserveAspectRatio="xMidYMid meet">
<metadata>
Created by potrace 1.11, written by Peter Selinger 2001-2013
</metadata>
<g transform="translate(0.000000,1303.000000) scale(0.100000,-0.100000)"
fill="#000000" stroke="none">
<path d="M6009 12806 c-2 -2 -56 -7 -119 -10 -63 -4 -131 -9 -150 -11 -19 -2
-62 -6 -95 -10 -55 -6 -133 -16 -245 -30 -25 -4 -81 -13 -125 -21 -44 -8 -96
-17 -115 -20 -28 -4 -175 -34 -240 -49 -482 -108 -991 -291 -1450 -520 -395
-198 -845 -492 -1182 -774 -20 -16 -26 -21 -112 -94 -142 -121 -417 -391 -556
-547 -47 -52 -88 -97 -91 -100 -12 -11 -220 -271 -275 -345 -138 -183 -345
-499 -439 -670 -21 -38 -47 -86 -58 -105 -74 -131 -220 -441 -287 -605 -104
-257 -248 -694 -274 -830 -2 -11 -11 -47 -19 -80 -43 -168 -117 -591 -131
-749 -3 -32 -8 -77 -11 -100 -33 -284 -38 -842 -9 -1141 7 -71 14 -145 18
-180 2 -16 7 -55 10 -86 4 -31 8 -66 10 -76 3 -11 7 -44 11 -74 4 -30 8 -56
10 -59 2 -3 6 -27 9 -55 4 -27 9 -57 12 -66 2 -10 6 -30 8 -45 3 -16 14 -74
26 -129 12 -55 24 -111 26 -125 35 -178 165 -598 259 -840 330 -841 795 -1552
1430 -2185 165 -165 267 -258 435 -398 44 -37 260 -203 322 -248 553 -400
1179 -714 1825 -914 153 -48 459 -129 527 -139 21 -4 41 -8 45 -10 3 -2 22 -7
41 -10 50 -8 85 -15 165 -31 39 -7 90 -16 115 -19 25 -3 54 -8 65 -10 12 -2
48 -7 80 -11 33 -4 71 -8 85 -10 14 -2 52 -7 85 -10 33 -3 74 -8 90 -10 216
-28 917 -28 1175 0 25 2 68 7 95 10 28 2 86 9 130 15 44 6 98 13 120 16 53 7
76 11 230 39 115 21 259 46 350 61 33 5 241 44 265 50 8 1 47 10 87 18 39 9
83 20 97 26 14 5 26 7 26 5 0 -2 11 0 25 5 14 5 36 12 48 14 97 17 668 205
692 227 5 5 15 9 23 9 7 0 38 11 68 25 30 14 56 25 59 25 2 0 32 13 67 29 35
16 86 39 113 51 74 33 310 152 383 194 35 20 65 36 67 36 11 0 256 151 392
242 602 403 1108 878 1532 1443 348 462 643 994 835 1505 26 69 50 132 53 140
4 8 7 17 8 20 0 3 20 64 44 135 94 284 196 702 226 925 3 25 8 56 10 70 8 41
13 82 21 145 3 33 8 68 10 78 2 10 6 55 9 100 3 45 8 96 10 112 9 77 19 327
19 490 0 164 -11 475 -19 514 -1 9 -6 50 -9 91 -9 97 -14 137 -20 180 -2 19
-7 56 -11 81 -3 25 -8 57 -10 70 -52 323 -85 471 -171 784 -150 541 -447 1186
-771 1675 -68 102 -206 298 -239 340 -7 8 -49 62 -95 120 -45 58 -90 114 -101
125 -10 11 -35 40 -56 65 -74 89 -253 278 -383 405 -348 339 -727 630 -1161
890 -344 207 -787 410 -1183 543 -171 57 -401 126 -455 136 -14 3 -61 14 -105
24 -81 21 -301 67 -365 77 -82 13 -161 27 -255 46 -223 44 -383 69 -525 84
-36 3 -72 8 -80 10 -8 2 -51 7 -95 10 -44 4 -105 9 -135 12 -63 6 -766 14
-771 9z m842 -1207 c119 -1 202 -8 304 -25 77 -13 154 -26 170 -29 182 -30
563 -137 792 -223 l103 -38 -1590 1 c-874 0 -1586 3 -1582 6 23 21 416 142
567 174 11 3 70 15 130 29 61 13 133 27 160 31 28 4 59 9 70 12 11 2 67 10
125 18 97 13 149 19 255 30 22 2 101 7 175 11 74 3 137 8 139 10 2 2 7 2 11
-1 4 -2 81 -5 171 -6z m-3251 -1013 c0 -2 -8 -10 -17 -17 -16 -13 -17 -12 -4
4 13 16 21 21 21 13z m130 -73 c-6 -32 -17 -94 -25 -138 -8 -44 -17 -91 -20
-105 -3 -14 -9 -50 -15 -80 -6 -30 -12 -66 -15 -80 -3 -14 -8 -38 -10 -55 -10
-53 -36 -189 -45 -235 -6 -25 -12 -58 -15 -75 -3 -16 -7 -41 -10 -55 -2 -14
-25 -131 -49 -260 -24 -129 -60 -318 -80 -420 -42 -221 -45 -236 -51 -275 -3
-16 -12 -61 -20 -100 -8 -38 -16 -83 -19 -100 -3 -16 -8 -40 -10 -51 -2 -12
-7 -37 -10 -55 -3 -19 -8 -45 -11 -59 -11 -54 -15 -76 -20 -105 -3 -16 -12
-64 -20 -105 -8 -41 -17 -88 -20 -105 -3 -16 -15 -79 -26 -140 -12 -60 -36
-189 -54 -285 -27 -139 -96 -503 -110 -580 -2 -8 -11 -55 -20 -105 -9 -49 -19
-101 -21 -115 -6 -34 -42 -217 -60 -310 -9 -41 -17 -88 -20 -105 -2 -16 -6
-41 -9 -55 -9 -42 -25 -123 -31 -155 -2 -16 -7 -37 -9 -45 -2 -8 -7 -33 -10
-55 -3 -23 -8 -52 -10 -65 -8 -38 -73 -381 -79 -415 -3 -16 -14 -73 -25 -125
-11 -52 -22 -115 -26 -140 -3 -25 -10 -61 -15 -80 -5 -19 -11 -48 -13 -65 -4
-24 -33 -178 -51 -270 -2 -11 -11 -58 -20 -105 -9 -47 -18 -94 -20 -105 -2
-11 -11 -58 -20 -105 -9 -47 -18 -95 -20 -106 -2 -12 -7 -37 -10 -55 -3 -19
-16 -90 -30 -159 -13 -69 -29 -152 -35 -185 -6 -33 -13 -71 -16 -85 -3 -14
-12 -61 -20 -104 -8 -44 -16 -81 -18 -82 -1 -1 -32 48 -68 109 -184 309 -331
637 -451 1002 -32 98 -60 188 -63 200 -2 11 -15 63 -29 115 -23 89 -77 347
-91 435 -11 76 -25 173 -30 221 -3 27 -7 65 -10 84 -26 231 -27 775 -1 990 3
19 7 62 11 95 6 59 16 135 41 293 4 29 36 183 69 334 20 90 132 461 155 513 5
11 25 61 44 111 19 50 46 117 60 148 14 31 26 58 26 61 0 2 23 53 51 112 250
534 596 1022 1020 1443 141 139 224 214 383 343 67 54 128 104 136 111 21 17
23 6 10 -61z m-240 -16 c0 -2 -10 -12 -22 -23 l-23 -19 19 23 c18 21 26 27 26
19z m-70 -61 c0 -2 -8 -10 -17 -17 -16 -13 -17 -12 -4 4 13 16 21 21 21 13z
m-80 -70 c0 -2 -8 -10 -17 -17 -16 -13 -17 -12 -4 4 13 16 21 21 21 13z m-120
-111 c-24 -25 -46 -45 -49 -45 -3 0 15 20 39 45 24 25 46 45 49 45 3 0 -15
-20 -39 -45z m5060 -69 c96 -4 189 -9 205 -11 17 -2 57 -7 90 -10 326 -32 694
-118 825 -193 146 -84 319 -243 404 -371 135 -203 204 -418 232 -721 5 -63 5
-263 -1 -345 -24 -342 -118 -649 -272 -892 -128 -204 -332 -402 -558 -543 -65
-41 -297 -160 -311 -160 -3 0 -20 -6 -37 -14 -134 -61 -495 -156 -702 -185
-38 -6 -86 -13 -106 -16 -42 -7 -84 -11 -199 -21 -46 -3 -100 -9 -120 -11 -60
-8 -3050 -12 -3050 -4 0 6 26 152 44 246 2 11 9 47 15 80 6 33 13 71 16 85 7
38 25 136 31 167 2 16 9 48 14 73 5 25 12 59 15 75 23 136 46 263 50 275 4 12
85 450 101 540 3 14 9 48 14 75 6 28 12 61 15 75 6 32 33 178 39 210 2 14 16
86 30 160 14 74 27 146 30 160 2 14 16 86 30 160 14 74 28 151 31 170 3 19 8
42 10 50 2 8 7 31 10 50 3 19 8 46 10 60 3 14 7 36 10 50 3 14 7 36 10 50 2
14 7 41 10 60 3 19 17 89 30 155 13 66 26 137 29 157 3 21 10 57 15 80 5 24
12 59 15 78 3 19 8 46 11 60 3 14 8 41 11 60 4 19 10 37 14 40 12 8 2741 4
2940 -4z m-5150 -19 c0 -2 -12 -14 -27 -28 l-28 -24 24 28 c23 25 31 32 31 24z
m-60 -60 c0 -2 -10 -12 -22 -23 l-23 -19 19 23 c18 21 26 27 26 19z m-50 -50
c0 -2 -10 -12 -22 -23 l-23 -19 19 23 c18 21 26 27 26 19z m-95 -105 l-28 -27
24 31 c13 17 26 30 28 27 3 -2 -8 -16 -24 -31z m-45 -56 c0 -2 -8 -10 -17 -17
-16 -13 -17 -12 -4 4 13 16 21 21 21 13z m-110 -130 c0 -2 -8 -10 -17 -17 -16
-13 -17 -12 -4 4 13 16 21 21 21 13z m-40 -50 c0 -2 -8 -10 -17 -17 -16 -13
-17 -12 -4 4 13 16 21 21 21 13z m-30 -39 c0 -2 -10 -12 -22 -23 l-23 -19 19
23 c18 21 26 27 26 19z m-140 -191 c0 -2 -8 -10 -17 -17 -16 -13 -17 -12 -4 4
13 16 21 21 21 13z m-120 -180 c0 -2 -8 -10 -17 -17 -16 -13 -17 -12 -4 4 13
16 21 21 21 13z m-2143 -1208 c-3 -8 -6 -5 -6 6 -1 11 2 17 5 13 3 -3 4 -12 1
-19z m-10 -40 c-3 -8 -6 -5 -6 6 -1 11 2 17 5 13 3 -3 4 -12 1 -19z m-16 -51
c-10 -9 -11 -8 -5 6 3 10 9 15 12 12 3 -3 0 -11 -7 -18z m-14 -79 c-3 -7 -5
-2 -5 12 0 14 2 19 5 13 2 -7 2 -19 0 -25z m-21 -102 c-4 -19 -10 -37 -14 -40
-5 -3 -3 15 2 39 12 52 21 52 12 1z m-16 -81 c0 -14 -4 -25 -9 -25 -4 0 -6 11
-3 25 2 14 6 25 8 25 2 0 4 -11 4 -25z m-25 -127 c-7 -35 -16 -89 -20 -120 -4
-32 -11 -58 -14 -58 -7 0 23 197 34 228 11 32 11 6 0 -50z m-33 -228 c-2 -16
-9 -30 -14 -30 -6 0 -7 7 -4 16 3 9 6 22 6 30 0 8 4 14 8 14 5 0 7 -13 4 -30z
m-18 -119 c-3 -39 -11 -71 -16 -71 -5 0 -7 8 -4 18 3 9 8 43 12 75 9 82 17 63
8 -22z m11281 -186 c4 -38 8 -76 10 -82 22 -71 23 -758 1 -928 -2 -16 -7 -61
-10 -100 -4 -38 -9 -81 -11 -95 -2 -14 -7 -43 -10 -65 -3 -22 -7 -51 -10 -65
-2 -14 -7 -43 -10 -65 -11 -80 -47 -253 -77 -370 -187 -743 -527 -1421 -1005
-2002 -139 -169 -141 -171 -343 -373 -102 -102 -228 -222 -280 -265 -52 -44
-97 -82 -100 -86 -12 -14 -263 -201 -350 -260 -402 -274 -841 -490 -1290 -637
-126 -41 -335 -101 -410 -117 -8 -2 -49 -11 -90 -20 -91 -20 -221 -44 -274
-51 -22 -3 -42 -7 -46 -9 -3 -2 -37 -6 -75 -10 -39 -4 -73 -9 -76 -11 -38 -22
-568 -23 -684 0 -11 2 -51 7 -89 11 -38 4 -79 8 -90 10 -12 2 -39 6 -61 10
-97 14 -173 27 -210 35 -22 5 -55 11 -72 15 -18 3 -63 12 -100 21 -38 9 -75
17 -83 19 -202 43 -614 184 -845 288 -263 119 -495 245 -710 387 -71 47 -134
87 -140 89 -22 9 -34 30 -30 52 3 13 8 40 11 59 4 19 8 44 11 55 14 70 24 123
28 145 5 25 6 32 25 125 5 28 12 64 15 80 3 17 7 39 9 50 11 54 68 342 70 360
4 25 24 131 31 165 3 14 14 70 25 125 10 55 35 183 55 285 20 102 45 232 56
290 11 58 24 125 29 150 5 25 12 56 14 70 2 14 15 84 29 155 14 72 28 141 30
155 3 14 26 132 51 262 26 131 49 248 51 260 28 153 59 310 66 338 l8 35 1628
1 c1661 1 1899 4 2183 29 121 11 291 30 350 40 14 2 45 7 70 10 270 37 617
119 870 205 179 62 161 55 185 65 465 185 800 401 1125 725 193 192 332 370
440 565 18 33 42 76 54 95 l21 35 12 -95 c7 -52 15 -126 18 -165z m-11291 71
c-2 -6 -6 -38 -9 -71 -33 -395 -25 -946 20 -1280 2 -16 7 -52 10 -80 3 -27 10
-77 15 -110 5 -33 12 -78 15 -100 27 -178 129 -626 165 -720 6 -16 11 -30 10
-30 -4 0 61 -210 87 -280 43 -120 115 -308 133 -350 112 -253 151 -338 214
-459 129 -247 257 -462 396 -663 54 -79 95 -143 92 -143 -4 1 -28 31 -53 68
-25 37 -68 101 -96 142 -71 105 -163 249 -163 255 0 3 -16 31 -35 61 -19 30
-35 57 -35 59 0 3 -11 22 -24 43 -42 67 -182 344 -245 485 -118 264 -250 626
-312 857 -11 41 -27 100 -35 130 -9 30 -17 62 -19 70 -2 8 -13 58 -25 110 -12
52 -23 109 -26 125 -3 17 -11 59 -19 95 -7 36 -16 85 -20 110 -3 25 -10 68
-15 95 -5 28 -12 70 -15 95 -3 25 -7 61 -9 80 -3 19 -8 64 -12 100 -3 36 -8
72 -9 80 -3 20 -16 197 -21 280 -4 95 -4 555 1 625 21 299 27 358 36 344 4 -7
5 -17 3 -23z m1244 -4404 c35 -45 61 -82 58 -82 -5 0 -128 158 -140 180 -11
21 6 2 82 -98z m92 -117 c13 -14 21 -25 18 -25 -2 0 -15 11 -28 25 -13 14 -21
25 -18 25 2 0 15 -11 28 -25z m45 -55 c10 -11 16 -20 13 -20 -3 0 -13 9 -23
20 -10 11 -16 20 -13 20 3 0 13 -9 23 -20z m51 -62 l29 -33 -32 29 c-31 28
-38 36 -30 36 2 0 16 -15 33 -32z m54 -63 c13 -14 21 -25 18 -25 -2 0 -15 11
-28 25 -13 14 -21 25 -18 25 2 0 15 -11 28 -25z m70 -80 c13 -14 21 -25 18
-25 -2 0 -15 11 -28 25 -13 14 -21 25 -18 25 2 0 15 -11 28 -25z m85 -95 c10
-11 16 -20 13 -20 -3 0 -13 9 -23 20 -10 11 -16 20 -13 20 3 0 13 -9 23 -20z
m70 -70 c10 -11 16 -20 13 -20 -3 0 -13 9 -23 20 -10 11 -16 20 -13 20 3 0 13
-9 23 -20z"/>
</g>
</svg>
