<svg xmlns="http://www.w3.org/2000/svg" viewBox="0 0 375 812"><defs><style>.cls-1{fill:#222;}.cls-2{fill:#fff;}.cls-3{fill:#18d5f2;}.cls-4{fill:#eb3d80;}.cls-5,.cls-6,.cls-7{fill:none;}.cls-5{stroke:#eb3d80;}.cls-6{stroke:#18d5f2;}.cls-7{stroke:#fff;}</style></defs><title>Pavučina iphone</title><g id="Layer_2" data-name="Layer 2"><rect class="cls-1" width="375" height="812"/></g><g id="Layer_1" data-name="Layer 1"><path class="cls-2" d="M247.75,709.13c-.38,0-.56-.31-.56-.91v-2.59l-.11-2.14q-.32-5.75-.31-8.43,0-1.47-.39-9.17c0-1.12-.08-1.84-.1-2.14s0-.5,0-.52V683c0-.16.12-.27.35-.31a5.63,5.63,0,0,1,1.23-.07h1.75a.47.47,0,0,1,.42.24,1,1,0,0,1,.14.56c0,.23-.21.35-.63.35l-.81,0h-.91c-.18,0-.3,0-.35.1a1.43,1.43,0,0,0-.07.56c0,.47.08,2.17.25,5.11s.24,4.66.24,5.15a4.87,4.87,0,0,0,1.19-.21,5.38,5.38,0,0,1,1.19-.21.4.4,0,0,1,.35.24.79.79,0,0,1,.18.46c0,.25-.19.43-.56.52a15.46,15.46,0,0,1-1.61.18c-.49.07-.74.21-.74.42q0,1.58.35,5.88.31,3.92.32,5.91l-.11.18a1.14,1.14,0,0,1,.11.45C248.52,708.9,248.26,709.13,247.75,709.13Zm9.48-.07c-.54,0-.85-.12-1-.35a1.09,1.09,0,0,0-.28,0h-.28c-.51,0-.84-.12-1-.35A.52.52,0,0,1,255,708l.18-.17h1l.14-.14.07-.32,0-.42c0-1.42,0-2.69-.11-3.81l-.07-1.3-.07-2.55c0-.91,0-2.28.11-4.1l.07-4.06a34.25,34.25,0,0,0-.18-4.06,3.73,3.73,0,0,0-1-.1l-.38,0a3.15,3.15,0,0,1-.46,0q-.66,0-.66-.6c0-.09.1-.19.31-.28a1.44,1.44,0,0,1,.53-.14,26.49,26.49,0,0,1,2.66.14,5.48,5.48,0,0,1,1.61.32c.42.14.63.33.63.59a.87.87,0,0,1-.11.28l-.8.07a1.69,1.69,0,0,0-1-.21l-.17.11a9,9,0,0,1,.1,1.85q0,2.31,0,4.17l-.07,4.16c0,1,0,2.32.14,3.82.07,1.7.1,3,.1,3.85v.45a5.29,5.29,0,0,0,0,.63,2.62,2.62,0,0,0,.1,1l0,.07c0,.23.25.35.77.35a3.74,3.74,0,0,0,.52,0h.53c.67,0,1,.16,1,.49a.7.7,0,0,1-.21.52.82.82,0,0,1-.56.18,2.38,2.38,0,0,1-.56-.07,3.65,3.65,0,0,0-.59,0,1.81,1.81,0,0,0-.63.18A1.61,1.61,0,0,1,257.23,709.06Zm10.54.24a5.73,5.73,0,0,1-2.38-.38,2.46,2.46,0,0,1-1.15-1.47,20,20,0,0,1-.63-3.54,49.89,49.89,0,0,1-.42-5.49c0-.8,0-1.71.14-2.73l.21-2.21c.11-1.75.24-3.07.38-4a5.44,5.44,0,0,1,1-2.38,3.37,3.37,0,0,1,2.45-1.23,3.6,3.6,0,0,1,.56,0c.72,0,1.08.16,1.08.49a.48.48,0,0,1-.24.38.83.83,0,0,1-.46.14l-.35,0-.31,0a1.71,1.71,0,0,0-1.09.39,3,3,0,0,0-.77,1.12,13,13,0,0,0-.94,3.43c-.19,1.47-.31,2.75-.35,3.85l0,2.69a22.44,22.44,0,0,0,.11,2.56,2.64,2.64,0,0,1,.31,1.19q.11.77.18,2.13a9.74,9.74,0,0,0,.31,2.1,3,3,0,0,0,.88,1.4,2.85,2.85,0,0,0,1.92.6,1.49,1.49,0,0,0,1.44-1.12,7.79,7.79,0,0,0,.56-2.45c.07-1.05.1-1.94.1-2.66v-1.93a1.71,1.71,0,0,0-1.22-.35h-.28a2.34,2.34,0,0,1-.39,0q-.84,0-.84-.42,0-.6.84-.6a8.78,8.78,0,0,1,1,0l.77,0a5.07,5.07,0,0,1,1.05.25c.28.09.42.22.42.38a5.84,5.84,0,0,1-.21,1.3,9.92,9.92,0,0,0-.17,1.33c0,1,0,1.86.07,2.66s0,1.71,0,2.69A5.12,5.12,0,0,1,267.77,709.3Zm21.56,1.58c-.47,0-.7-.75-.7-2.24v-2.31q0-5-.21-7.88l-.11-1.29a10.43,10.43,0,0,1-.14-1.54c0-.8,0-1.52.07-2.17l.07-2.17a6.88,6.88,0,0,0-.14-1.65q-.69.5-4.23,14.74l0,.52a7.14,7.14,0,0,1-.28,1.4,1.31,1.31,0,0,1-.31.6.54.54,0,0,1-.42.21,1.07,1.07,0,0,1-.81-.28,1.34,1.34,0,0,1-.24-.88,32.12,32.12,0,0,0-.91-4.9c-.58-2.64-1.23-5.17-1.93-7.59a16,16,0,0,0-1.4-4c0,.82-.11,2.74-.28,5.78q-.48,8-.49,12.67l0,1.4c-.09.3-.34.45-.74.45-.07,0-.18-.07-.35-.21s-.24-.21-.24-.28q0-3.15.56-11.06.52-7.35.52-11a.84.84,0,0,0-.07-.35.79.79,0,0,1-.1-.32c0-.35.3-.52.91-.52a.62.62,0,0,1,.7.52,6.31,6.31,0,0,1,.14,1l0,.42a15,15,0,0,0,1,2.8,24.71,24.71,0,0,1,1,2.63c.14.56.27,1,.39,1.36.37,1.35.62,2.36.73,3l.46.91c.07.35.21.92.42,1.72s.36,1.61.45,2.17a9.07,9.07,0,0,1,.14,1.61A59.19,59.19,0,0,0,285,697q1.83-6.59,2.14-8.4a.48.48,0,0,0,0-.18,2.15,2.15,0,0,0,.07-.35c.05-.3.16-.76.32-1.36s.47-.7.84-.7a1.06,1.06,0,0,1,.56.21c.21.14.31.28.31.42q0,14.6.46,15.43v1.82c0,.54,0,1.16,0,1.86a17.23,17.23,0,0,0,.25,3.36.13.13,0,0,1,0,.1.75.75,0,0,1,.07.18,1,1,0,0,1,0,.31,1.38,1.38,0,0,1-.25.77A.6.6,0,0,1,289.33,710.88Zm-1.16-21.46h0l-.07,0,.1,0Zm14.09,20a1.08,1.08,0,0,1-.67-.14,1.1,1.1,0,0,1-.21-.63c-.21-1.7-.34-2.76-.38-3.18l-.18-1.4a7.66,7.66,0,0,0-1.75-.18l-1.26-.07a10.83,10.83,0,0,0-1.22-.1c-.14,0-.22.05-.25.17s0,.11,0,.11l-.07.7c0,.42-.15,1.26-.39,2.52a5.72,5.72,0,0,1-.42,1.47c-.18.39-.36.59-.52.59a.87.87,0,0,1-.46-.17.58.58,0,0,1-.24-.42l0-.11,0-.1c.42-1.66.77-3.31,1.05-4.94l.42-2.17.42-2.66s.13-.77.38-2.31c.12-.63.33-1.64.63-3,.33-1.59.53-2.68.6-3.26,0-.07.07-.5.14-1.29s.17-1.54.24-2a3.29,3.29,0,0,1,.21-1h.25a.88.88,0,0,0,.24,0,.86.86,0,0,0,.63-.21.54.54,0,0,1,.42.18.41.41,0,0,1,.21.35,33.35,33.35,0,0,0,.25,3.85c.09.74.16,1.36.21,1.85q.38,4.51,2,16.94v.11A.59.59,0,0,1,302.26,709.37Zm-1.61-6.3q-.36-5-1.33-14.87l-1.89,9.34a36.35,36.35,0,0,0-.81,5.08c0,.11.45.22,1.33.31s1.67.14,2.35.14Z" transform="translate(-0.6)"/><path class="cls-2" d="M285.94,144.7a4.2,4.2,0,0,1-2.36-.88,5.3,5.3,0,0,1-1.76-2q-.48-1-1-6.6t-.48-8.28v-2.12c0-.62,0-1.3,0-2a35.19,35.19,0,0,1,.24-4.12,11.29,11.29,0,0,1,.4-1.72,6.6,6.6,0,0,1,.76-1.4,4.21,4.21,0,0,1,2.64-1.8,8.15,8.15,0,0,1,2-.24,2.92,2.92,0,0,1,1.52.44c.54.29.8.64.8,1s-.21.44-.64.44a3.4,3.4,0,0,1-.92-.28,2.55,2.55,0,0,0-1.08-.28,4.38,4.38,0,0,0-2,.48,3.64,3.64,0,0,0-1.4,1.2,6.24,6.24,0,0,0-.76,1.76,11.58,11.58,0,0,0-.4,2.24,20.37,20.37,0,0,0-.12,2.4l0,2.24c0,.64,0,1.33,0,2.08,0,1.84.19,4.54.56,8.12s.74,5.64,1.08,6.2a3.11,3.11,0,0,0,1.4,1.16,5.29,5.29,0,0,0,2,.4,3.43,3.43,0,0,0,2.8-1.16,1,1,0,0,1,.76-.48c.24,0,.36.18.36.56a2,2,0,0,1-.44,1.28,2.85,2.85,0,0,1-1.2.8A6.93,6.93,0,0,1,285.94,144.7Zm9.73.24a6.29,6.29,0,0,1-1.12-.08,2.86,2.86,0,0,1-.8-.24,1.64,1.64,0,0,1-.72-.68c0-.32.14-.48.44-.48a3.07,3.07,0,0,1,1.12.28,2.53,2.53,0,0,0,1.08.32,2.23,2.23,0,0,0,1.6-.72,4.73,4.73,0,0,0,1.16-1.88,12.51,12.51,0,0,0,.8-4,14.73,14.73,0,0,0-.56-4,19.75,19.75,0,0,0-1.48-3.76c-.14-.3-.36-.74-.68-1.32-.67-1.34-1.18-2.38-1.52-3.12a17.09,17.09,0,0,1-.92-2.48,12.82,12.82,0,0,1-.56-3.88,7.82,7.82,0,0,1,.4-2.52,5.2,5.2,0,0,1,1.36-2.12,3.18,3.18,0,0,1,2.24-.92,2.39,2.39,0,0,1,1.16.4c.45.24.68.48.68.72s-.08.32-.24.32a1.57,1.57,0,0,1-.64-.2,1.35,1.35,0,0,0-.68-.2,2.28,2.28,0,0,0-1.64.68,4,4,0,0,0-1,1.68,5.68,5.68,0,0,0-.28,1.84,13.8,13.8,0,0,0,.4,3.24,15.36,15.36,0,0,0,1.08,3.08l1.4,2.92.4.84c.56,1.14,1,2.09,1.28,2.84a15,15,0,0,1,.8,2.52,15.94,15.94,0,0,1,.44,3.6,10.52,10.52,0,0,1-1.2,4.72,5.33,5.33,0,0,1-1.6,1.88A3.69,3.69,0,0,1,295.67,144.94Zm10.54,0a6.37,6.37,0,0,1-1.12-.08,3,3,0,0,1-.8-.24,1.64,1.64,0,0,1-.72-.68c0-.32.15-.48.44-.48a3,3,0,0,1,1.12.28,2.61,2.61,0,0,0,1.08.32,2.21,2.21,0,0,0,1.6-.72,4.52,4.52,0,0,0,1.16-1.88,12.25,12.25,0,0,0,.8-4,14.34,14.34,0,0,0-.56-4,18.51,18.51,0,0,0-1.48-3.76c-.13-.3-.36-.74-.68-1.32-.66-1.34-1.17-2.38-1.52-3.12a19.8,19.8,0,0,1-.92-2.48,13.14,13.14,0,0,1-.56-3.88,8.11,8.11,0,0,1,.4-2.52,5.41,5.41,0,0,1,1.36-2.12,3.22,3.22,0,0,1,2.24-.92,2.36,2.36,0,0,1,1.16.4c.46.24.68.48.68.72s-.08.32-.24.32a1.62,1.62,0,0,1-.64-.2,1.32,1.32,0,0,0-.68-.2,2.3,2.3,0,0,0-1.64.68,4.16,4.16,0,0,0-1,1.68,6,6,0,0,0-.28,1.84,14.35,14.35,0,0,0,.4,3.24,16.72,16.72,0,0,0,1.08,3.08l1.4,2.92.4.84c.56,1.14,1,2.09,1.28,2.84a14.09,14.09,0,0,1,.8,2.52,15.39,15.39,0,0,1,.44,3.6,10.52,10.52,0,0,1-1.2,4.72,5.23,5.23,0,0,1-1.6,1.88A3.67,3.67,0,0,1,306.21,144.94Z" transform="translate(-0.6)"/><path class="cls-2" d="M251.74,316.5a.72.72,0,0,1-.52-.28,1.55,1.55,0,0,1-.32-.64l-.12-.76a3.61,3.61,0,0,1-.12-.6q-4.47-16.05-4.92-18c-.24-1-.78-3.63-1.64-8,0,.16,0,.7,0,1.64v14.48l.08,5.72.08,5.68-.24.32h-.92l-.12-.32a9.32,9.32,0,0,0,.08-1.6l0-7-.08-7v-9c0-1.12,0-2.38,0-3.76a2,2,0,0,0,0-.44v-.4a.71.71,0,0,1,.24-.64,1.41,1.41,0,0,1,.84-.2.82.82,0,0,1,.52.24,1,1,0,0,1,.4.52l.84,3.92c.38,1.86.7,3.28,1,4.24q.84,3.31,2.88,10.88c.78,3.3,1.47,5.84,2.08,7.6a5.58,5.58,0,0,0,.24-1.92q0-3.89.08-7l.08-7c0-1.15,0-2.19,0-3.12V291.1l0-5.64a.81.81,0,0,1,.84-.56c.22,0,.32.38.32,1.16a6.54,6.54,0,0,1,0,.84,2,2,0,0,1,0,.48v2.72q0,5.31,0,9.48c0,2.8,0,5.94,0,9.44,0,.66,0,1.72-.12,3.16l-.08,3.16C252.78,316.11,252.44,316.5,251.74,316.5Zm11.36.32q-4.68,0-4.68-14.72v-1.4q0-11.16,2.88-11.16a1.94,1.94,0,0,1,.56.12,11.1,11.1,0,0,0,2.52.56c.5.1,1,.62,1.52,1.56a11.37,11.37,0,0,1,1.24,3.8,26.57,26.57,0,0,1,.44,4.84l-.08.2c0,.88,0,1.66,0,2.36l0,2.4c0,1.36-.06,2.58-.16,3.68a21.81,21.81,0,0,1-.8,4.28,7.56,7.56,0,0,1-.84,1.8,4.15,4.15,0,0,1-1.12,1.2A2.54,2.54,0,0,1,263.1,316.82Zm-.16-1.16c1,0,1.81-.74,2.32-2.2a18.56,18.56,0,0,0,.92-4.56c.1-1.6.16-2.88.16-3.84s-.08-2.64-.24-4.72c-.14-2.32-.2-3.9-.2-4.72l-.16-.32.08-.2a4.81,4.81,0,0,0-1-3,2.85,2.85,0,0,0-2.36-1.28,2,2,0,0,0-2.2,1.76c-.06.4-.11,1-.16,1.72a22.17,22.17,0,0,1-.24,4c0,.4,0,1-.12,1.88l-.08,1.88c0,.58,0,1.1,0,1.56l0,1.6a32.58,32.58,0,0,0,.32,4.32,25.11,25.11,0,0,0,.56,3,6.73,6.73,0,0,0,.92,2.12A1.68,1.68,0,0,0,262.94,315.66Zm10.59.6c-.22,0-.32-.36-.32-1.08q-.16-2.76-.16-7c0-1.76,0-3.34,0-4.72l0-4.72c0-2-.06-4.54-.16-7.52a1,1,0,0,1-.36-.8.74.74,0,0,1,.32-.56,1,1,0,0,1,.64-.32.79.79,0,0,1,.6.32l.44.36a3.79,3.79,0,0,0,.92.24,5,5,0,0,1,1,.24,8.38,8.38,0,0,1,1.6,1.24,11.5,11.5,0,0,0,1.32,1.2l0,.08a3.57,3.57,0,0,0,.6,1,10.33,10.33,0,0,1,.72,1.12,14.91,14.91,0,0,1,.64,4.76c0,.34,0,.65,0,.92v1.28l0,.4a2.56,2.56,0,0,0,.24,1.2c-.16.85-.36,2.46-.6,4.84a20.24,20.24,0,0,1-.4,2.2,9,9,0,0,1-.68,1.92,8.55,8.55,0,0,1-3.48,3.32Zm2.64-1.16a3.63,3.63,0,0,1,.52-.52l.28-.2.32-.28q2.79-2.52,2.8-9.6v-.76a5,5,0,0,1,0-.68l-.16-4a11.83,11.83,0,0,0-1.4-4.8,5.22,5.22,0,0,0-1.64-2,3.32,3.32,0,0,0-2.12-.8c-.32,0-.48,2.46-.48,7.4q0,8.55.48,14.92l0,.76.16.08.08.52Zm11.26,1.48c-.48,0-.74-.28-.8-.84v-.52a2.33,2.33,0,0,0,0-.48l-.16-.16a4.46,4.46,0,0,0,.32-1.64q0-.93-.12-2.64l-.08-2.64q0-2,.12-6,.17-3.57.16-6l-.08-2.4c-.05-.72-.08-1.52-.08-2.4A1.09,1.09,0,0,1,287,290a1.19,1.19,0,0,1,.88-.28.86.86,0,0,1,.64.24c.06,0,.44.08,1.16.16a8.76,8.76,0,0,1,1.72.36c.51.16.76.36.76.6s-.25.53-.76.8a12,12,0,0,0-3.24-.76l-.2.24c0,.24,0,.81,0,1.72,0,1.14,0,2.17-.08,3.08s0,2,0,3.12c0,.74.19,1.12.56,1.12l.64,0a5,5,0,0,1,.68,0q1.56,0,1.56.72a1.37,1.37,0,0,1-.2.76.7.7,0,0,1-.6.28,1.27,1.27,0,0,1-.92-.32l-1.28-.2h-.2l-.2.2v.12c.06.45.08,1.5.08,3.16,0,1,0,2,0,2.84l0,2.84c0,1,0,2.1.12,3.2a1.78,1.78,0,0,0,.4,1.24,2.3,2.3,0,0,0,1.32.28l.72,0a6.58,6.58,0,0,1,.8,0c.78,0,1.16.17,1.16.52s-.58.72-1.76.72Zm9.44-.36a.9.9,0,0,1-.64-.28,1.13,1.13,0,0,1-.24-.68,1,1,0,0,1,.32-.72.94.94,0,0,1,.72-.36.9.9,0,0,1,.64.36,1,1,0,0,1,.32.68C298,315.88,297.61,316.22,296.87,316.22Zm3.38,3.84V320l0-.08c0-.08.22-.27.68-.56a15,15,0,0,1,1.44-1,7.87,7.87,0,0,0,.92-.68,4.88,4.88,0,0,0,.92-2.12,12.21,12.21,0,0,0,.36-2.88c0-2.86-.06-6.4-.16-10.64-.14-3.95-.2-7.48-.2-10.6l-.24-.44a9.21,9.21,0,0,0-1-.2,3.83,3.83,0,0,1-1.36-.32c-.4-.14-.6-.31-.6-.52s.1-.22.32-.32a1.16,1.16,0,0,1,.52-.16,15.75,15.75,0,0,1,2.4.28,21,21,0,0,1,3,.68q1.32.39,1.32.72a.51.51,0,0,1-.2.4.74.74,0,0,1-.44.12,5.75,5.75,0,0,1-1.08-.2,3.27,3.27,0,0,0-1.08-.2c-.24,0-.36.26-.36.8,0,1.46.06,4.24.2,8.32q.19,4.59.2,8.28v4.4a4.25,4.25,0,0,0-.24,1.68,9.4,9.4,0,0,1-1,3.8,4.71,4.71,0,0,1-1.36,1.72,2.69,2.69,0,0,1-1.76.68h-.28Zm12.6-3.52a2.38,2.38,0,0,1-.84-.36.83.83,0,0,1-.44-.6l.2-.32a4.54,4.54,0,0,1,.72.12,2.5,2.5,0,0,0,.72.16,2.15,2.15,0,0,0,1.56-.68,4.71,4.71,0,0,0,1-1.84,14.88,14.88,0,0,0,.56-3.92,12.67,12.67,0,0,0-1.68-5.92c-.69-1.23-1.22-2.2-1.6-2.92a16.6,16.6,0,0,1-1-2.48,10.7,10.7,0,0,1-.52-3.16,10.08,10.08,0,0,1,.72-3.4,3.73,3.73,0,0,1,1-1.48,2.18,2.18,0,0,1,1.44-.6,1.64,1.64,0,0,1,1,.36,1,1,0,0,1,.52.76c0,.21-.17.32-.52.32a1,1,0,0,1-.4-.12,1,1,0,0,0-.44-.12,1.49,1.49,0,0,0-1.08.48,3,3,0,0,0-.72,1.24,8.82,8.82,0,0,0-.48,2.72,6.68,6.68,0,0,0,.2,1.56c0,.16.06.29.08.4a.85.85,0,0,1,0,.24l.24.8.2.72.32.72c.08.18.16.36.24.52a2.63,2.63,0,0,1,.28.4l.48.84c.11.16.34.54.68,1.16a15.75,15.75,0,0,1,1,1.88,8.58,8.58,0,0,1,.6,1.6,12.84,12.84,0,0,1,.36,1.76,18.47,18.47,0,0,1,.12,2.2,12,12,0,0,1-.52,3.6,5.09,5.09,0,0,1-2.08,2.8,3.2,3.2,0,0,1-1.76.48Zm3.2-26.08s0,0,0,0v0Z" transform="translate(-0.6)"/><path class="cls-2" d="M247.42,388.3a3.37,3.37,0,0,1-1.36-.2.67.67,0,0,1-.36-.68v-.76c0-.22,0-.46,0-.72v-.08l0-5.84,0-16.52c0-1.71,0-3.19-.08-4.44a1.51,1.51,0,0,1,.2-.8.59.59,0,0,1,.52-.32h2.48a2.94,2.94,0,0,1,.84.08c.27.08.4.3.4.68a.66.66,0,0,1-.24.52,1.08,1.08,0,0,1-.52.24h-.68l-.64,0-.64,0a.56.56,0,0,0-.4.12.55.55,0,0,0-.08.36c0,1.25,0,2.38,0,3.4v8.4a.07.07,0,0,0,.08.08H247c.67-.06,1.39-.08,2.16-.08.43,0,.64.18.64.56a.78.78,0,0,1-.16.56.61.61,0,0,1-.44.12h-2.28c-.1,0-.16.06-.16.2l.08,5.92c.06,1.84.08,4,.08,6.36v1.48h3.76c.48,0,.72.17.72.52s-.12.68-.36.76a7.86,7.86,0,0,1-2,.16Zm8.32-.12c-.5,0-.76-.16-.76-.48a27.78,27.78,0,0,1,1.12-6.24,26.94,26.94,0,0,0,1.12-6.28,43.45,43.45,0,0,0-1.08-6.08,27.68,27.68,0,0,0-1.44-5.4v-.16a.12.12,0,0,0,0-.08v0a1,1,0,0,0-.2-.56c-.1-.32-.16-.48-.16-.48s.08-.2.24-.28a1.29,1.29,0,0,1,.48-.12c.22,0,.39.16.52.48a3.25,3.25,0,0,1,.32,1l0,.92a27.34,27.34,0,0,1,1,4q.52,2.64.84,3.72a15.47,15.47,0,0,0,.6-3.12c.27-1.76.44-3.08.52-4,.16-2.16.34-3.27.52-3.32l.32-.08.32,0,.36.48a6.73,6.73,0,0,0-.64,3.52v.24l0,.24,0,0c-.1,1-.37,2.42-.8,4.4a27,27,0,0,0-.68,5,52.46,52.46,0,0,0,1,5.32c.7,3.12,1.15,4.94,1.36,5.48a1.94,1.94,0,0,0,.2.32,1.82,1.82,0,0,1,.28.84.48.48,0,0,1-.2.4.56.56,0,0,1-.4.16,1.17,1.17,0,0,1-.52-.12l-.72-3c-.64-2.4-1.14-4.63-1.52-6.68a12.88,12.88,0,0,0-.88,4.16,23.88,23.88,0,0,1-.72,4.4,1,1,0,0,1,.08.48,1.58,1.58,0,0,1-.16.72A.44.44,0,0,1,255.74,388.18Zm10.48.36a34.09,34.09,0,0,1-.44-5.76q0-1.29.12-3.72l.08-3.72a2.32,2.32,0,0,1-.28-.92,9.45,9.45,0,0,0,.4-3.68,63.24,63.24,0,0,0-.2-7.76c.24-.67.43-1,.56-1h1.76a2.75,2.75,0,0,1,1.24.44,6,6,0,0,1,1.4.88c.67.61,1,2.18,1,4.72a30.38,30.38,0,0,1-.12,3.12,3.79,3.79,0,0,1-.28,1.2,5.09,5.09,0,0,1-.52,1,4.87,4.87,0,0,1-2,1.6,10.16,10.16,0,0,1-1.68.64v4.76c0,.66.07,2,.2,3.92l.08,1.28.08,2.6c0,.48-.25.72-.76.72Zm1.28-14.32a2.36,2.36,0,0,0,2-1.08,4.54,4.54,0,0,0,.52-1.08,6.32,6.32,0,0,0,.32-1.32,13.4,13.4,0,0,0,.24-2.68V367c0-.38,0-.74,0-1.08a5.35,5.35,0,0,0-.16-1,2.09,2.09,0,0,0-.44-.84,1.82,1.82,0,0,0-.68-.6,2.55,2.55,0,0,0-1.16-.24.85.85,0,0,0-.68.24,1.36,1.36,0,0,0-.2.84q0,1,.12,2.88l.08,2.88a18,18,0,0,1-.08,1.88l-.08,1.88Zm14.79,14.32a7.82,7.82,0,0,1-1-2.76q-.56-2.25-1-5a36.94,36.94,0,0,0-.92-4.52c-.32-1.34-.62-2-.92-2h-.12c-.58,0-.88.18-.88.56q0,2.88.32,8.76a27.2,27.2,0,0,0,.36,4.2l-.32.68h-.56l-.32-.32q-.63-18.48-.64-25.2a6.42,6.42,0,0,1,0-.72,1.55,1.55,0,0,1,.28-.52.59.59,0,0,1,.56-.28,5,5,0,0,1,3.28,1,3.46,3.46,0,0,1,1.24,2.88v2.92a5.81,5.81,0,0,1-.52,2,17.72,17.72,0,0,1-1.08,2.36l-.52,1q.45,2,1.72,7.36c.88,3.52,1.36,5.38,1.44,5.6a.34.34,0,0,1,.08.2l.28.48a2.16,2.16,0,0,1,.28,1c0,.37-.14.56-.44.56Zm-4.72-15.32a1.74,1.74,0,0,0,1.36-.76,5.88,5.88,0,0,0,1-2,16.1,16.1,0,0,0,.64-3.88,7.91,7.91,0,0,0-.12-1.52,6.14,6.14,0,0,0-.32-1.28,2.12,2.12,0,0,0-2.28-1.4c-.13,0-.24.12-.32.36a1.91,1.91,0,0,0-.12.68c0,1.78,0,3.4.08,4.84s0,3.05,0,4.84Zm11,15.36c-.48,0-.74-.28-.8-.84v-.52a2.33,2.33,0,0,0,0-.48l-.16-.16a4.46,4.46,0,0,0,.32-1.64q0-.93-.12-2.64l-.08-2.64q0-2,.12-6,.16-3.57.16-6l-.08-2.4c-.05-.72-.08-1.52-.08-2.4a1.09,1.09,0,0,1,.28-.84,1.19,1.19,0,0,1,.88-.28.86.86,0,0,1,.64.24c.06,0,.44.08,1.16.16a8.76,8.76,0,0,1,1.72.36c.51.16.76.36.76.6s-.25.53-.76.8a12,12,0,0,0-3.24-.76l-.2.24c0,.24,0,.81,0,1.72,0,1.14,0,2.17-.08,3.08s0,2,0,3.12c0,.74.19,1.12.56,1.12l.64,0a5,5,0,0,1,.68,0q1.56,0,1.56.72a1.37,1.37,0,0,1-.2.76.7.7,0,0,1-.6.28,1.27,1.27,0,0,1-.92-.32l-1.28-.2h-.2l-.2.2v.12c.06.45.08,1.5.08,3.16,0,1,0,2,0,2.84l0,2.84c0,1,0,2.1.12,3.2a1.78,1.78,0,0,0,.4,1.24,2.3,2.3,0,0,0,1.32.28l.72,0a6.58,6.58,0,0,1,.8,0c.78,0,1.16.17,1.16.52s-.58.72-1.76.72Zm9.92,0a2.23,2.23,0,0,1-.84-.36.78.78,0,0,1-.44-.6l.2-.32a4.93,4.93,0,0,1,.72.12,2.37,2.37,0,0,0,.72.16,2.18,2.18,0,0,0,1.56-.68,4.84,4.84,0,0,0,1-1.84,15.31,15.31,0,0,0,.56-3.92,12.67,12.67,0,0,0-1.68-5.92c-.7-1.23-1.23-2.2-1.6-2.92a14.71,14.71,0,0,1-1-2.48,10.39,10.39,0,0,1-.52-3.16,10.08,10.08,0,0,1,.72-3.4,3.63,3.63,0,0,1,1-1.48,2.14,2.14,0,0,1,1.44-.6,1.66,1.66,0,0,1,1,.36,1,1,0,0,1,.52.76c0,.21-.18.32-.52.32a.93.93,0,0,1-.4-.12,1,1,0,0,0-.44-.12,1.49,1.49,0,0,0-1.08.48,3,3,0,0,0-.72,1.24,8.82,8.82,0,0,0-.48,2.72,6.18,6.18,0,0,0,.2,1.56,2.81,2.81,0,0,0,.08.4,1.48,1.48,0,0,1,0,.24l.24.8.2.72.32.72c.08.18.16.36.24.52a3.6,3.6,0,0,1,.28.4l.48.84c.1.16.33.54.68,1.16a19.41,19.41,0,0,1,1,1.88,10.27,10.27,0,0,1,.6,1.6,16.77,16.77,0,0,1,.36,1.76,18.47,18.47,0,0,1,.12,2.2,12.33,12.33,0,0,1-.52,3.6,5.14,5.14,0,0,1-2.08,2.8,3.25,3.25,0,0,1-1.76.48Zm3.2-26.08a0,0,0,0,0,0,0v0Zm5.86,26.08a2.38,2.38,0,0,1-.84-.36.81.81,0,0,1-.44-.6l.2-.32a4.54,4.54,0,0,1,.72.12,2.37,2.37,0,0,0,.72.16,2.15,2.15,0,0,0,1.56-.68,4.84,4.84,0,0,0,1-1.84,15.31,15.31,0,0,0,.56-3.92,12.67,12.67,0,0,0-1.68-5.92c-.69-1.23-1.23-2.2-1.6-2.92a15.6,15.6,0,0,1-1-2.48,10.39,10.39,0,0,1-.52-3.16,10.08,10.08,0,0,1,.72-3.4,3.63,3.63,0,0,1,1-1.48,2.14,2.14,0,0,1,1.44-.6,1.64,1.64,0,0,1,1,.36,1,1,0,0,1,.52.76c0,.21-.17.32-.52.32a.93.93,0,0,1-.4-.12,1,1,0,0,0-.44-.12,1.49,1.49,0,0,0-1.08.48,3,3,0,0,0-.72,1.24,8.82,8.82,0,0,0-.48,2.72,6.68,6.68,0,0,0,.2,1.56c0,.16,0,.29.08.4a.85.85,0,0,1,0,.24l.24.8.2.72.32.72c.08.18.16.36.24.52a2.63,2.63,0,0,1,.28.4l.48.84c.11.16.33.54.68,1.16a15.75,15.75,0,0,1,1,1.88,8.58,8.58,0,0,1,.6,1.6,16.77,16.77,0,0,1,.36,1.76,18.47,18.47,0,0,1,.12,2.2,12,12,0,0,1-.52,3.6,5.09,5.09,0,0,1-2.08,2.8,3.23,3.23,0,0,1-1.76.48Zm3.2-26.08s0,0,0,0v0Z" transform="translate(-0.6)"/><path class="cls-3" d="M264.46,582.94a6.37,6.37,0,0,1-1.12-.08,3,3,0,0,1-.8-.24,1.64,1.64,0,0,1-.72-.68c0-.32.15-.48.44-.48a3,3,0,0,1,1.12.28,2.61,2.61,0,0,0,1.08.32,2.21,2.21,0,0,0,1.6-.72,4.52,4.52,0,0,0,1.16-1.88,12.25,12.25,0,0,0,.8-4,14.34,14.34,0,0,0-.56-4A18.51,18.51,0,0,0,266,567.7c-.13-.3-.36-.74-.68-1.32-.66-1.34-1.17-2.38-1.52-3.12a19.8,19.8,0,0,1-.92-2.48,13.14,13.14,0,0,1-.56-3.88,8.11,8.11,0,0,1,.4-2.52,5.41,5.41,0,0,1,1.36-2.12,3.22,3.22,0,0,1,2.24-.92,2.36,2.36,0,0,1,1.16.4c.46.24.68.48.68.72s-.08.32-.24.32a1.62,1.62,0,0,1-.64-.2,1.32,1.32,0,0,0-.68-.2,2.3,2.3,0,0,0-1.64.68,4.16,4.16,0,0,0-1,1.68,6,6,0,0,0-.28,1.84,14.35,14.35,0,0,0,.4,3.24,16.72,16.72,0,0,0,1.08,3.08l1.4,2.92.4.84c.56,1.14,1,2.09,1.28,2.84A14.09,14.09,0,0,1,269,572a15.39,15.39,0,0,1,.44,3.6,10.52,10.52,0,0,1-1.2,4.72,5.23,5.23,0,0,1-1.6,1.88A3.67,3.67,0,0,1,264.46,582.94Zm19.19,4.64a2,2,0,0,1-.64-.24,1.55,1.55,0,0,0-.56-.28,2.31,2.31,0,0,1-1.12-1.16,9.35,9.35,0,0,1-.64-2.44,10.22,10.22,0,0,0-.4-1.92,5.61,5.61,0,0,1-2-.36,4.84,4.84,0,0,1-1.56-1.08,8.06,8.06,0,0,1-1.72-3.44,11,11,0,0,1-.36-2,20.33,20.33,0,0,1-.12-2c0-.35,0-.95,0-1.8v-1.8c0-.56,0-1.22,0-2,0-1.6,0-3.42.12-5.44a46.44,46.44,0,0,1,.52-5.12,11.35,11.35,0,0,1,1.24-3.76,2.53,2.53,0,0,1,2.28-1.52,4.19,4.19,0,0,1,2.76,1.16,3.88,3.88,0,0,1,1.6,2.48,91.58,91.58,0,0,1,1.12,15.56q0,7-2.48,10.56a2.56,2.56,0,0,0,.2.76l.2.56.12,1.08c.08.72.15,1.22.2,1.52a2.9,2.9,0,0,0,.44.88,1.19,1.19,0,0,0,1,.48h.16c.86,0,1.28.17,1.28.52S284.67,587.58,283.65,587.58Zm-3.8-7.08c1,0,1.7-1.26,2.12-3.76a75.58,75.58,0,0,0,.68-12v-1l0-2.52,0-1.08a11.91,11.91,0,0,0-.2-1.84c-.1-.62-.21-1.23-.32-1.84a7.06,7.06,0,0,0-1.24-2.88,2.62,2.62,0,0,0-2.32-1.16c-.42,0-.8.29-1.12.88a17.41,17.41,0,0,0-1.32,5.6,66.27,66.27,0,0,0-.44,6.8c0,.58,0,1.41,0,2.48v2.4a22.68,22.68,0,0,0,.48,4.6,15,15,0,0,0,.72,2.72A6.2,6.2,0,0,0,278,579.7,2.56,2.56,0,0,0,279.85,580.5Zm11,1.8a.6.6,0,0,1-.48-.24,1,1,0,0,1-.16-.6v-1.6c0-1.68-.07-3.58-.2-5.68s-.16-4.14-.16-5.68-.07-4.23-.2-8.36c-.16-3.74-.24-6.52-.24-8.36a.36.36,0,0,1,.16-.32.66.66,0,0,1,.44-.16q.72,0,.72.6,0,7.4.12,11.08l.2,7.16c0,1.12.08,2.94.24,5.48l.24,5a.11.11,0,0,0,.12.12,1.74,1.74,0,0,0,.52,0h2.48c.34,0,.52.24.52.72a1.25,1.25,0,0,1-.12.56.4.4,0,0,1-.36.2l-.28,0h-.32C293.58,582.28,292.5,582.3,290.9,582.3Z" transform="translate(-0.6)"/><path class="cls-4" d="M241.66,503a.86.86,0,0,1-.72-.28,1.67,1.67,0,0,1-.16-.84v-3.64q0-2.73-.16-6.6c0-.48,0-1.18,0-2.08-.08-1.9-.12-3.39-.12-4.48l0-2.24c0-.67,0-1.42,0-2.24s0-1.36,0-1.92c0-.4-.05-.74-.08-1a3.67,3.67,0,0,0,0-.64l-.08.28q-.44,2.91-1.32,7.68t-1.44,7.64c-.37,1.7-.61,2.92-.72,3.64a1.61,1.61,0,0,1-.36.84.69.69,0,0,1-.56.32.71.71,0,0,1-.56-.32,1.76,1.76,0,0,1-.28-.92q-.27-1.92-2-10.72t-2-9.12q-.12,3.6-.12,8.08c0,2.34,0,4.46,0,6.36s0,4,0,6.36c0,.4,0,1,.12,1.88l.08,1.92a1.47,1.47,0,0,1-.28,1c-.77,0-1.16-.7-1.16-2.08v-6.68l0-4c0-1.2,0-2.56,0-4.08,0-1.76,0-3.34,0-4.72l.08-4.76V472.1a.5.5,0,0,1,.16-.36.64.64,0,0,1,.4-.16.43.43,0,0,1,.44.32q.36,1.2,1.8,7.08c1,3.92,1.68,6.94,2.16,9.08q.36,1.88,1.16,6.64l.28-1.56c.08-.48.2-1.15.36-2,.32-2.08.52-3.26.6-3.52l1.84-9.8.36-2.08.44-2.24.2-1.2a1,1,0,0,1,.24-.6.58.58,0,0,1,.44-.24.42.42,0,0,1,.36.2.85.85,0,0,1,.16.56v4c0,2,.12,5,.36,9.08q.28,5.6.28,9c0,.72,0,1.82.12,3.32.06,1.92.08,3.25.08,4a3.59,3.59,0,0,1-.12,1.16A.49.49,0,0,1,241.66,503Zm10.56-.16q-4.68,0-4.68-14.72v-1.4q0-11.16,2.88-11.16a1.88,1.88,0,0,1,.56.12,11.34,11.34,0,0,0,2.52.56c.51.1,1,.62,1.52,1.56a11.15,11.15,0,0,1,1.24,3.8,25.71,25.71,0,0,1,.44,4.84l-.08.2c0,.88,0,1.66,0,2.36l0,2.4c0,1.36-.05,2.58-.16,3.68a21.1,21.1,0,0,1-.8,4.28,7.56,7.56,0,0,1-.84,1.8,3.89,3.89,0,0,1-1.12,1.2A2.5,2.5,0,0,1,252.22,502.82Zm-.16-1.16c1,0,1.82-.74,2.32-2.2a17.68,17.68,0,0,0,.92-4.56c.11-1.6.16-2.88.16-3.84s-.08-2.64-.24-4.72c-.13-2.32-.2-3.9-.2-4.72l-.16-.32.08-.2a4.75,4.75,0,0,0-1-3,2.84,2.84,0,0,0-2.36-1.28,2,2,0,0,0-2.2,1.76c0,.4-.1,1-.16,1.72a22.17,22.17,0,0,1-.24,4c0,.4,0,1-.12,1.88l-.08,1.88c0,.58,0,1.1,0,1.56l0,1.6a34.36,34.36,0,0,0,.32,4.32,27.23,27.23,0,0,0,.56,3,7,7,0,0,0,.92,2.12A1.69,1.69,0,0,0,252.06,501.66Zm20,.56a.55.55,0,0,1-.48-.24,3.72,3.72,0,0,1-.24-.72,1.76,1.76,0,0,0-.16-.56l0-.12a25,25,0,0,0-1.36-4.6l-.72-2.08a21.75,21.75,0,0,1-.76-2l-.32-1q-3.6-11.13-4.52-12a10.21,10.21,0,0,0-.32,2.8c0,.61,0,1.14,0,1.6l0,1.56,0,1a9.46,9.46,0,0,0,0,1,13.3,13.3,0,0,0,.08,1.52c.05.85.08,1.28.08,1.28h-.12q0,6.68.28,7.36v3.6a1.82,1.82,0,0,1,.16.84.77.77,0,0,1-.24.56.64.64,0,0,1-.52.24q-.84,0-.84-2.16l.08-1.28a10.64,10.64,0,0,0,.08-1.32q0-1.92-.12-5.76t-.12-5.76c0-.78,0-2,.12-3.56s.12-2.75.12-3.52v-.52a3.32,3.32,0,0,1,.72-2.56l.12.12.4-.08a.71.71,0,0,1,.36.24.46.46,0,0,1,.16.36l.08.24v.16l0,0a49,49,0,0,0,2.88,8c1.52,3.6,2.47,6,2.84,7.16.27.93.48,1.76.64,2.48a20.05,20.05,0,0,0,1.8,5.24l.08-.12a217.83,217.83,0,0,0,.92-21.8l0-.48a2.55,2.55,0,0,1,0-.52c0-.56.19-.84.56-.84a.71.71,0,0,1,.6.36,1.24,1.24,0,0,1,.28.8v2.68l-.2.32q0,3.8-.44,12.48t-.84,9.44l-.68.16v0l0,0Zm12.92.12a6.43,6.43,0,0,1-2.72-.44,2.82,2.82,0,0,1-1.32-1.68,23.61,23.61,0,0,1-.72-4,57.08,57.08,0,0,1-.48-6.28c0-.91.05-1.95.16-3.12l.24-2.52c.13-2,.28-3.51.44-4.52a6.24,6.24,0,0,1,1.16-2.72,3.84,3.84,0,0,1,2.8-1.4,3.32,3.32,0,0,1,.64,0c.83,0,1.24.18,1.24.56a.56.56,0,0,1-.28.44,1,1,0,0,1-.52.16l-.4,0-.36,0a1.92,1.92,0,0,0-1.24.44,3.33,3.33,0,0,0-.88,1.28,14.86,14.86,0,0,0-1.08,3.92c-.21,1.68-.35,3.14-.4,4.4l0,3.08a25.87,25.87,0,0,0,.12,2.92,3,3,0,0,1,.36,1.36c.08.58.15,1.4.2,2.44a11.06,11.06,0,0,0,.36,2.4,3.39,3.39,0,0,0,1,1.6,3.31,3.31,0,0,0,2.2.68,1.7,1.7,0,0,0,1.64-1.28,8.57,8.57,0,0,0,.64-2.8c.08-1.2.12-2.22.12-3v-2.2a1.94,1.94,0,0,0-1.4-.4h-.32a2.87,2.87,0,0,1-.44,0q-1,0-1-.48c0-.46.32-.68,1-.68.45,0,.83,0,1.12,0l.88,0a6.3,6.3,0,0,1,1.2.28c.32.1.48.25.48.44a6.66,6.66,0,0,1-.24,1.48,11,11,0,0,0-.2,1.52c0,1.12,0,2.13.08,3s0,2,0,3.08A5.86,5.86,0,0,1,285,502.34Zm13,.48q-4.68,0-4.68-14.72v-1.4q0-11.16,2.88-11.16a1.88,1.88,0,0,1,.56.12,11.34,11.34,0,0,0,2.52.56c.51.1,1,.62,1.52,1.56a11.15,11.15,0,0,1,1.24,3.8,25.71,25.71,0,0,1,.44,4.84l-.08.2c0,.88,0,1.66,0,2.36l0,2.4c0,1.36-.05,2.58-.16,3.68a21.1,21.1,0,0,1-.8,4.28,7.56,7.56,0,0,1-.84,1.8,3.89,3.89,0,0,1-1.12,1.2A2.5,2.5,0,0,1,298,502.82Zm-.16-1.16c1,0,1.82-.74,2.32-2.2a17.68,17.68,0,0,0,.92-4.56c.11-1.6.16-2.88.16-3.84s-.08-2.64-.24-4.72c-.13-2.32-.2-3.9-.2-4.72l-.16-.32.08-.2a4.75,4.75,0,0,0-1-3,2.84,2.84,0,0,0-2.36-1.28,2,2,0,0,0-2.2,1.76c-.05.4-.1,1-.16,1.72a22.17,22.17,0,0,1-.24,4c0,.4,0,1-.12,1.88l-.08,1.88c0,.58,0,1.1,0,1.56l0,1.6a34.36,34.36,0,0,0,.32,4.32,27.23,27.23,0,0,0,.56,3,7,7,0,0,0,.92,2.12A1.69,1.69,0,0,0,297.84,501.66Zm11.59.48a2.13,2.13,0,0,1-1-.24c-.32-.16-.48-.35-.48-.56a2,2,0,0,1,.32-.8,1.31,1.31,0,0,0,.28-.8l-.12-3.52-.28-10.92-.08-4.84a55.4,55.4,0,0,0-.2-5.56,4.4,4.4,0,0,0-.32-1,4,4,0,0,1-.28-1.08c0-.64,1-1,3-1h.2a4.91,4.91,0,0,1,3.52,1.4,9.15,9.15,0,0,1,2.08,3.4,21.14,21.14,0,0,1,1,4.12c.11.8.2,2,.28,3.68v1.24a23.59,23.59,0,0,1-.68,5.4,24.9,24.9,0,0,1-1.84,5.4,11,11,0,0,1-1.88,2.88,13.37,13.37,0,0,1-2.16,2A3.46,3.46,0,0,1,309.43,502.14Zm.6-2a8.18,8.18,0,0,0,2.64-2.2,12.38,12.38,0,0,0,1.84-3.24,19.66,19.66,0,0,0,1-3.36,31.24,31.24,0,0,0,.56-3.56q.12-1.44.12-2.76,0-11.69-6.44-11.68c-.56,0-.84.14-.84.44,0,.93.06,2,.16,3.32s.16,2.41.16,3.32q0,2.19.32,7.64c.19,3.14.28,5.68.28,7.6v4.48Zm14.48,2.2c-1,0-1.48-.19-1.48-.56,0-1.12,0-2.82.12-5.08l.08-5q0-2.81-.12-8.36c-.11-3.28-.16-6.06-.16-8.32,0-1.92.34-2.88,1-2.88a5.07,5.07,0,0,1,4.12,1.72,6.76,6.76,0,0,1,1.48,4.56A11.29,11.29,0,0,1,327,485a13.74,13.74,0,0,1,3,4,11.07,11.07,0,0,1,.88,4.6,23.21,23.21,0,0,1-.12,2.64,8.44,8.44,0,0,1-.36,1.8,4.89,4.89,0,0,1-.8,1.52,5.57,5.57,0,0,1-1.32,1.2,13.39,13.39,0,0,1-2.08,1.12l-.8.2a2.6,2.6,0,0,1-.8.2Zm0-17.52a2.48,2.48,0,0,0,1.68-.76,6,6,0,0,0,1.32-2,13.8,13.8,0,0,0,.8-2.4,11.48,11.48,0,0,0,.28-2.32,4,4,0,0,0-1-2.64,2.9,2.9,0,0,0-2.28-1.24c-.7,0-1,.57-1,1.72,0,1.78,0,3.38.08,4.8l.08,4.8Zm.32,16a4.22,4.22,0,0,0,2.48-.8,5.72,5.72,0,0,0,1.8-2.2,6.49,6.49,0,0,0,.68-2.92q0-7.17-3.44-8.6a4.08,4.08,0,0,0-1,.2,3.57,3.57,0,0,1-.92.24q.19,6.51.2,14h.12Z" transform="translate(-0.6)"/><path class="cls-2" d="M62.74,501.5a.72.72,0,0,1-.52-.28,1.55,1.55,0,0,1-.32-.64l-.12-.76a3.61,3.61,0,0,1-.12-.6q-4.47-16.05-4.92-18c-.24-1-.78-3.63-1.64-8,0,.16,0,.7,0,1.64v14.48l.08,5.72.08,5.68-.24.32h-.92l-.12-.32a9.32,9.32,0,0,0,.08-1.6l0-7-.08-7v-9c0-1.12,0-2.38,0-3.76a2,2,0,0,0,0-.44v-.4a.71.71,0,0,1,.24-.64,1.41,1.41,0,0,1,.84-.2.82.82,0,0,1,.52.24,1,1,0,0,1,.4.52l.84,3.92c.38,1.86.7,3.28,1,4.24q.84,3.31,2.88,10.88c.78,3.3,1.47,5.84,2.08,7.6a5.58,5.58,0,0,0,.24-1.92q0-3.89.08-7l.08-7c0-1.15,0-2.19,0-3.12V476.1l0-5.64a.81.81,0,0,1,.84-.56c.22,0,.32.38.32,1.16a6.54,6.54,0,0,1,0,.84,2,2,0,0,1,0,.48v2.72q0,5.31,0,9.48c0,2.8,0,5.94,0,9.44,0,.66,0,1.72-.12,3.16l-.08,3.16C63.78,501.11,63.44,501.5,62.74,501.5Zm8,.08c-.48,0-.75-.28-.8-.84v-.52a3.32,3.32,0,0,0,0-.48l-.16-.16a4.68,4.68,0,0,0,.32-1.64q0-.93-.12-2.64l-.08-2.64q0-2,.12-6c.1-2.38.16-4.39.16-6l-.08-2.4c-.06-.72-.08-1.52-.08-2.4a1,1,0,0,1,.28-.84,1.18,1.18,0,0,1,.88-.28.88.88,0,0,1,.64.24,11.61,11.61,0,0,0,1.16.16,8.92,8.92,0,0,1,1.72.36c.5.16.76.36.76.6s-.26.53-.76.8a12,12,0,0,0-3.24-.76l-.2.24c0,.24,0,.81,0,1.72,0,1.14,0,2.17-.08,3.08s0,2,0,3.12c0,.74.18,1.12.56,1.12l.64,0a4.88,4.88,0,0,1,.68,0q1.56,0,1.56.72a1.46,1.46,0,0,1-.2.76.72.72,0,0,1-.6.28,1.25,1.25,0,0,1-.92-.32l-1.28-.2h-.2l-.2.2v.12c0,.45.08,1.5.08,3.16,0,1,0,2,0,2.84l0,2.84c0,1,0,2.1.12,3.2a1.73,1.73,0,0,0,.4,1.24,2.3,2.3,0,0,0,1.32.28l.72,0a6.48,6.48,0,0,1,.8,0c.77,0,1.16.17,1.16.52s-.59.72-1.76.72Zm9.51-.4c-.5,0-.76-.16-.76-.48a27.78,27.78,0,0,1,1.12-6.24,26.94,26.94,0,0,0,1.12-6.28,43.45,43.45,0,0,0-1.08-6.08,27.68,27.68,0,0,0-1.44-5.4v-.16a.12.12,0,0,0,0-.08v0a1,1,0,0,0-.2-.56l-.16-.48c0-.11.08-.2.24-.28a1.29,1.29,0,0,1,.48-.12c.22,0,.39.16.52.48a3.25,3.25,0,0,1,.32,1l0,.92a27.34,27.34,0,0,1,1,4q.52,2.64.84,3.72a15.47,15.47,0,0,0,.6-3.12c.27-1.76.44-3.08.52-4,.16-2.16.34-3.27.52-3.32l.32-.08.32,0,.36.48a6.73,6.73,0,0,0-.64,3.52v.24l0,.24,0,0c-.1,1-.37,2.42-.8,4.4a27,27,0,0,0-.68,5,52.46,52.46,0,0,0,1,5.32c.7,3.12,1.15,4.94,1.36,5.48a1.94,1.94,0,0,0,.2.32,1.82,1.82,0,0,1,.28.84.48.48,0,0,1-.2.4.56.56,0,0,1-.4.16,1.17,1.17,0,0,1-.52-.12l-.72-3c-.64-2.4-1.14-4.63-1.52-6.68a12.88,12.88,0,0,0-.88,4.16,23.88,23.88,0,0,1-.72,4.4,1,1,0,0,1,.08.48,1.58,1.58,0,0,1-.16.72A.44.44,0,0,1,80.21,501.18Zm12.56-.68,0-1.48c0-.43,0-.91,0-1.44a6.07,6.07,0,0,1,0-.68l0-.72a3.42,3.42,0,0,0-.16-1q0-2.69-.4-10c-.26-4.7-.41-7.88-.44-9.56a29,29,0,0,1-3.32-.12c-.53-.14-.8-.35-.8-.64a.76.76,0,0,1,.76-.44c.8,0,2,.05,3.48.16s2.55.2,3.48.2h.84l.84,0c.48,0,.72.17.72.52a.46.46,0,0,1-.28.4,1.34,1.34,0,0,1-.6.12c-.53,0-1.09,0-1.68-.08l-1.72-.08c-.1,0-.16,0-.16.12a4.45,4.45,0,0,0,0,.76q0,3.87.48,11.76.45,8.16.44,11.72a.67.67,0,0,1-.36.52,1,1,0,0,1-.64.24Zm9.2.72a.9.9,0,0,1-.64-.28,1.13,1.13,0,0,1-.24-.68,1,1,0,0,1,.32-.72.94.94,0,0,1,.72-.36.9.9,0,0,1,.64.36,1,1,0,0,1,.32.68C103.09,500.88,102.71,501.22,102,501.22Zm3.38,3.84V505l0-.08c0-.08.22-.27.68-.56a15,15,0,0,1,1.44-1,7.87,7.87,0,0,0,.92-.68,4.88,4.88,0,0,0,.92-2.12,12.21,12.21,0,0,0,.36-2.88c0-2.86-.06-6.4-.16-10.64-.14-3.95-.2-7.48-.2-10.6L109,476a9.21,9.21,0,0,0-1-.2,3.83,3.83,0,0,1-1.36-.32c-.4-.14-.6-.31-.6-.52s.1-.22.32-.32a1.16,1.16,0,0,1,.52-.16,15.75,15.75,0,0,1,2.4.28,21,21,0,0,1,3,.68q1.32.39,1.32.72a.51.51,0,0,1-.2.4.74.74,0,0,1-.44.12,5.75,5.75,0,0,1-1.08-.2,3.27,3.27,0,0,0-1.08-.2c-.24,0-.36.26-.36.8,0,1.46.06,4.24.2,8.32q.19,4.59.2,8.28v4.4a4.25,4.25,0,0,0-.24,1.68,9.4,9.4,0,0,1-1,3.8,4.71,4.71,0,0,1-1.36,1.72,2.69,2.69,0,0,1-1.76.68h-.28ZM118,501.54a2.23,2.23,0,0,1-.84-.36.78.78,0,0,1-.44-.6l.2-.32a4.93,4.93,0,0,1,.72.12,2.37,2.37,0,0,0,.72.16,2.18,2.18,0,0,0,1.56-.68,4.84,4.84,0,0,0,1-1.84,15.31,15.31,0,0,0,.56-3.92,12.67,12.67,0,0,0-1.68-5.92c-.7-1.23-1.23-2.2-1.6-2.92a14.71,14.71,0,0,1-1-2.48,10.39,10.39,0,0,1-.52-3.16,10.08,10.08,0,0,1,.72-3.4,3.63,3.63,0,0,1,1-1.48,2.14,2.14,0,0,1,1.44-.6,1.66,1.66,0,0,1,1,.36,1,1,0,0,1,.52.76c0,.21-.18.32-.52.32a.93.93,0,0,1-.4-.12,1,1,0,0,0-.44-.12,1.49,1.49,0,0,0-1.08.48,3,3,0,0,0-.72,1.24,8.82,8.82,0,0,0-.48,2.72,6.18,6.18,0,0,0,.2,1.56,2.81,2.81,0,0,0,.08.4,1.48,1.48,0,0,1,0,.24l.24.8.2.72.32.72c.08.18.16.36.24.52a3.6,3.6,0,0,1,.28.4l.48.84c.1.16.33.54.68,1.16a19.41,19.41,0,0,1,1,1.88,10.27,10.27,0,0,1,.6,1.6,16.77,16.77,0,0,1,.36,1.76,18.47,18.47,0,0,1,.12,2.2,12.33,12.33,0,0,1-.52,3.6,5.14,5.14,0,0,1-2.08,2.8,3.25,3.25,0,0,1-1.76.48Zm3.2-26.08a0,0,0,0,0,0,0v0Z" transform="translate(-0.6)"/><path class="cls-2" d="M60.18,582.7q-3,0-4.44-4.32T54.3,564.94c0-1.31,0-2.47.08-3.48a23,23,0,0,1,.56-4,14.58,14.58,0,0,1,.48-1.88,13.15,13.15,0,0,1,.84-1.68,5,5,0,0,1,2.56-2.24,5.2,5.2,0,0,1,1.84-.32c.8,0,1.2.22,1.2.68s-.2.48-.6.48a2.43,2.43,0,0,1-.56-.12l-.56-.08a3,3,0,0,0-2.28,1.08,8.61,8.61,0,0,0-1.32,2.76,19.84,19.84,0,0,0-.6,3.56c-.08.72-.16,1.89-.24,3.52l0,2.64v2.2a41.66,41.66,0,0,0,.56,7.08,21,21,0,0,0,.92,3.32,6.23,6.23,0,0,0,1.48,2.16,3.17,3.17,0,0,0,2.16.92,3.88,3.88,0,0,0,3.4-2c0-.72-.05-1.67-.16-2.84a12.23,12.23,0,0,0-.32-1.64c-.16-.46-.34-.68-.56-.68l-.76.08-.84.08c-.61,0-.92-.23-.92-.68,0-.22.38-.42,1.12-.6a7.91,7.91,0,0,1,1.88-.28,1,1,0,0,1,.92.48,1.94,1.94,0,0,1,.32,1.2,32.42,32.42,0,0,0,.4,3.56,21,21,0,0,1,.4,3.56c0,.42-.17.64-.52.64-.64,0-1-.3-1-.88l0-.12v-.08A8.29,8.29,0,0,1,60.18,582.7ZM78,582.42a1.23,1.23,0,0,1-.76-.16,1.3,1.3,0,0,1-.24-.72c-.24-1.95-.38-3.16-.44-3.64l-.2-1.6a8.62,8.62,0,0,0-2-.2L72.89,576a12.56,12.56,0,0,0-1.4-.12c-.16,0-.25.06-.28.2s0,.12,0,.12l-.08.8a25.93,25.93,0,0,1-.44,2.88,6.91,6.91,0,0,1-.48,1.68c-.21.45-.41.68-.6.68a1,1,0,0,1-.52-.2.68.68,0,0,1-.28-.48l0-.12,0-.12q.72-2.85,1.2-5.64l.48-2.48.48-3s.15-.88.44-2.64q.21-1.08.72-3.48c.38-1.82.6-3.06.68-3.72,0-.08.08-.58.16-1.48s.2-1.76.28-2.24a3.72,3.72,0,0,1,.24-1.2h.28a1.18,1.18,0,0,0,.28,0,1,1,0,0,0,.72-.24.62.62,0,0,1,.48.2.46.46,0,0,1,.24.4,41.51,41.51,0,0,0,.28,4.4c.11.85.19,1.56.24,2.12q.45,5.16,2.24,19.36v.12A.66.66,0,0,1,78,582.42Zm-1.84-7.2q-.39-5.76-1.52-17L72.45,568.9a42.24,42.24,0,0,0-.92,5.8c0,.13.51.25,1.52.36s1.91.16,2.68.16Zm9.14,6.28,0-1.48c0-.43,0-.91,0-1.44a6.07,6.07,0,0,1,0-.68l0-.72a3.42,3.42,0,0,0-.16-1q0-2.69-.4-10c-.26-4.7-.41-7.88-.44-9.56a29,29,0,0,1-3.32-.12c-.53-.14-.8-.35-.8-.64a.76.76,0,0,1,.76-.44c.8,0,2,0,3.48.16s2.55.2,3.48.2h.84l.84,0c.48,0,.72.17.72.52a.46.46,0,0,1-.28.4,1.34,1.34,0,0,1-.6.12c-.53,0-1.09,0-1.68-.08L86,556.7c-.1,0-.16,0-.16.12a4.45,4.45,0,0,0,0,.76q0,3.87.48,11.76.45,8.16.44,11.72a.67.67,0,0,1-.36.52,1,1,0,0,1-.64.24Zm9.68,1a2.23,2.23,0,0,1-.84-.36.78.78,0,0,1-.44-.6l.2-.32a4.93,4.93,0,0,1,.72.12,2.37,2.37,0,0,0,.72.16,2.18,2.18,0,0,0,1.56-.68,4.84,4.84,0,0,0,1-1.84,15.31,15.31,0,0,0,.56-3.92,12.67,12.67,0,0,0-1.68-5.92c-.7-1.23-1.23-2.2-1.6-2.92a14.71,14.71,0,0,1-1-2.48,10.39,10.39,0,0,1-.52-3.16,10.08,10.08,0,0,1,.72-3.4,3.63,3.63,0,0,1,1-1.48,2.14,2.14,0,0,1,1.44-.6,1.66,1.66,0,0,1,1,.36,1,1,0,0,1,.52.76c0,.21-.18.32-.52.32a.93.93,0,0,1-.4-.12,1,1,0,0,0-.44-.12,1.49,1.49,0,0,0-1.08.48,3,3,0,0,0-.72,1.24,8.82,8.82,0,0,0-.48,2.72,6.18,6.18,0,0,0,.2,1.56,2.81,2.81,0,0,0,.08.4,1.48,1.48,0,0,1,0,.24l.24.8.2.72.32.72c.08.18.16.36.24.52a3.6,3.6,0,0,1,.28.4l.48.84c.1.16.33.54.68,1.16a19.41,19.41,0,0,1,1,1.88,10.27,10.27,0,0,1,.6,1.6,16.77,16.77,0,0,1,.36,1.76,18.47,18.47,0,0,1,.12,2.2,12.33,12.33,0,0,1-.52,3.6,5.14,5.14,0,0,1-2.08,2.8,3.25,3.25,0,0,1-1.76.48Zm3.2-26.08a0,0,0,0,0,0,0v0Zm6.84,26a.77.77,0,0,1-.56-.24.92.92,0,0,1-.2-.6l0-1.24c0-1,.08-2.38.24-4.24.13-2.08.2-3.48.2-4.2l0-1.8c0-.54,0-1.12,0-1.76,0-1.07,0-2.66.12-4.76s.12-3.76.12-4.8l0-2.32-.16-.2v-.24c0-.7.28-1,.84-1a7,7,0,0,1,2.08.52c1,.32,1.48.58,1.48.8v.12a7.06,7.06,0,0,1,1,2.32,12.74,12.74,0,0,1,.28,3,14.71,14.71,0,0,1-.64,4.76h0c-.11.21-.32.56-.64,1l-.56.84a4.14,4.14,0,0,1,1.2,1.64,6.52,6.52,0,0,1,.64,2.08c0,.24,0,.53.08.88s.05.76.08,1.24l0,1v.56q0,3.84-2.4,5.68A4.88,4.88,0,0,1,105,582.5Zm1.24-14.88c1.76,0,2.64-1.78,2.64-5.32,0-.3,0-.87-.08-1.72l0-.76-.08-.08a9.48,9.48,0,0,0-.44-2.08,1.76,1.76,0,0,0-.64-.88,1.47,1.47,0,0,0-1-.36c-.59,0-.88,1.74-.88,5.24,0,.66,0,1.12,0,1.36v2.16c0,.42,0,.9,0,1.44v.48l.08.24.08.28Zm-.6,13.32a2.78,2.78,0,0,0,1.76-.64,4.52,4.52,0,0,0,1.32-1.64,4.89,4.89,0,0,0,.48-2l0-.16v-.76a17.32,17.32,0,0,0-.28-3.2,5,5,0,0,0-1.56-3,2.32,2.32,0,0,0-1.52-.52c-.13,2.21-.2,4-.2,5.44v.92a11.18,11.18,0,0,0,.12,1.84,5.36,5.36,0,0,0-.2,1.92v1Zm12.69,1.72a.63.63,0,0,1-.32-.16.79.79,0,0,1-.24-.28c.24-.64.36-3,.36-7,0-.78,0-1.88-.12-3.32l-.2-2.84-.24-.52.12-.48c-.16-.38-.4-1-.72-1.88s-.64-1.78-1-2.68c-1-2.54-1.59-4.36-1.88-5.48a13.67,13.67,0,0,1-.36-1.48l.56-.44c.27,0,.65.9,1.16,2.56q.6,1.76,1.08,3.48l.48,1.52c.48,1.65.83,2.5,1,2.56l.16-.72-.08-.2a9.94,9.94,0,0,0,.8-2.84c.35-1.87.68-3.44,1-4.72.35-1.5.69-2.24,1-2.24a.6.6,0,0,1,.36.12.33.33,0,0,1,.16.28,34.48,34.48,0,0,1-1.2,4.72c-.4,1.3-.73,2.53-1,3.68a16.07,16.07,0,0,0-.48,3.64,1.6,1.6,0,0,1,.2.68,1.94,1.94,0,0,1-.12.56,2,2,0,0,0-.12.6c0,.13,0,.73.16,1.8a12.36,12.36,0,0,1,.16,1.84c0,1.17,0,2.22,0,3.16v3.36C119.16,581.75,118.88,582.66,118.32,582.66Z" transform="translate(-0.6)"/><path class="cls-2" d="M155.5,709.27a.54.54,0,0,1-.42-.21,1,1,0,0,1-.14-.53v-1.4c0-1.47-.06-3.13-.17-5s-.14-3.62-.14-5-.06-3.7-.18-7.31q-.21-4.9-.21-7.32a.34.34,0,0,1,.14-.28.64.64,0,0,1,.39-.14c.42,0,.63.18.63.53q0,6.47.1,9.69l.18,6.27c0,1,.07,2.57.21,4.79l.21,4.34c0,.07,0,.11.1.11a1.65,1.65,0,0,0,.46,0h2.17q.45,0,.45.63a1.07,1.07,0,0,1-.1.49.35.35,0,0,1-.32.18l-.24,0h-.28C157.85,709.25,156.9,709.27,155.5,709.27Zm9.42-.21c-.54,0-.85-.12-.95-.35a1.09,1.09,0,0,0-.28,0h-.28c-.51,0-.84-.12-1-.35a.52.52,0,0,1,.28-.42l.18-.17h1l.14-.14.07-.32,0-.42c0-1.42,0-2.69-.11-3.81l-.07-1.3-.07-2.55c0-.91,0-2.28.11-4.1l.07-4.06a34.25,34.25,0,0,0-.18-4.06,3.73,3.73,0,0,0-1.05-.1l-.38,0a3.15,3.15,0,0,1-.46,0q-.66,0-.66-.6c0-.09.1-.19.31-.28a1.44,1.44,0,0,1,.53-.14,26.33,26.33,0,0,1,2.66.14,5.42,5.42,0,0,1,1.61.32c.42.14.63.33.63.59a.87.87,0,0,1-.11.28l-.8.07a1.67,1.67,0,0,0-1-.21l-.17.11a9,9,0,0,1,.1,1.85q0,2.31,0,4.17l-.07,4.16c0,1,0,2.32.14,3.82.07,1.7.1,3,.1,3.85v.45a5.29,5.29,0,0,0,0,.63,2.62,2.62,0,0,0,.1,1l0,.07c0,.23.26.35.77.35a3.74,3.74,0,0,0,.52,0h.53c.68,0,1,.16,1,.49a.7.7,0,0,1-.21.52.82.82,0,0,1-.56.18,2.38,2.38,0,0,1-.56-.07,3.65,3.65,0,0,0-.59,0,1.81,1.81,0,0,0-.63.18A1.61,1.61,0,0,1,164.92,709.06Zm15.34.14a.46.46,0,0,1-.42-.21,3.25,3.25,0,0,1-.21-.63,1.41,1.41,0,0,0-.14-.49l0-.11a22.61,22.61,0,0,0-1.19-4l-.63-1.82a17.92,17.92,0,0,1-.67-1.79l-.28-.84q-3.15-9.74-3.95-10.53a8.68,8.68,0,0,0-.28,2.45c0,.53,0,1,0,1.4l0,1.36,0,.84q0,.39,0,.84a10.27,10.27,0,0,0,.07,1.33c0,.75.07,1.12.07,1.12h-.11a37.9,37.9,0,0,0,.25,6.44v3.15a1.71,1.71,0,0,1,.14.74.68.68,0,0,1-.21.49.57.57,0,0,1-.46.21c-.49,0-.73-.63-.73-1.89l.07-1.12a10.19,10.19,0,0,0,.07-1.16c0-1.12,0-2.8-.11-5s-.1-3.92-.1-5c0-.68,0-1.71.1-3.11s.11-2.41.11-3.08v-.46a2.92,2.92,0,0,1,.63-2.24l.1.11.35-.07a.72.72,0,0,1,.32.21.43.43,0,0,1,.14.31l.07.21v.14l0,0a41.7,41.7,0,0,0,2.52,7q2,4.73,2.49,6.27c.23.81.42,1.54.56,2.17a17,17,0,0,0,1.57,4.58l.07-.1a188.59,188.59,0,0,0,.81-19.08l0-.42a2.81,2.81,0,0,1,0-.45c0-.49.16-.74.49-.74a.62.62,0,0,1,.52.32,1.13,1.13,0,0,1,.25.7v2.34l-.18.28q0,3.33-.38,10.92c-.26,5.06-.51,7.82-.74,8.26l-.59.14v0l0,0Zm10.85.38a2.59,2.59,0,0,1-1.23-.38,4,4,0,0,1-1-.84,8.94,8.94,0,0,1-.77-3.54c-.18-1.94-.3-4.15-.35-6.65q0-.84,0-1.26-.08-8.79-.28-10.39l.21-.49c.54.07.8.71.8,1.92l.11,9.28c0,.65.06,1.89.17,3.71.14,1.63.21,2.87.21,3.71q0,4,2.63,4,1.6,0,2.06-7.35l0-.7q.24-9.63.24-14.25l0-.31a1.55,1.55,0,0,1,0-.32c0-.26.2-.38.6-.38s.45.07.52.21a6.81,6.81,0,0,1,.07,1.22,19.36,19.36,0,0,1-.21,3.57l0,.21c0,.3,0,.77-.11,1.4l-.07,1.4v.35a1.16,1.16,0,0,1,0,.35c-.05.56-.07,1.1-.07,1.61a6.43,6.43,0,0,0,0,.77c0,2.22-.09,4.14-.14,5.78a17.51,17.51,0,0,1-.84,5.14C193.08,708.83,192.25,709.58,191.11,709.58Zm9.18-.42c-.45,0-.67-.14-.67-.42a24.2,24.2,0,0,1,1-5.46,23.86,23.86,0,0,0,1-5.49,37.63,37.63,0,0,0-.94-5.32,24.41,24.41,0,0,0-1.26-4.73v-.14a.11.11,0,0,0,0-.07v0a1,1,0,0,0-.17-.49c-.1-.28-.14-.42-.14-.42s.07-.18.21-.25a1.06,1.06,0,0,1,.42-.1q.27,0,.45.42a3.05,3.05,0,0,1,.28.87l0,.81a26.61,26.61,0,0,1,.87,3.5c.3,1.54.55,2.62.74,3.25a13.7,13.7,0,0,0,.52-2.73c.23-1.54.39-2.69.46-3.46q.21-2.83.45-2.91l.28-.07.28,0,.32.42a5.76,5.76,0,0,0-.56,3.08v.21l0,.21,0,0c-.1.84-.33,2.12-.7,3.85a23.19,23.19,0,0,0-.6,4.34,43.79,43.79,0,0,0,.91,4.66c.61,2.73,1,4.32,1.19,4.79a1.22,1.22,0,0,0,.18.28,1.69,1.69,0,0,1,.24.74.46.46,0,0,1-.17.35.5.5,0,0,1-.35.14,1,1,0,0,1-.46-.11l-.63-2.66q-.84-3.15-1.33-5.84a11.11,11.11,0,0,0-.77,3.64,21.44,21.44,0,0,1-.63,3.85.91.91,0,0,1,.07.42,1.46,1.46,0,0,1-.14.63A.38.38,0,0,1,200.29,709.16Z" transform="translate(-0.6)"/><path class="cls-4" d="M132.06,147.94c-.56,0-.84-.26-.84-.76q0-.41,1-1l.48-.36c1.18-1.15,1.76-3.19,1.76-6.12,0-1.82-.06-3.79-.2-5.92-.13-2.86-.2-4.66-.2-5.4l-.24-6.2c-.13-3.52-.2-5.94-.2-7.24-.42,0-.82,0-1.2,0l-1.2,0a.58.58,0,0,1-.4-.16.86.86,0,0,1-.12-.44c0-.32.11-.52.32-.6a4.26,4.26,0,0,1,1.52-.16l1.52,0h2.12a.5.5,0,0,1,.44.2.58.58,0,0,1,.2.44.48.48,0,0,1-.24.48,1.87,1.87,0,0,1-.84.12h-.88q0,5.4.44,13.48c.06.72.11,1.94.16,3.68q.29,5,.28,6c0,1.12,0,2-.08,2.64a13.7,13.7,0,0,1-.24,2.08,7,7,0,0,1-.6,2,6.42,6.42,0,0,1-1,1.64A6.66,6.66,0,0,1,132.06,147.94Zm17.86-3.52a1.23,1.23,0,0,1-.76-.16q-.16-.12-.24-.72c-.24-1.95-.39-3.16-.44-3.64l-.2-1.6a8.68,8.68,0,0,0-2-.2l-1.44-.08a12.75,12.75,0,0,0-1.4-.12c-.16,0-.25.06-.28.2s0,.12,0,.12l-.08.8a28.71,28.71,0,0,1-.44,2.88,6.91,6.91,0,0,1-.48,1.68c-.21.45-.41.68-.6.68a1,1,0,0,1-.52-.2.65.65,0,0,1-.28-.48l0-.12,0-.12q.72-2.85,1.2-5.64l.48-2.48.48-3s.15-.88.44-2.64q.19-1.08.72-3.48c.37-1.82.6-3.06.68-3.72,0-.08.08-.58.16-1.48s.2-1.76.28-2.24a3.72,3.72,0,0,1,.24-1.2h.28a1.11,1.11,0,0,0,.28,0,1,1,0,0,0,.72-.24.62.62,0,0,1,.48.2.46.46,0,0,1,.24.4,39,39,0,0,0,.28,4.4c.11.85.19,1.56.24,2.12q.44,5.16,2.24,19.36v.12A.68.68,0,0,1,149.92,144.42Zm-1.84-7.2q-.41-5.76-1.52-17L144.4,130.9a42.24,42.24,0,0,0-.92,5.8c0,.13.51.25,1.52.36s1.91.16,2.68.16Zm9.62,7a59.75,59.75,0,0,0-1-9.08q-1-6-2.56-13.12l-.32-1.24-.52-1.84a5.77,5.77,0,0,1-.24-1,.41.41,0,0,1,.16-.28.51.51,0,0,1,.36-.2c.37,0,.67.41.88,1.24a8.93,8.93,0,0,1,.28,1.2l.24.92a4.83,4.83,0,0,0,.12.72c.51,2.05.81,3.36.92,3.92l.4,2,.36,1.92.36,2a15.2,15.2,0,0,0,.32,1.88l.6,3.92c0,.1.09.78.28,2l.28,2a45.41,45.41,0,0,0,1.36-7.92c.37-3.31.91-6.63,1.6-10,.59-2.88,1-5,1.24-6.28l.52-.2a.53.53,0,0,1,.28.16.31.31,0,0,1,.16.24,11.2,11.2,0,0,1-.36,2.4l-.24,1-.68,3.16c-.4,1.73-.68,3.06-.84,4s-.29,2.28-.48,4l-.08.92c-.13,1.44-.24,2.41-.32,2.92a11.09,11.09,0,0,1-.44,2c-.21.8-.39,1.5-.52,2.12l-.08.92a15.3,15.3,0,0,1-.32,2.48c-.21.9-.64,1.36-1.28,1.36Zm.88-2.88,0,.08,0,.08Zm18.14,3.12a1.21,1.21,0,0,1-.76-.16q-.17-.12-.24-.72c-.24-1.95-.39-3.16-.44-3.64l-.2-1.6a8.74,8.74,0,0,0-2-.2l-1.44-.08a12.75,12.75,0,0,0-1.4-.12c-.16,0-.26.06-.28.2s0,.12,0,.12l-.08.8c0,.48-.18,1.44-.44,2.88a8,8,0,0,1-.48,1.68c-.22.45-.42.68-.6.68a.92.92,0,0,1-.52-.2.65.65,0,0,1-.28-.48l0-.12,0-.12q.72-2.85,1.2-5.64l.48-2.48.48-3s.14-.88.44-2.64q.2-1.08.72-3.48c.37-1.82.6-3.06.68-3.72,0-.08.08-.58.16-1.48s.2-1.76.28-2.24a3.72,3.72,0,0,1,.24-1.2h.28a1.11,1.11,0,0,0,.28,0,1,1,0,0,0,.72-.24.65.65,0,0,1,.48.2.46.46,0,0,1,.24.4,39,39,0,0,0,.28,4.4c.1.85.18,1.56.24,2.12q.44,5.16,2.24,19.36v.12A.68.68,0,0,1,176.72,144.42Zm-1.84-7.2q-.4-5.76-1.52-17L171.2,130.9a40.63,40.63,0,0,0-.92,5.8c0,.13.5.25,1.52.36s1.9.16,2.68.16Zm8.22,7.72a6.29,6.29,0,0,1-1.12-.08,2.86,2.86,0,0,1-.8-.24,1.64,1.64,0,0,1-.72-.68c0-.32.14-.48.44-.48a3.07,3.07,0,0,1,1.12.28,2.53,2.53,0,0,0,1.08.32,2.23,2.23,0,0,0,1.6-.72,4.73,4.73,0,0,0,1.16-1.88,12.51,12.51,0,0,0,.8-4,14.73,14.73,0,0,0-.56-4,19.75,19.75,0,0,0-1.48-3.76c-.14-.3-.36-.74-.68-1.32-.67-1.34-1.18-2.38-1.52-3.12a17.09,17.09,0,0,1-.92-2.48,12.82,12.82,0,0,1-.56-3.88,7.82,7.82,0,0,1,.4-2.52,5.2,5.2,0,0,1,1.36-2.12,3.18,3.18,0,0,1,2.24-.92,2.39,2.39,0,0,1,1.16.4c.45.24.68.48.68.72s-.08.32-.24.32a1.57,1.57,0,0,1-.64-.2,1.35,1.35,0,0,0-.68-.2,2.28,2.28,0,0,0-1.64.68,4,4,0,0,0-1,1.68,5.68,5.68,0,0,0-.28,1.84,13.8,13.8,0,0,0,.4,3.24,15.36,15.36,0,0,0,1.08,3.08l1.4,2.92.4.84c.56,1.14,1,2.09,1.28,2.84a15,15,0,0,1,.8,2.52,15.94,15.94,0,0,1,.44,3.6,10.52,10.52,0,0,1-1.2,4.72,5.33,5.33,0,0,1-1.6,1.88A3.69,3.69,0,0,1,183.1,144.94Zm13.34-.6a4.34,4.34,0,0,1-1.32-.68,4.93,4.93,0,0,1-1-1.32,11.52,11.52,0,0,1-1-4.6c-.05-.91-.08-1.71-.08-2.4v-4.56c0-1.74.06-3.42.16-5a25,25,0,0,1,.36-3,12.84,12.84,0,0,1,.76-2.48,4.5,4.5,0,0,1,1.24-1.8,4.25,4.25,0,0,1,1.08-.56c.35-.14.68-.28,1-.44h1.72a.21.21,0,0,0,.12,0l.2,0,.16.12c.08.08.12.13.12.16a.49.49,0,0,1,0,.24l-.52.6H197.8a1.84,1.84,0,0,0-1.4.76,5,5,0,0,0-.92,1.84,15.88,15.88,0,0,0-.52,2.36c-.13.9-.21,1.69-.24,2.36-.05.85-.08,1.44-.08,1.76l-.08.2c0,1.49,0,2.84-.08,4l-.08,4a20.36,20.36,0,0,0,.24,3.24,6.07,6.07,0,0,0,1.16,2.88,3.28,3.28,0,0,0,2.84,1.28,1.43,1.43,0,0,0,1-.36c.4,0,.6.14.6.44s-.17.4-.52.64a3.85,3.85,0,0,1-1,.6H197.4Zm14.57.2a7.62,7.62,0,0,1-1-2.76q-.56-2.25-1-5a36.94,36.94,0,0,0-.92-4.52c-.32-1.34-.63-2-.92-2H207c-.59,0-.88.18-.88.56q0,2.88.32,8.76a27.2,27.2,0,0,0,.36,4.2l-.32.68h-.56l-.32-.32q-.65-18.48-.64-25.2a4.67,4.67,0,0,1,0-.72,1.39,1.39,0,0,1,.28-.52.58.58,0,0,1,.56-.28,5.06,5.06,0,0,1,3.28,1,3.46,3.46,0,0,1,1.24,2.88v2.92a5.81,5.81,0,0,1-.52,2,17.72,17.72,0,0,1-1.08,2.36l-.52,1c.29,1.36.87,3.81,1.72,7.36s1.36,5.38,1.44,5.6c0,0,0,.09.08.2s.15.26.28.48a2.16,2.16,0,0,1,.28,1c0,.37-.15.56-.44.56Zm-4.72-15.32a1.74,1.74,0,0,0,1.36-.76,5.88,5.88,0,0,0,1-2,16.1,16.1,0,0,0,.64-3.88,7.91,7.91,0,0,0-.12-1.52,6.14,6.14,0,0,0-.32-1.28,2.12,2.12,0,0,0-2.28-1.4c-.13,0-.24.12-.32.36a1.91,1.91,0,0,0-.12.68c0,1.78,0,3.4.08,4.84s0,3,0,4.84Zm12.36,14.84c-.61,0-1-.14-1.08-.4a1,1,0,0,0-.32,0h-.32c-.58,0-1-.14-1.12-.4a.57.57,0,0,1,.32-.48l.2-.2h1.16l.16-.16.08-.36,0-.48c0-1.63,0-3.08-.12-4.36l-.08-1.48-.08-2.92q0-1.56.12-4.68l.08-4.64a38.66,38.66,0,0,0-.2-4.64,4.21,4.21,0,0,0-1.2-.12l-.44,0a4.07,4.07,0,0,1-.52,0c-.5,0-.76-.23-.76-.68,0-.11.12-.22.36-.32a1.49,1.49,0,0,1,.6-.16,28,28,0,0,1,3,.16,6,6,0,0,1,1.84.36c.48.16.72.38.72.68a1,1,0,0,1-.12.32l-.92.08a1.89,1.89,0,0,0-1.16-.24l-.2.12a10.1,10.1,0,0,1,.12,2.12c0,1.76,0,3.34,0,4.76l-.08,4.76c0,1.2.06,2.65.16,4.36.08,1.94.12,3.41.12,4.4v.52a6.42,6.42,0,0,0,0,.72,3,3,0,0,0,.12,1.12l0,.08c0,.26.3.4.88.4a4.73,4.73,0,0,0,.6,0h.6c.78,0,1.16.18,1.16.56a.81.81,0,0,1-.24.6,1,1,0,0,1-.64.2,2.49,2.49,0,0,1-.64-.08,4.88,4.88,0,0,0-.68,0,2,2,0,0,0-.72.2A1.84,1.84,0,0,1,218.65,144.06Zm7.89.48a34.09,34.09,0,0,1-.44-5.76q0-1.29.12-3.72l.08-3.72a2.32,2.32,0,0,1-.28-.92,9.45,9.45,0,0,0,.4-3.68,63.24,63.24,0,0,0-.2-7.76c.24-.67.43-1,.56-1h1.76a2.75,2.75,0,0,1,1.24.44,6,6,0,0,1,1.4.88c.67.61,1,2.18,1,4.72a30.38,30.38,0,0,1-.12,3.12,3.79,3.79,0,0,1-.28,1.2,5.09,5.09,0,0,1-.52,1,4.87,4.87,0,0,1-2,1.6,10.16,10.16,0,0,1-1.68.64v4.76c0,.66.07,2,.2,3.92l.08,1.28.08,2.6c0,.48-.25.72-.76.72Zm1.28-14.32a2.36,2.36,0,0,0,2-1.08,4.54,4.54,0,0,0,.52-1.08,6.32,6.32,0,0,0,.32-1.32,13.4,13.4,0,0,0,.24-2.68V123c0-.38,0-.74,0-1.08a5.35,5.35,0,0,0-.16-1,2.09,2.09,0,0,0-.44-.84,1.82,1.82,0,0,0-.68-.6,2.55,2.55,0,0,0-1.16-.24.85.85,0,0,0-.68.24,1.36,1.36,0,0,0-.2.84q0,1,.12,2.88l.08,2.88a18,18,0,0,1-.08,1.88l-.08,1.88Zm11.31,13.28,0-1.48c0-.43,0-.91,0-1.44a6.07,6.07,0,0,1,0-.68l0-.72a3.42,3.42,0,0,0-.16-1q0-2.68-.4-10c-.26-4.7-.41-7.88-.44-9.56a29,29,0,0,1-3.32-.12c-.53-.14-.8-.35-.8-.64a.76.76,0,0,1,.76-.44c.8,0,2,0,3.48.16s2.55.2,3.48.2h.84l.84,0c.48,0,.72.17.72.52a.46.46,0,0,1-.28.4,1.34,1.34,0,0,1-.6.12c-.53,0-1.09,0-1.68-.08l-1.72-.08c-.1,0-.16,0-.16.12a4.45,4.45,0,0,0,0,.76q0,3.87.48,11.76.45,8.16.44,11.72a.67.67,0,0,1-.36.52,1,1,0,0,1-.64.24Z" transform="translate(-0.6)"/><path class="cls-2" d="M89.14,709.62q-2.62,0-3.88-3.78T84,694.08c0-1.15,0-2.16.07-3.05a18.92,18.92,0,0,1,.49-3.46,9.88,9.88,0,0,1,.42-1.65,10,10,0,0,1,.73-1.47,4.4,4.4,0,0,1,2.24-2,4.62,4.62,0,0,1,1.61-.28q1.05,0,1,.6c0,.28-.17.42-.52.42a2,2,0,0,1-.49-.11l-.49-.07a2.6,2.6,0,0,0-2,1A7.49,7.49,0,0,0,86,686.41a17.16,17.16,0,0,0-.53,3.12c-.07.63-.14,1.65-.21,3.08l0,2.31v1.92a35.84,35.84,0,0,0,.49,6.2,17.51,17.51,0,0,0,.8,2.9,5.34,5.34,0,0,0,1.3,1.89,2.73,2.73,0,0,0,1.89.81,3.4,3.4,0,0,0,3-1.75c0-.63,0-1.46-.14-2.49a11.32,11.32,0,0,0-.28-1.43c-.14-.4-.3-.6-.49-.6l-.66.07-.74.07c-.53,0-.8-.2-.8-.59,0-.19.32-.37,1-.53a7.11,7.11,0,0,1,1.64-.24.87.87,0,0,1,.81.42,1.77,1.77,0,0,1,.28,1,25.22,25.22,0,0,0,.35,3.11,19.2,19.2,0,0,1,.35,3.12c0,.37-.15.56-.46.56-.56,0-.84-.26-.84-.77l0-.11v-.07A7.29,7.29,0,0,1,89.14,709.62Zm10.56-.56c-.53,0-.85-.12-.94-.35a1,1,0,0,0-.28,0H98.2c-.51,0-.84-.12-1-.35a.5.5,0,0,1,.28-.42l.17-.17h1l.14-.14.07-.32,0-.42c0-1.42,0-2.69-.1-3.81l-.07-1.3-.07-2.55c0-.91,0-2.28.1-4.1l.07-4.06a34.69,34.69,0,0,0-.17-4.06,3.73,3.73,0,0,0-1-.1l-.39,0a3.14,3.14,0,0,1-.45,0c-.44,0-.67-.2-.67-.6,0-.09.11-.19.32-.28A1.4,1.4,0,0,1,97,686a26.18,26.18,0,0,1,2.66.14,5.36,5.36,0,0,1,1.61.32c.42.14.63.33.63.59a.77.77,0,0,1-.1.28l-.81.07a1.66,1.66,0,0,0-1-.21l-.18.11a8.64,8.64,0,0,1,.11,1.85c0,1.54,0,2.93,0,4.17l-.07,4.16c0,1,0,2.32.14,3.82.07,1.7.11,3,.11,3.85v.45a5,5,0,0,0,0,.63,2.54,2.54,0,0,0,.11,1l0,.07c0,.23.26.35.77.35a3.89,3.89,0,0,0,.53,0h.52c.68,0,1,.16,1,.49a.7.7,0,0,1-.21.52.84.84,0,0,1-.56.18,2.31,2.31,0,0,1-.56-.07,3.86,3.86,0,0,0-.6,0,1.81,1.81,0,0,0-.63.18A1.61,1.61,0,0,1,99.7,709.06Zm8.73-.49,0-1.3c0-.37,0-.79,0-1.26a3.34,3.34,0,0,1,0-.59l0-.63a3.19,3.19,0,0,0-.14-.84c0-1.57-.12-4.47-.35-8.72s-.36-6.89-.38-8.36a25,25,0,0,1-2.91-.11c-.47-.12-.7-.3-.7-.56a.66.66,0,0,1,.67-.38c.7,0,1.71,0,3,.14s2.23.17,3,.17h.73l.74,0q.63,0,.63.45a.41.41,0,0,1-.25.35,1.14,1.14,0,0,1-.52.11c-.47,0-1,0-1.47-.07l-1.51-.07c-.09,0-.14,0-.14.1a3.91,3.91,0,0,0,0,.67q0,3.39.42,10.29c.25,4.76.38,8.17.38,10.25a.58.58,0,0,1-.31.46,1,1,0,0,1-.56.21Z" transform="translate(-0.6)"/><path class="cls-2" d="M52.46,144.46a.54.54,0,0,1-.44-.16.81.81,0,0,1-.12-.48v-.48a1.78,1.78,0,0,0,0-.44q0-5.49-.4-13.88h-1.8a18.77,18.77,0,0,0-2.8.12c0,1.94.11,4.36.32,7.24q.36,4.92.36,7.24c0,.4-.14.6-.44.6s-.6-.19-.6-.56c0-1.31-.09-3.11-.2-5.4s-.16-4.28-.24-5.88q-.75-9.52-.76-18.24c0-.27.18-.4.52-.4a.41.41,0,0,1,.36.16.33.33,0,0,1,.12.36v3c0,.72.07,2.08.2,4.08l.08,1.36c.06,1.49.08,2.38.08,2.68v2c0,.69.07,1,.2,1l1.52-.08.8-.08c1.34-.11,2.1-.16,2.28-.16l0-.08c0-1.18-.06-3.43-.2-6.76s-.2-5.66-.2-6.8c0-.32.19-.48.56-.48a.71.71,0,0,1,.48.16.38.38,0,0,1,.2.36q0,7.8.28,17.16T53,143.1v.56a1,1,0,0,1-.16.56A.38.38,0,0,1,52.46,144.46Zm10.09-.16A.7.7,0,0,1,62,144a1.37,1.37,0,0,1-.2-.76v-7.12l-.08-6.4q-.12-4.29-.12-6.4l0-1.16v-2.6c0-2.88,0-4.32-.08-4.32H57a1.22,1.22,0,0,1-.6-.16.51.51,0,0,1-.24-.44.61.61,0,0,1,.12-.44,1.29,1.29,0,0,1,.64-.2,8,8,0,0,1,1.6-.12h4l4.4,0a.91.91,0,0,1,.64.16.63.63,0,0,1,.2.52c0,.4-.26.6-.76.6H63.43l-.36,0,0,2.32v22.68l0,3v.08a4.45,4.45,0,0,1,0,.56.65.65,0,0,1-.16.32A.44.44,0,0,1,62.55,144.3Zm21,.68a.84.84,0,0,1-.72-.28,1.57,1.57,0,0,1-.16-.84v-3.64q0-2.73-.16-6.6c0-.48,0-1.18,0-2.08-.08-1.9-.12-3.39-.12-4.48l0-2.24c0-.67,0-1.42,0-2.24s0-1.36,0-1.92c0-.4,0-.74-.08-1a3.67,3.67,0,0,0,0-.64l-.08.28q-.43,2.91-1.32,7.68t-1.44,7.64c-.37,1.7-.61,2.92-.72,3.64a1.61,1.61,0,0,1-.36.84.65.65,0,0,1-1.12,0,1.76,1.76,0,0,1-.28-.92q-.28-1.92-2-10.72c-1.17-5.87-1.83-8.91-2-9.12q-.12,3.6-.12,8.08,0,3.51,0,6.36t0,6.36c0,.4,0,1,.12,1.88l.08,1.92a1.47,1.47,0,0,1-.28,1c-.77,0-1.16-.7-1.16-2.08v-6.68l0-4c0-1.2,0-2.56,0-4.08,0-1.76,0-3.34,0-4.72l.08-4.76V114.1a.46.46,0,0,1,.16-.36.62.62,0,0,1,.4-.16.44.44,0,0,1,.44.32q.36,1.2,1.8,7.08c1,3.92,1.68,6.94,2.16,9.08q.36,1.88,1.16,6.64l.28-1.56c.08-.48.2-1.15.36-2,.32-2.08.52-3.26.6-3.52l1.84-9.8.36-2.08.44-2.24.2-1.2a1,1,0,0,1,.24-.6.57.57,0,0,1,.44-.24.45.45,0,0,1,.36.2.85.85,0,0,1,.16.56v4c0,2,.12,5,.36,9.08q.29,5.6.28,9c0,.72,0,1.82.12,3.32,0,1.92.08,3.25.08,4a3.59,3.59,0,0,1-.12,1.16A.5.5,0,0,1,83.52,145Zm7.68-.68a.63.63,0,0,1-.48-.24,1.11,1.11,0,0,1-.16-.6v-1.6c0-1.68-.06-3.58-.2-5.68s-.16-4.14-.16-5.68-.06-4.23-.2-8.36c-.16-3.74-.24-6.52-.24-8.36a.39.39,0,0,1,.16-.32.68.68,0,0,1,.44-.16q.72,0,.72.6,0,7.39.12,11.08l.2,7.16c0,1.12.08,2.94.24,5.48l.24,5a.11.11,0,0,0,.12.12,1.79,1.79,0,0,0,.52,0H95c.35,0,.52.24.52.72a1.25,1.25,0,0,1-.12.56.4.4,0,0,1-.36.2l-.28,0h-.32C93.88,144.28,92.8,144.3,91.2,144.3Z" transform="translate(-0.6)"/><path class="cls-3" d="M69.62,316.46a1,1,0,0,1-1-.8l-.48-1.76c-.74-2.48-1.29-4.58-1.64-6.28-.21-.94-.48-2.23-.8-3.88-.37-1.92-.72-3.48-1-4.68l-.4.24-.52.24.08,15.4v.6c0,.53-.24.8-.72.8a.73.73,0,0,1-.52-.2.69.69,0,0,1-.2-.48v-.6l.08-8.08.08-3.88q.16-7,.16-11.92V286q0-.36.72-.36a3.42,3.42,0,0,1,1.92.56,3.83,3.83,0,0,1,1.44,1.52A8.7,8.7,0,0,1,67.86,292a11.46,11.46,0,0,1-.8,4c-.16.4-.36.86-.6,1.4a4,4,0,0,1-.64,1c.56,2.05,1.38,5.21,2.44,9.48l1.88,7.2a1.46,1.46,0,0,1,0,.44,1,1,0,0,1-.16.6A.42.42,0,0,1,69.62,316.46ZM63.7,298.22c.22,0,.58-.26,1.08-.76a7.67,7.67,0,0,0,1.08-1.28,6.4,6.4,0,0,0,.48-1.68,11,11,0,0,0,.2-2,10.57,10.57,0,0,0-.56-3.36,3.64,3.64,0,0,0-.84-1.6,1.61,1.61,0,0,0-1.24-.64h-.08a.17.17,0,0,1-.12,0Zm11.13,18.36c-.48,0-.75-.28-.8-.84v-.52a2.33,2.33,0,0,0,0-.48l-.16-.16a4.68,4.68,0,0,0,.32-1.64q0-.93-.12-2.64L74,307.66q0-2,.12-6,.16-3.57.16-6l-.08-2.4c0-.72-.08-1.52-.08-2.4a1,1,0,0,1,.28-.84,1.19,1.19,0,0,1,.88-.28.86.86,0,0,1,.64.24,11.61,11.61,0,0,0,1.16.16,8.76,8.76,0,0,1,1.72.36c.51.16.76.36.76.6s-.25.53-.76.8a12,12,0,0,0-3.24-.76l-.2.24c0,.24,0,.81,0,1.72,0,1.14,0,2.17-.08,3.08s0,2,0,3.12c0,.74.19,1.12.56,1.12l.64,0a4.88,4.88,0,0,1,.68,0q1.56,0,1.56.72a1.46,1.46,0,0,1-.2.76.7.7,0,0,1-.6.28,1.25,1.25,0,0,1-.92-.32l-1.28-.2h-.2l-.2.2v.12c.05.45.08,1.5.08,3.16,0,1,0,2,0,2.84l0,2.84c0,1,0,2.1.12,3.2a1.78,1.78,0,0,0,.4,1.24,2.3,2.3,0,0,0,1.32.28l.72,0a6.58,6.58,0,0,1,.8,0c.77,0,1.16.17,1.16.52s-.59.72-1.76.72Zm17.35-.16a1.23,1.23,0,0,1-.76-.16,1.3,1.3,0,0,1-.24-.72c-.24-2-.38-3.16-.44-3.64l-.2-1.6a8.62,8.62,0,0,0-2-.2L87.1,310a12.56,12.56,0,0,0-1.4-.12c-.16,0-.25.06-.28.2s0,.12,0,.12l-.08.8a25.93,25.93,0,0,1-.44,2.88,6.91,6.91,0,0,1-.48,1.68c-.21.45-.41.68-.6.68a1,1,0,0,1-.52-.2.68.68,0,0,1-.28-.48l0-.12,0-.12q.72-2.85,1.2-5.64l.48-2.48.48-3s.15-.88.44-2.64q.21-1.08.72-3.48c.38-1.82.6-3.06.68-3.72,0-.08.08-.58.16-1.48s.2-1.76.28-2.24a3.72,3.72,0,0,1,.24-1.2H88a1.18,1.18,0,0,0,.28,0,1,1,0,0,0,.72-.24.62.62,0,0,1,.48.2.46.46,0,0,1,.24.4,41.51,41.51,0,0,0,.28,4.4c.11.85.19,1.56.24,2.12q.45,5.16,2.24,19.36v.12A.66.66,0,0,1,92.18,316.42Zm-1.84-7.2q-.39-5.76-1.52-17L86.66,302.9a42.24,42.24,0,0,0-.92,5.8c0,.13.51.25,1.52.36s1.91.16,2.68.16Zm9.46,7.12a4.34,4.34,0,0,1-1.32-.68,4.93,4.93,0,0,1-1-1.32,11.52,11.52,0,0,1-1-4.6c0-.91-.08-1.71-.08-2.4v-4.56c0-1.74.06-3.42.16-5a25,25,0,0,1,.36-3,12.84,12.84,0,0,1,.76-2.48,4.5,4.5,0,0,1,1.24-1.8,4.25,4.25,0,0,1,1.08-.56c.35-.14.68-.28,1-.44h1.72a.21.21,0,0,0,.12,0l.2,0,.16.12c.08.08.12.13.12.16a.49.49,0,0,1,0,.24l-.52.6h-1.68a1.84,1.84,0,0,0-1.4.76,5,5,0,0,0-.92,1.84,15.88,15.88,0,0,0-.52,2.36c-.13.9-.21,1.69-.24,2.36,0,.85-.08,1.44-.08,1.76l-.08.2c0,1.49,0,2.84-.08,4l-.08,4a20.36,20.36,0,0,0,.24,3.24,6.07,6.07,0,0,0,1.16,2.88,3.28,3.28,0,0,0,2.84,1.28,1.43,1.43,0,0,0,1-.36c.4,0,.6.14.6.44s-.17.4-.52.64a3.85,3.85,0,0,1-1,.6h-1.32Zm11.09-.84,0-1.48c0-.43,0-.91,0-1.44a4.36,4.36,0,0,1,0-.68l0-.72a3.42,3.42,0,0,0-.16-1q0-2.69-.4-10c-.27-4.7-.41-7.88-.44-9.56a29,29,0,0,1-3.32-.12c-.53-.14-.8-.35-.8-.64a.75.75,0,0,1,.76-.44c.8,0,2,.05,3.48.16s2.55.2,3.48.2h.84l.84,0c.48,0,.72.17.72.52a.46.46,0,0,1-.28.4,1.34,1.34,0,0,1-.6.12c-.53,0-1.09,0-1.68-.08l-1.72-.08c-.11,0-.16,0-.16.12a3.53,3.53,0,0,0,0,.76q0,3.87.48,11.76.44,8.16.44,11.72a.67.67,0,0,1-.36.52,1.06,1.06,0,0,1-.64.24Z" transform="translate(-0.6)"/><path class="cls-3" d="M69.62,388.46a1,1,0,0,1-1-.8l-.48-1.76c-.74-2.48-1.29-4.58-1.64-6.28-.21-.94-.48-2.23-.8-3.88-.37-1.92-.72-3.48-1-4.68l-.4.24-.52.24.08,15.4v.6c0,.53-.24.8-.72.8a.73.73,0,0,1-.52-.2.69.69,0,0,1-.2-.48v-.6l.08-8.08.08-3.88q.16-7,.16-11.92V358q0-.36.72-.36a3.42,3.42,0,0,1,1.92.56,3.83,3.83,0,0,1,1.44,1.52A8.7,8.7,0,0,1,67.86,364a11.46,11.46,0,0,1-.8,4c-.16.4-.36.86-.6,1.4a4,4,0,0,1-.64,1c.56,2.05,1.38,5.21,2.44,9.48l1.88,7.2a1.46,1.46,0,0,1,0,.44,1,1,0,0,1-.16.6A.42.42,0,0,1,69.62,388.46ZM63.7,370.22c.22,0,.58-.26,1.08-.76a7.67,7.67,0,0,0,1.08-1.28,6.4,6.4,0,0,0,.48-1.68,11,11,0,0,0,.2-2,10.57,10.57,0,0,0-.56-3.36,3.64,3.64,0,0,0-.84-1.6,1.61,1.61,0,0,0-1.24-.64h-.08a.17.17,0,0,1-.12,0Zm11.13,18.36c-.48,0-.75-.28-.8-.84v-.52a2.33,2.33,0,0,0,0-.48l-.16-.16a4.68,4.68,0,0,0,.32-1.64q0-.93-.12-2.64L74,379.66q0-2,.12-6,.16-3.57.16-6l-.08-2.4c0-.72-.08-1.52-.08-2.4a1,1,0,0,1,.28-.84,1.19,1.19,0,0,1,.88-.28.86.86,0,0,1,.64.24,11.61,11.61,0,0,0,1.16.16,8.76,8.76,0,0,1,1.72.36c.51.16.76.36.76.6s-.25.53-.76.8a12,12,0,0,0-3.24-.76l-.2.24c0,.24,0,.81,0,1.72,0,1.14,0,2.17-.08,3.08s0,2,0,3.12c0,.74.19,1.12.56,1.12l.64,0a4.88,4.88,0,0,1,.68,0q1.56,0,1.56.72a1.46,1.46,0,0,1-.2.76.7.7,0,0,1-.6.28,1.25,1.25,0,0,1-.92-.32l-1.28-.2h-.2l-.2.2v.12c.05.45.08,1.5.08,3.16,0,1,0,2,0,2.84l0,2.84c0,1,0,2.1.12,3.2a1.78,1.78,0,0,0,.4,1.24,2.3,2.3,0,0,0,1.32.28l.72,0a6.58,6.58,0,0,1,.8,0c.77,0,1.16.17,1.16.52s-.59.72-1.76.72Zm10.23-.32c-.21,0-.32-.36-.32-1.08-.1-1.84-.16-4.16-.16-7,0-1.76,0-3.34,0-4.72l0-4.72q0-3-.16-7.52a1,1,0,0,1-.36-.8.77.77,0,0,1,.32-.56,1,1,0,0,1,.64-.32.76.76,0,0,1,.6.32l.44.36a3.93,3.93,0,0,0,.92.24,4.62,4.62,0,0,1,1,.24,8.08,8.08,0,0,1,1.6,1.24,11.5,11.5,0,0,0,1.32,1.2l0,.08a4.17,4.17,0,0,0,.6,1,8,8,0,0,1,.72,1.12,14.63,14.63,0,0,1,.64,4.76,8.54,8.54,0,0,1,0,.92v1.28l0,.4A2.56,2.56,0,0,0,93,376c-.16.85-.36,2.46-.6,4.84A18.08,18.08,0,0,1,92,383a8,8,0,0,1-.68,1.92,8.42,8.42,0,0,1-3.48,3.32Zm2.64-1.16a4.23,4.23,0,0,1,.52-.52l.28-.2.32-.28q2.81-2.52,2.8-9.6v-.76c0-.22,0-.44,0-.68l-.16-4a11.67,11.67,0,0,0-1.4-4.8,5.13,5.13,0,0,0-1.64-2,3.28,3.28,0,0,0-2.12-.8c-.32,0-.48,2.46-.48,7.4q0,8.55.48,14.92l0,.76.16.08.08.52Zm14.71,1.56a2.87,2.87,0,0,1-1.4-.44,4.45,4.45,0,0,1-1.2-1c-.37-.48-.67-1.83-.88-4s-.35-4.75-.4-7.6c0-.64,0-1.12,0-1.44q-.08-10.05-.32-11.88l.24-.56c.61.08.92.81.92,2.2l.12,10.6c0,.74.07,2.16.2,4.24.16,1.86.24,3.28.24,4.24q0,4.56,3,4.56c1.23,0,2-2.8,2.36-8.4l0-.8q.28-11,.28-16.28l0-.36a1.37,1.37,0,0,1,0-.36c0-.3.23-.44.68-.44s.52.08.6.24a8.53,8.53,0,0,1,.08,1.4,22.17,22.17,0,0,1-.24,4.08l0,.24c0,.34,0,.88-.12,1.6l-.08,1.6v.4a1.49,1.49,0,0,1,0,.4c0,.64-.08,1.25-.08,1.84a6.26,6.26,0,0,0,0,.88c-.05,2.53-.11,4.73-.16,6.6a20,20,0,0,1-1,5.88C104.66,387.8,103.72,388.66,102.41,388.66Zm10.49-.48c-.51,0-.76-.16-.76-.48a27.2,27.2,0,0,1,1.12-6.24,26.94,26.94,0,0,0,1.12-6.28,43.45,43.45,0,0,0-1.08-6.08,27.68,27.68,0,0,0-1.44-5.4v-.16a.12.12,0,0,0,0-.08v0a1.12,1.12,0,0,0-.2-.56l-.16-.48c0-.11.08-.2.24-.28a1.29,1.29,0,0,1,.48-.12c.21,0,.39.16.52.48a3.25,3.25,0,0,1,.32,1l0,.92a28.68,28.68,0,0,1,1,4q.52,2.64.84,3.72a15.47,15.47,0,0,0,.6-3.12c.27-1.76.44-3.08.52-4,.16-2.16.33-3.27.52-3.32l.32-.08.32,0,.36.48a6.63,6.63,0,0,0-.64,3.52v.24l0,.24,0,0c-.11,1-.37,2.42-.8,4.4a27,27,0,0,0-.68,5,52.46,52.46,0,0,0,1,5.32c.69,3.12,1.15,4.94,1.36,5.48a1.94,1.94,0,0,0,.2.32,1.82,1.82,0,0,1,.28.84.51.51,0,0,1-.2.4.58.58,0,0,1-.4.16,1.14,1.14,0,0,1-.52-.12l-.72-3q-1-3.6-1.52-6.68a12.88,12.88,0,0,0-.88,4.16,25.89,25.89,0,0,1-.72,4.4,1.12,1.12,0,0,1,.08.48,1.58,1.58,0,0,1-.16.72A.45.45,0,0,1,112.9,388.18Z" transform="translate(-0.6)"/><line class="cls-5" x1="157.86" y1="174.32" x2="97.69" y2="268.33"/><line class="cls-6" x1="211.69" y1="173.8" x2="268.69" y2="267.8"/><line class="cls-7" x1="108.27" y1="131.56" x2="117.27" y2="131.56"/><line class="cls-7" x1="128.27" y1="695.56" x2="137.27" y2="695.56"/><line class="cls-7" x1="220.27" y1="695.56" x2="229.27" y2="695.56"/><line class="cls-7" x1="256.27" y1="131.56" x2="265.27" y2="131.56"/><line class="cls-7" x1="277.77" y1="328.06" x2="277.77" y2="348.06"/><line class="cls-6" x1="88.77" y1="328.06" x2="88.77" y2="348.06"/><line class="cls-6" x1="276.77" y1="517.06" x2="276.77" y2="537.06"/><line class="cls-7" x1="87.77" y1="517.06" x2="87.77" y2="537.06"/><line class="cls-5" x1="277.77" y1="405.06" x2="277.77" y2="454.06"/><line class="cls-7" x1="88.77" y1="405.06" x2="88.77" y2="454.06"/></g></svg>