<svg id="Layer_1" data-name="Layer 1" xmlns="http://www.w3.org/2000/svg" viewBox="0 0 1919.05 1080"><defs><style>.cls-1,.cls-5,.cls-6,.cls-7{fill:none;}.cls-2{fill:#eb3d80;}.cls-3{fill:#18d5f2;}.cls-4{fill:#fff;}.cls-5{stroke:#eb3d80;}.cls-5,.cls-6,.cls-7{stroke-width:2px;}.cls-6{stroke:#18d5f2;}.cls-7{stroke:#fff;}</style></defs><title>Portfolio Péťa</title><rect class="cls-1" width="1919.05" height="1080"/><path class="cls-2" d="M807.91,339.15c-1,0-1.47-.44-1.47-1.33q.06-.69,1.68-1.68l.84-.63q3.07-3,3.08-10.71,0-4.76-.35-10.36c-.24-5-.35-8.14-.35-9.45l-.42-10.85q-.36-9.24-.35-12.67c-.75,0-1.45,0-2.1.07l-2.1.07a.93.93,0,0,1-.7-.28,1.46,1.46,0,0,1-.21-.77c0-.56.18-.91.56-1.05a7.72,7.72,0,0,1,2.66-.28l2.66.07h3.71a1,1,0,0,1,.77.35,1.1,1.1,0,0,1,.35.77.85.85,0,0,1-.42.84,3.35,3.35,0,0,1-1.47.21h-1.54q0,9.45.77,23.59.13,1.89.28,6.44c.32,5.84.49,9.31.49,10.43,0,2,0,3.5-.14,4.62a28.28,28.28,0,0,1-.42,3.64,12.75,12.75,0,0,1-1.05,3.43,11.4,11.4,0,0,1-1.82,2.87A11.56,11.56,0,0,1,807.91,339.15ZM839.16,333a2,2,0,0,1-1.33-.28q-.29-.21-.42-1.26c-.42-3.4-.68-5.53-.77-6.37l-.35-2.8a16.13,16.13,0,0,0-3.5-.35l-2.52-.14a22.26,22.26,0,0,0-2.45-.21c-.28,0-.45.12-.49.35s0,.21-.07.21l-.14,1.4c0,.84-.31,2.52-.77,5a13.33,13.33,0,0,1-.84,2.94c-.38.8-.73,1.19-1,1.19a1.54,1.54,0,0,1-.91-.35,1.14,1.14,0,0,1-.49-.84l.07-.21.07-.21q1.26-5,2.1-9.87l.84-4.34.84-5.32s.25-1.54.77-4.62q.35-1.89,1.26-6.09,1-4.75,1.19-6.51c0-.14.14-1,.28-2.59.18-1.77.35-3.08.49-3.92a6.75,6.75,0,0,1,.42-2.1h.49a1.45,1.45,0,0,0,.49.07,1.71,1.71,0,0,0,1.26-.42,1.18,1.18,0,0,1,.84.35.83.83,0,0,1,.42.7,68.65,68.65,0,0,0,.49,7.7c.18,1.5.32,2.73.42,3.71q.76,9,3.92,33.88v.21A1.16,1.16,0,0,1,839.16,333Zm-3.22-12.6q-.71-10.08-2.66-29.75l-3.78,18.69a72.21,72.21,0,0,0-1.61,10.15c0,.24.88.45,2.66.63a44.36,44.36,0,0,0,4.69.28Zm16.83,12.18A105.09,105.09,0,0,0,851,316.68q-1.68-10.5-4.48-23l-.56-2.17-.91-3.22a9.87,9.87,0,0,1-.42-1.82.76.76,0,0,1,.28-.49,1,1,0,0,1,.63-.35c.65,0,1.17.73,1.54,2.17a17.26,17.26,0,0,1,.49,2.1c.19.75.33,1.29.42,1.61a9.24,9.24,0,0,0,.21,1.26c.89,3.6,1.42,5.88,1.61,6.86l.7,3.57.63,3.36.63,3.57a25.67,25.67,0,0,0,.56,3.29l1,6.86c0,.19.16,1.38.49,3.57l.49,3.43a78.94,78.94,0,0,0,2.38-13.86q1-8.67,2.8-17.43,1.55-7.56,2.17-11l.91-.35a1.05,1.05,0,0,1,.49.28.56.56,0,0,1,.28.42,19.35,19.35,0,0,1-.63,4.2l-.42,1.82-1.19,5.53q-1,4.56-1.47,7c-.23,1.64-.51,4-.84,7.07l-.14,1.61c-.23,2.52-.42,4.23-.56,5.11a19.34,19.34,0,0,1-.77,3.43c-.37,1.4-.68,2.64-.91,3.71l-.14,1.61a26.87,26.87,0,0,1-.56,4.34c-.37,1.59-1.12,2.38-2.24,2.38Zm1.54-5-.07.14.07.14ZM886.05,333a2,2,0,0,1-1.33-.28q-.29-.21-.42-1.26c-.42-3.4-.68-5.53-.77-6.37l-.35-2.8a16.07,16.07,0,0,0-3.5-.35l-2.52-.14a22.26,22.26,0,0,0-2.45-.21.44.44,0,0,0-.49.35c0,.14,0,.21-.07.21l-.14,1.4a50.25,50.25,0,0,1-.77,5,12.32,12.32,0,0,1-.84,2.94c-.37.8-.72,1.19-1,1.19a1.56,1.56,0,0,1-.91-.35,1.14,1.14,0,0,1-.49-.84l.07-.21.07-.21q1.26-5,2.1-9.87l.84-4.34.84-5.32s.26-1.54.77-4.62q.35-1.89,1.26-6.09,1-4.75,1.19-6.51c0-.14.14-1,.28-2.59.19-1.77.35-3.08.49-3.92a6.75,6.75,0,0,1,.42-2.1h.49a1.45,1.45,0,0,0,.49.07,1.71,1.71,0,0,0,1.26-.42,1.15,1.15,0,0,1,.84.35.83.83,0,0,1,.42.7,68.65,68.65,0,0,0,.49,7.7c.19,1.5.33,2.73.42,3.71q.76,9,3.92,33.88v.21A1.16,1.16,0,0,1,886.05,333Zm-3.22-12.6q-.71-10.08-2.66-29.75l-3.78,18.69a73.85,73.85,0,0,0-1.61,10.15c0,.24.89.45,2.66.63a44.51,44.51,0,0,0,4.69.28Zm14.38,13.51a10,10,0,0,1-2-.14,4.38,4.38,0,0,1-1.4-.42,2.8,2.8,0,0,1-1.26-1.19c0-.56.26-.84.77-.84a5.51,5.51,0,0,1,2,.49,4.36,4.36,0,0,0,1.89.56,3.88,3.88,0,0,0,2.8-1.26,7.9,7.9,0,0,0,2-3.29,21.51,21.51,0,0,0,1.4-7.07,25.43,25.43,0,0,0-1-6.93,33.49,33.49,0,0,0-2.59-6.58c-.23-.51-.63-1.28-1.19-2.31q-1.74-3.5-2.66-5.46a32.06,32.06,0,0,1-1.61-4.34,22.84,22.84,0,0,1-1-6.79,14,14,0,0,1,.7-4.41,9.59,9.59,0,0,1,2.38-3.71,5.68,5.68,0,0,1,3.92-1.61,4.27,4.27,0,0,1,2,.7c.8.42,1.19.84,1.19,1.26s-.14.56-.42.56a2.63,2.63,0,0,1-1.12-.35,2.48,2.48,0,0,0-1.19-.35,4.09,4.09,0,0,0-2.87,1.19,7.37,7.37,0,0,0-1.75,2.94,10.35,10.35,0,0,0-.49,3.22,24.83,24.83,0,0,0,.7,5.67,28.58,28.58,0,0,0,1.89,5.39l2.45,5.11.7,1.47q1.47,3,2.24,5a25.69,25.69,0,0,1,1.4,4.41,27.36,27.36,0,0,1,.77,6.3,18.37,18.37,0,0,1-2.1,8.26,9.08,9.08,0,0,1-2.8,3.29A6.43,6.43,0,0,1,897.21,333.9Zm23.36-1a7.22,7.22,0,0,1-2.31-1.19,8.08,8.08,0,0,1-1.75-2.31,20.06,20.06,0,0,1-1.75-8.05c-.09-1.58-.14-3-.14-4.2v-8c0-3,.1-6,.28-8.82a44.1,44.1,0,0,1,.63-5.32,22.72,22.72,0,0,1,1.33-4.34,8,8,0,0,1,2.17-3.15,7.76,7.76,0,0,1,1.89-1,18.5,18.5,0,0,0,1.75-.77h3a.28.28,0,0,0,.21.07l.35.07.28.21c.14.14.21.24.21.28a1,1,0,0,1,.07.42l-.91,1H923a3.24,3.24,0,0,0-2.45,1.33,8.85,8.85,0,0,0-1.61,3.22,27.63,27.63,0,0,0-.91,4.13c-.23,1.59-.37,3-.42,4.13-.09,1.5-.14,2.52-.14,3.08l-.14.35c0,2.62,0,5-.14,7.07l-.14,7.07a35.4,35.4,0,0,0,.42,5.67,10.45,10.45,0,0,0,2,5,5.7,5.7,0,0,0,5,2.24,2.51,2.51,0,0,0,1.75-.63c.7,0,1.05.26,1.05.77,0,.33-.3.7-.91,1.12a6,6,0,0,1-1.75,1.05h-2.31Zm25.5.35q-.84-.9-1.82-4.83c-.66-2.61-1.26-5.55-1.82-8.82a67.61,67.61,0,0,0-1.61-7.91c-.56-2.33-1.1-3.5-1.61-3.5H939c-1,0-1.54.33-1.54,1q0,5,.56,15.33a44.32,44.32,0,0,0,.63,7.35l-.56,1.19h-1l-.56-.56q-1.12-32.34-1.12-44.1a8.77,8.77,0,0,1,.07-1.26,2.38,2.38,0,0,1,.49-.91,1,1,0,0,1,1-.49,8.91,8.91,0,0,1,5.74,1.75,6.13,6.13,0,0,1,2.17,5v5.11a10.3,10.3,0,0,1-.91,3.57,30.29,30.29,0,0,1-1.89,4.13l-.91,1.75q.76,3.57,3,12.88t2.52,9.8a1.15,1.15,0,0,1,.14.35,7.86,7.86,0,0,0,.49.84,4.05,4.05,0,0,1,.49,1.68c0,.66-.26,1-.77,1Zm-8.26-26.81a3,3,0,0,0,2.38-1.33,10.17,10.17,0,0,0,1.68-3.43,28.71,28.71,0,0,0,1.12-6.79,14,14,0,0,0-.21-2.66,11.82,11.82,0,0,0-.56-2.24q-.84-2.44-4-2.45c-.24,0-.42.21-.56.63a3.39,3.39,0,0,0-.21,1.19c0,3.13,0,5.95.14,8.47s.07,5.35.07,8.47Zm21.63,26c-1.08,0-1.71-.23-1.89-.7a2,2,0,0,0-.56.07h-.56c-1,0-1.68-.23-2-.7a1,1,0,0,1,.56-.84l.35-.35h2l.28-.28.14-.63.07-.84c0-2.84-.07-5.39-.21-7.63l-.14-2.59-.14-5.11q0-2.73.21-8.19l.14-8.12a71.33,71.33,0,0,0-.35-8.12,7.37,7.37,0,0,0-2.1-.21l-.77.07a5.25,5.25,0,0,1-.91.07c-.89,0-1.33-.39-1.33-1.19,0-.18.21-.37.63-.56a2.84,2.84,0,0,1,1.05-.28,52.82,52.82,0,0,1,5.32.28,11.55,11.55,0,0,1,3.22.63c.84.28,1.26.68,1.26,1.19a1.64,1.64,0,0,1-.21.56L962,289a3.37,3.37,0,0,0-2-.42l-.35.21a17.78,17.78,0,0,1,.21,3.71c0,3.08,0,5.86-.07,8.33l-.14,8.33c0,2.1.09,4.65.28,7.63q.21,5.12.21,7.7v.91a8.77,8.77,0,0,0-.07,1.26,5.13,5.13,0,0,0,.21,2l-.07.14c0,.47.51.7,1.54.7a6.19,6.19,0,0,0,1.05-.07h1c1.35,0,2,.33,2,1a1.42,1.42,0,0,1-.42,1.05,1.67,1.67,0,0,1-1.12.35,3.81,3.81,0,0,1-1.12-.14,11.2,11.2,0,0,0-1.19-.07,3.78,3.78,0,0,0-1.26.35A3.22,3.22,0,0,1,959.44,332.36Zm13.81.84a59.4,59.4,0,0,1-.77-10.08q0-2.24.21-6.51l.14-6.51a3.77,3.77,0,0,1-.49-1.61q.7-1.11.7-6.44,0-12.74-.35-13.58c.42-1.16.75-1.75,1-1.75h3.08a5.09,5.09,0,0,1,2.17.77,11.09,11.09,0,0,1,2.45,1.54q1.75,1.62,1.75,8.26a53.16,53.16,0,0,1-.21,5.46,6.91,6.91,0,0,1-.49,2.1,9,9,0,0,1-.91,1.75,8.32,8.32,0,0,1-3.57,2.8,15.61,15.61,0,0,1-2.94,1.12v8.33q0,1.75.35,6.86l.14,2.24.14,4.55c0,.84-.44,1.26-1.33,1.26Zm2.24-25.06a4.15,4.15,0,0,0,3.43-1.89,7.58,7.58,0,0,0,.91-1.89,10.77,10.77,0,0,0,.56-2.31,23.26,23.26,0,0,0,.42-4.69v-1.89c0-.65,0-1.28-.07-1.89a11,11,0,0,0-.28-1.75,4.09,4.09,0,0,0-.77-1.47,3.31,3.31,0,0,0-1.19-1.05,4.51,4.51,0,0,0-2-.42,1.47,1.47,0,0,0-1.19.42,2.36,2.36,0,0,0-.35,1.47q0,1.68.21,5l.14,5c0,1.22,0,2.31-.14,3.29l-.14,3.29Zm19.79,23.24-.07-2.59c-.05-.74-.07-1.58-.07-2.52a8.19,8.19,0,0,1,.07-1.19l.07-1.26a6.64,6.64,0,0,0-.28-1.68q0-4.68-.7-17.43-.7-12.31-.77-16.73a50.6,50.6,0,0,1-5.81-.21c-.94-.23-1.4-.6-1.4-1.12a1.32,1.32,0,0,1,1.33-.77c1.4,0,3.43.1,6.09.28,2.42.24,4.45.35,6.09.35h1.47l1.47-.07c.84,0,1.26.31,1.26.91a.82.82,0,0,1-.49.7,2.34,2.34,0,0,1-1,.21c-.94,0-1.92,0-2.94-.14l-3-.14c-.19,0-.28.07-.28.21a6.46,6.46,0,0,0-.07,1.33q0,6.8.84,20.58.76,14.28.77,20.51a1.15,1.15,0,0,1-.63.91,1.88,1.88,0,0,1-1.12.42Z"/><path class="cls-2" d="M1228,906a1.43,1.43,0,0,1-1.26-.49,2.77,2.77,0,0,1-.28-1.47v-6.37c0-3.17-.1-7-.28-11.55-.05-.84-.07-2.05-.07-3.64q-.21-5-.21-7.84l.07-3.92c0-1.16.07-2.47.07-3.92,0-1.26,0-2.38-.07-3.36,0-.7-.1-1.28-.14-1.75a8.1,8.1,0,0,0-.07-1.12l-.14.49q-.78,5.12-2.31,13.44t-2.52,13.37q-1,4.49-1.26,6.37a2.92,2.92,0,0,1-.63,1.47,1.2,1.2,0,0,1-1,.56,1.19,1.19,0,0,1-1-.56,2.93,2.93,0,0,1-.49-1.61q-.5-3.36-3.57-18.76t-3.43-16q-.21,6.3-.21,14.14,0,6.16.07,11.13c0,3.32.07,7,.07,11.13,0,.7.07,1.8.21,3.29l.14,3.36a2.59,2.59,0,0,1-.49,1.82c-1.36,0-2-1.21-2-3.64V888.89l.07-7.07c0-2.1.07-4.48.07-7.14q0-4.62.07-8.26l.14-8.33v-6.16a.87.87,0,0,1,.28-.63,1.14,1.14,0,0,1,.7-.28.78.78,0,0,1,.77.56q.63,2.1,3.15,12.39t3.78,15.89q.63,3.3,2,11.62l.49-2.73c.14-.84.35-2,.63-3.5q.84-5.46,1.05-6.16l3.22-17.15.63-3.64.77-3.92.35-2.1a1.63,1.63,0,0,1,.42-1,1,1,0,0,1,.77-.42.82.82,0,0,1,.63.35,1.59,1.59,0,0,1,.28,1v6.93q0,5.25.63,15.89.48,9.81.49,15.75,0,1.89.21,5.81c.09,3.36.14,5.7.14,7a6.16,6.16,0,0,1-.21,2A.89.89,0,0,1,1228,906Zm18.48-.28q-8.19,0-8.19-25.76v-2.45q0-19.53,5-19.53a3.38,3.38,0,0,1,1,.21,18.84,18.84,0,0,0,4.41,1c.88.19,1.77,1.1,2.66,2.73a20,20,0,0,1,2.17,6.65,46.49,46.49,0,0,1,.77,8.47l-.14.35c0,1.54,0,2.92.07,4.13l.07,4.2c0,2.38-.1,4.53-.28,6.44a37.8,37.8,0,0,1-1.4,7.49,13.22,13.22,0,0,1-1.47,3.15,7.15,7.15,0,0,1-2,2.1A4.43,4.43,0,0,1,1246.44,905.69Zm-.28-2q2.73,0,4.06-3.85a31.86,31.86,0,0,0,1.61-8c.18-2.8.28-5,.28-6.72,0-1.86-.14-4.62-.42-8.26-.24-4.06-.35-6.81-.35-8.26l-.28-.56.14-.35a8.44,8.44,0,0,0-1.75-5.32,5,5,0,0,0-4.13-2.24,3.52,3.52,0,0,0-3.85,3.08c-.1.7-.19,1.71-.28,3a38.7,38.7,0,0,1-.42,7.07c0,.7-.07,1.8-.21,3.29l-.14,3.29c0,1,0,1.94.07,2.73l.07,2.8a57.56,57.56,0,0,0,.56,7.56,44.46,44.46,0,0,0,1,5.32,11.57,11.57,0,0,0,1.61,3.71A3,3,0,0,0,1246.16,903.66Zm35,1a1,1,0,0,1-.84-.42A6.51,6.51,0,0,1,1280,903a3.13,3.13,0,0,0-.28-1l.07-.21a44.35,44.35,0,0,0-2.38-8l-1.26-3.64a31.68,31.68,0,0,1-1.33-3.57l-.56-1.68q-6.3-19.46-7.91-21.07a17.46,17.46,0,0,0-.56,4.9c0,1.08,0,2,.07,2.8l.07,2.73-.07,1.68c0,.52-.07,1.08-.07,1.68a20.44,20.44,0,0,0,.14,2.66c.09,1.5.14,2.24.14,2.24h-.21q0,11.7.49,12.88v6.3a3.44,3.44,0,0,1,.28,1.47,1.33,1.33,0,0,1-.42,1,1.14,1.14,0,0,1-.91.42q-1.47,0-1.47-3.78l.14-2.24a18.14,18.14,0,0,0,.14-2.31q0-3.36-.21-10.08t-.21-10.08q0-2,.21-6.23t.21-6.16v-.91c0-2.28.42-3.78,1.26-4.48l.21.21.7-.14a1.63,1.63,0,0,1,.63.42.91.91,0,0,1,.28.63l.14.42v.28l.07.07a82.49,82.49,0,0,0,5,13.93q4,9.45,5,12.53c.47,1.64.84,3.08,1.12,4.34a34.55,34.55,0,0,0,3.15,9.17l.14-.21a380.28,380.28,0,0,0,1.61-38.15l-.07-.84a4.47,4.47,0,0,1-.07-.91c0-1,.33-1.47,1-1.47a1.23,1.23,0,0,1,1,.63,2.21,2.21,0,0,1,.49,1.4v4.69l-.35.56q0,6.66-.77,21.84t-1.47,16.52l-1.19.28v.07l-.07-.07Zm22.61.21a11,11,0,0,1-4.76-.77,4.86,4.86,0,0,1-2.31-2.94,41.52,41.52,0,0,1-1.26-7.07,99.42,99.42,0,0,1-.84-11c0-1.58.09-3.4.28-5.46l.42-4.41c.23-3.5.49-6.13.77-7.91a10.86,10.86,0,0,1,2-4.76,6.75,6.75,0,0,1,4.9-2.45,7,7,0,0,1,1.12-.07c1.44,0,2.17.33,2.17,1a1,1,0,0,1-.49.77,1.6,1.6,0,0,1-.91.28l-.7-.07-.63-.07a3.43,3.43,0,0,0-2.17.77,6,6,0,0,0-1.54,2.24,26.13,26.13,0,0,0-1.89,6.86q-.57,4.41-.7,7.7l-.07,5.39a45.08,45.08,0,0,0,.21,5.11,5.67,5.67,0,0,1,.63,2.38c.14,1,.25,2.45.35,4.27a19.43,19.43,0,0,0,.63,4.2,5.78,5.78,0,0,0,1.75,2.8,5.7,5.7,0,0,0,3.85,1.19,3,3,0,0,0,2.87-2.24,15.18,15.18,0,0,0,1.12-4.9c.14-2.1.21-3.87.21-5.32v-3.85a3.46,3.46,0,0,0-2.45-.7h-.56a3.74,3.74,0,0,1-.77.07q-1.68,0-1.68-.84c0-.79.56-1.19,1.68-1.19.79,0,1.44,0,2,.07l1.54.07a12.68,12.68,0,0,1,2.1.49c.56.19.84.45.84.77a11.53,11.53,0,0,1-.42,2.59,17.78,17.78,0,0,0-.35,2.66c0,2,0,3.74.14,5.32s.07,3.43.07,5.39Q1307.39,904.86,1303.82,904.85Zm22.74.84q-8.19,0-8.19-25.76v-2.45q0-19.53,5-19.53a3.38,3.38,0,0,1,1,.21,18.84,18.84,0,0,0,4.41,1c.88.19,1.77,1.1,2.66,2.73a20,20,0,0,1,2.17,6.65,46.49,46.49,0,0,1,.77,8.47l-.14.35c0,1.54,0,2.92.07,4.13l.07,4.2c0,2.38-.1,4.53-.28,6.44a37.8,37.8,0,0,1-1.4,7.49,13.22,13.22,0,0,1-1.47,3.15,7.15,7.15,0,0,1-2,2.1A4.43,4.43,0,0,1,1326.56,905.69Zm-.28-2q2.73,0,4.06-3.85a31.86,31.86,0,0,0,1.61-8c.18-2.8.28-5,.28-6.72,0-1.86-.14-4.62-.42-8.26-.24-4.06-.35-6.81-.35-8.26l-.28-.56.14-.35a8.44,8.44,0,0,0-1.75-5.32,5,5,0,0,0-4.13-2.24,3.52,3.52,0,0,0-3.85,3.08c-.1.7-.19,1.71-.28,3a38.7,38.7,0,0,1-.42,7.07c0,.7-.07,1.8-.21,3.29l-.14,3.29c0,1,0,1.94.07,2.73l.07,2.8a57.56,57.56,0,0,0,.56,7.56,44.46,44.46,0,0,0,1,5.32,11.57,11.57,0,0,0,1.61,3.71A3,3,0,0,0,1326.28,903.66Zm20.28.84a3.73,3.73,0,0,1-1.68-.42c-.56-.28-.84-.6-.84-1a3.41,3.41,0,0,1,.56-1.4,2.43,2.43,0,0,0,.49-1.4l-.21-6.16-.49-19.11-.14-8.47q-.07-7.77-.35-9.73a8.92,8.92,0,0,0-.56-1.75,6.28,6.28,0,0,1-.49-1.89q0-1.68,5.32-1.68h.35a8.68,8.68,0,0,1,6.16,2.45,16.48,16.48,0,0,1,3.64,5.95,39.19,39.19,0,0,1,1.68,7.21c.18,1.4.35,3.55.49,6.44v2.17a42,42,0,0,1-1.19,9.45,44.39,44.39,0,0,1-3.22,9.45,19.14,19.14,0,0,1-3.29,5,23.53,23.53,0,0,1-3.78,3.57A6.13,6.13,0,0,1,1346.56,904.5Zm1-3.57a14.41,14.41,0,0,0,4.62-3.85,22.05,22.05,0,0,0,3.22-5.67,35.09,35.09,0,0,0,1.75-5.88,61,61,0,0,0,1-6.23q.21-2.52.21-4.83,0-20.43-11.27-20.44c-1,0-1.47.26-1.47.77,0,1.64.09,3.57.28,5.81s.28,4.23.28,5.81q0,3.86.56,13.37.48,8.26.49,13.3v7.84Zm25.33,3.85c-1.73,0-2.59-.32-2.59-1q0-2.94.21-8.89l.14-8.82q0-4.89-.21-14.63-.29-8.61-.28-14.56c0-3.36.6-5,1.82-5a8.91,8.91,0,0,1,7.21,3,11.86,11.86,0,0,1,2.59,8q0,5.61-4.48,11.62a24.15,24.15,0,0,1,5.18,7.07,19.33,19.33,0,0,1,1.54,8.05,40.31,40.31,0,0,1-.21,4.62,14.18,14.18,0,0,1-.63,3.15,8.11,8.11,0,0,1-1.4,2.66,9.15,9.15,0,0,1-2.31,2.1,21,21,0,0,1-3.64,2l-1.4.35a4.17,4.17,0,0,1-1.4.35Zm-.07-30.66a4.25,4.25,0,0,0,2.94-1.33,10.17,10.17,0,0,0,2.31-3.5,22.76,22.76,0,0,0,1.4-4.2A19.53,19.53,0,0,0,1380,861a7.11,7.11,0,0,0-1.82-4.62,5.1,5.1,0,0,0-4-2.17c-1.22,0-1.82,1-1.82,3,0,3.13,0,5.93.14,8.4l.14,8.4Zm.56,27.93a7.27,7.27,0,0,0,4.34-1.4,9.85,9.85,0,0,0,3.15-3.85,11.29,11.29,0,0,0,1.19-5.11q0-12.53-6-15.05a7.94,7.94,0,0,0-1.82.35,6.19,6.19,0,0,1-1.61.42q.35,11.42.35,24.57h.21Z"/><path class="cls-3" d="M577.14,670.06a1.64,1.64,0,0,1-1.75-1.4l-.84-3.08q-2-6.51-2.87-11c-.38-1.63-.84-3.89-1.4-6.79-.66-3.36-1.26-6.09-1.82-8.19l-.7.42-.91.42L567,667.4v1.05c0,.94-.42,1.4-1.26,1.4a1.19,1.19,0,0,1-.91-.35,1.11,1.11,0,0,1-.35-.84v-1l.14-14.14.14-6.79q.27-12.24.28-20.86v-9q0-.63,1.26-.63a6.18,6.18,0,0,1,3.36,1,7,7,0,0,1,2.52,2.66,15.29,15.29,0,0,1,1.89,7.49,20.33,20.33,0,0,1-1.4,7c-.28.7-.63,1.52-1,2.45a6.92,6.92,0,0,1-1.12,1.82q1.47,5.4,4.27,16.59l3.29,12.6a3.14,3.14,0,0,1,.07.77,1.91,1.91,0,0,1-.28,1.05A.72.72,0,0,1,577.14,670.06Zm-10.36-31.92c.37,0,1-.44,1.89-1.33a13.55,13.55,0,0,0,1.89-2.24,11.85,11.85,0,0,0,.84-2.94,20.38,20.38,0,0,0,.35-3.5,19.07,19.07,0,0,0-1-5.88,6.77,6.77,0,0,0-1.47-2.8,2.89,2.89,0,0,0-2.17-1.12H567a.28.28,0,0,1-.21.07Zm19.47,32.13c-.84,0-1.31-.49-1.4-1.47v-.91a4.06,4.06,0,0,0,.07-.84l-.28-.28a8.08,8.08,0,0,0,.56-2.87q0-1.6-.21-4.62l-.14-4.62q0-3.49.21-10.5.29-6.23.28-10.57l-.14-4.2c-.09-1.26-.14-2.66-.14-4.2a1.85,1.85,0,0,1,.49-1.47,2.14,2.14,0,0,1,1.54-.49,1.51,1.51,0,0,1,1.12.42,16.18,16.18,0,0,0,2,.28,15.36,15.36,0,0,1,3,.63c.89.28,1.33.63,1.33,1.05s-.44.94-1.33,1.4a21.42,21.42,0,0,0-5.67-1.33l-.35.42c0,.42.07,1.43.07,3,0,2,0,3.81-.14,5.39s-.07,3.46-.07,5.46c0,1.31.33,2,1,2l1.12-.07a11,11,0,0,1,1.19-.07q2.73,0,2.73,1.26a2.46,2.46,0,0,1-.35,1.33,1.19,1.19,0,0,1-1,.49,2.15,2.15,0,0,1-1.61-.56l-2.24-.35h-.35l-.35.35v.21c.09.8.14,2.64.14,5.53,0,1.82,0,3.48-.07,5l-.07,5c0,1.82.07,3.69.21,5.6a3.05,3.05,0,0,0,.7,2.17,3.91,3.91,0,0,0,2.31.49l1.26-.07c.42,0,.89-.07,1.4-.07,1.35,0,2,.31,2,.91,0,.84-1,1.26-3.08,1.26Zm30.37-.28a2,2,0,0,1-1.33-.28q-.28-.21-.42-1.26c-.42-3.4-.68-5.53-.77-6.37l-.35-2.8a16.07,16.07,0,0,0-3.5-.35l-2.52-.14a22.26,22.26,0,0,0-2.45-.21.44.44,0,0,0-.49.35c0,.14,0,.21-.07.21l-.14,1.4a50.25,50.25,0,0,1-.77,5,12.32,12.32,0,0,1-.84,2.94c-.37.8-.72,1.19-1.05,1.19a1.56,1.56,0,0,1-.91-.35,1.14,1.14,0,0,1-.49-.84l.07-.21.07-.21q1.26-5,2.1-9.87l.84-4.34.84-5.32s.26-1.54.77-4.62q.35-1.89,1.26-6.09,1-4.75,1.19-6.51c.05-.14.14-1,.28-2.59.19-1.77.35-3.08.49-3.92a6.75,6.75,0,0,1,.42-2.1h.49a1.45,1.45,0,0,0,.49.07,1.71,1.71,0,0,0,1.26-.42,1.15,1.15,0,0,1,.84.35.83.83,0,0,1,.42.7,68.65,68.65,0,0,0,.49,7.7c.19,1.5.33,2.73.42,3.71q.76,9,3.92,33.88v.21A1.16,1.16,0,0,1,616.62,670Zm-3.22-12.6q-.71-10.08-2.66-29.75L607,646.33a73.85,73.85,0,0,0-1.61,10.15c0,.24.89.45,2.66.63a44.51,44.51,0,0,0,4.69.28ZM630,669.85a7.22,7.22,0,0,1-2.31-1.19,8.08,8.08,0,0,1-1.75-2.31,20.06,20.06,0,0,1-1.75-8.05c-.09-1.58-.14-3-.14-4.2v-8c0-3,.1-6,.28-8.82a44.1,44.1,0,0,1,.63-5.32,22.72,22.72,0,0,1,1.33-4.34,8,8,0,0,1,2.17-3.15,7.76,7.76,0,0,1,1.89-1,18.5,18.5,0,0,0,1.75-.77h3a.28.28,0,0,0,.21.07l.35.07.28.21c.14.14.21.24.21.28a1,1,0,0,1,.07.42l-.91,1.05h-2.94a3.24,3.24,0,0,0-2.45,1.33,8.85,8.85,0,0,0-1.61,3.22,27.63,27.63,0,0,0-.91,4.13c-.23,1.59-.37,3-.42,4.13-.09,1.5-.14,2.52-.14,3.08l-.14.35c0,2.62,0,5-.14,7.07l-.14,7.07a35.4,35.4,0,0,0,.42,5.67,10.45,10.45,0,0,0,2,5,5.7,5.7,0,0,0,5,2.24,2.51,2.51,0,0,0,1.75-.63c.7,0,1.05.26,1.05.77,0,.33-.3.7-.91,1.12a6,6,0,0,1-1.75,1.05h-2.31Zm19.4-1.47-.07-2.59c0-.74-.07-1.58-.07-2.52a9.9,9.9,0,0,1,.07-1.19l.07-1.26a6.22,6.22,0,0,0-.28-1.68q0-4.68-.7-17.43-.69-12.32-.77-16.73a50.73,50.73,0,0,1-5.81-.21c-.93-.23-1.4-.6-1.4-1.12a1.34,1.34,0,0,1,1.33-.77c1.4,0,3.43.1,6.09.28,2.43.24,4.46.35,6.09.35h1.47l1.47-.07c.84,0,1.26.31,1.26.91a.8.8,0,0,1-.49.7,2.34,2.34,0,0,1-1.05.21c-.93,0-1.91,0-2.94-.14l-3-.14c-.18,0-.28.07-.28.21a7.35,7.35,0,0,0-.07,1.33q0,6.79.84,20.58.78,14.28.77,20.51a1.15,1.15,0,0,1-.63.91,1.84,1.84,0,0,1-1.12.42Z"/><path class="cls-3" d="M831.14,670.06a1.64,1.64,0,0,1-1.75-1.4l-.84-3.08q-2-6.51-2.87-11c-.38-1.63-.84-3.89-1.4-6.79-.66-3.36-1.26-6.09-1.82-8.19l-.7.42-.91.42L821,667.4v1.05c0,.94-.42,1.4-1.26,1.4a1.19,1.19,0,0,1-.91-.35,1.11,1.11,0,0,1-.35-.84v-1l.14-14.14.14-6.79q.27-12.24.28-20.86v-9q0-.63,1.26-.63a6.18,6.18,0,0,1,3.36,1,7,7,0,0,1,2.52,2.66,15.29,15.29,0,0,1,1.89,7.49,20.33,20.33,0,0,1-1.4,7c-.28.7-.63,1.52-1,2.45a6.92,6.92,0,0,1-1.12,1.82q1.47,5.4,4.27,16.59l3.29,12.6a3.14,3.14,0,0,1,.07.77,1.91,1.91,0,0,1-.28,1.05A.72.72,0,0,1,831.14,670.06Zm-10.36-31.92c.37,0,1-.44,1.89-1.33a13.55,13.55,0,0,0,1.89-2.24,11.85,11.85,0,0,0,.84-2.94,20.38,20.38,0,0,0,.35-3.5,19.07,19.07,0,0,0-1-5.88,6.77,6.77,0,0,0-1.47-2.8,2.89,2.89,0,0,0-2.17-1.12H821a.28.28,0,0,1-.21.07Zm19.47,32.13c-.84,0-1.31-.49-1.4-1.47v-.91a4.06,4.06,0,0,0,.07-.84l-.28-.28a8.08,8.08,0,0,0,.56-2.87q0-1.6-.21-4.62l-.14-4.62q0-3.49.21-10.5.29-6.23.28-10.57l-.14-4.2c-.09-1.26-.14-2.66-.14-4.2a1.85,1.85,0,0,1,.49-1.47,2.14,2.14,0,0,1,1.54-.49,1.51,1.51,0,0,1,1.12.42,16.18,16.18,0,0,0,2,.28,15.36,15.36,0,0,1,3,.63c.89.28,1.33.63,1.33,1.05s-.44.94-1.33,1.4a21.42,21.42,0,0,0-5.67-1.33l-.35.42c0,.42.07,1.43.07,3,0,2,0,3.81-.14,5.39s-.07,3.46-.07,5.46c0,1.31.33,2,1,2l1.12-.07a11,11,0,0,1,1.19-.07q2.73,0,2.73,1.26a2.46,2.46,0,0,1-.35,1.33,1.19,1.19,0,0,1-1,.49,2.15,2.15,0,0,1-1.61-.56l-2.24-.35h-.35l-.35.35v.21c.09.8.14,2.64.14,5.53,0,1.82,0,3.48-.07,5l-.07,5c0,1.82.07,3.69.21,5.6a3.05,3.05,0,0,0,.7,2.17,3.91,3.91,0,0,0,2.31.49l1.26-.07c.42,0,.89-.07,1.4-.07,1.35,0,2,.31,2,.91,0,.84-1,1.26-3.08,1.26Zm17.91-.56c-.37,0-.56-.63-.56-1.89q-.29-4.83-.28-12.18,0-4.62.07-8.26l.07-8.26q0-5.31-.28-13.16a1.79,1.79,0,0,1-.63-1.4,1.38,1.38,0,0,1,.56-1,1.82,1.82,0,0,1,1.12-.56,1.42,1.42,0,0,1,1,.56l.77.63a6.84,6.84,0,0,0,1.61.42,8.65,8.65,0,0,1,1.68.42,15.84,15.84,0,0,1,2.8,2.17,20.13,20.13,0,0,0,2.31,2.1l-.07.14a6.88,6.88,0,0,0,1,1.82,18.55,18.55,0,0,1,1.26,2,25.79,25.79,0,0,1,1.12,8.33,15.27,15.27,0,0,1-.07,1.61v2.24l-.07.7a4.39,4.39,0,0,0,.42,2.1q-.42,2.25-1.05,8.47a31.18,31.18,0,0,1-.7,3.85,14.44,14.44,0,0,1-1.19,3.36,14.6,14.6,0,0,1-6.09,5.81Zm4.62-2a9.72,9.72,0,0,1,.91-.91l.49-.35.56-.49q4.9-4.41,4.9-16.8V647.8a9,9,0,0,1-.07-1.19l-.28-7.07a20.77,20.77,0,0,0-2.45-8.4,9.33,9.33,0,0,0-2.87-3.5,5.86,5.86,0,0,0-3.71-1.4q-.84,0-.84,13,0,15,.84,26.11l-.07,1.33.28.14.14.91Zm25.74,2.73a4.86,4.86,0,0,1-2.45-.77A7.34,7.34,0,0,1,884,668c-.66-.84-1.17-3.19-1.54-7.07s-.61-8.3-.7-13.3c0-1.12,0-2-.07-2.52q-.15-17.57-.56-20.79l.42-1c1.07.14,1.61,1.43,1.61,3.85l.21,18.55c0,1.31.11,3.78.35,7.42q.42,4.9.42,7.42,0,8,5.25,8,3.21,0,4.13-14.7l.07-1.4q.48-19.24.49-28.49l-.07-.63a2.38,2.38,0,0,1-.07-.63c0-.51.39-.77,1.19-.77q.84,0,1,.42a14.88,14.88,0,0,1,.14,2.45,38.57,38.57,0,0,1-.42,7.14l.07.42a28,28,0,0,1-.21,2.8l-.14,2.8v.7a3.36,3.36,0,0,1,.07.7c-.1,1.12-.14,2.2-.14,3.22a11.5,11.5,0,0,0-.07,1.54q-.15,6.66-.28,11.55a35.08,35.08,0,0,1-1.68,10.29Q891.95,670.42,888.52,670.41Zm18.35-.84c-.89,0-1.33-.28-1.33-.84a48,48,0,0,1,2-10.92,47.15,47.15,0,0,0,2-11q0-2-1.89-10.64t-2.52-9.45v-.28a.17.17,0,0,0,.07-.14v-.07a2,2,0,0,0-.35-1l-.28-.84c0-.18.14-.35.42-.49a2.23,2.23,0,0,1,.84-.21c.37,0,.68.28.91.84a5.86,5.86,0,0,1,.56,1.75l.07,1.61a51.21,51.21,0,0,1,1.75,7q.91,4.62,1.47,6.51a27.06,27.06,0,0,0,1-5.46q.71-4.62.91-6.93c.28-3.78.58-5.71.91-5.81l.56-.14.56-.07.63.84Q914,625.48,914,630v.42l.07.42-.07.07c-.19,1.68-.65,4.25-1.4,7.7a47.14,47.14,0,0,0-1.19,8.68,90.17,90.17,0,0,0,1.82,9.31c1.21,5.46,2,8.66,2.38,9.59a2.37,2.37,0,0,0,.35.56,3.33,3.33,0,0,1,.49,1.47.86.86,0,0,1-.35.7.94.94,0,0,1-.7.28,2,2,0,0,1-.91-.21l-1.26-5.32q-1.68-6.3-2.66-11.69-.84,1.26-1.54,7.28a44.51,44.51,0,0,1-1.26,7.7,2,2,0,0,1,.14.84,2.72,2.72,0,0,1-.28,1.26A.77.77,0,0,1,906.87,669.57Z"/><path class="cls-3" d="M1572.11,905.9a10,10,0,0,1-2-.14,4.31,4.31,0,0,1-1.4-.42,2.8,2.8,0,0,1-1.26-1.19c0-.56.26-.84.77-.84a5.56,5.56,0,0,1,2,.49,4.36,4.36,0,0,0,1.89.56,3.88,3.88,0,0,0,2.8-1.26,8,8,0,0,0,2-3.29,21.77,21.77,0,0,0,1.4-7.07,25.82,25.82,0,0,0-1-6.93,34.13,34.13,0,0,0-2.59-6.58c-.23-.51-.63-1.28-1.19-2.31-1.17-2.33-2-4.15-2.66-5.46a30.77,30.77,0,0,1-1.61-4.34,22.84,22.84,0,0,1-1-6.79,13.76,13.76,0,0,1,.7-4.41,9.48,9.48,0,0,1,2.38-3.71,5.66,5.66,0,0,1,3.92-1.61,4.27,4.27,0,0,1,2,.7c.79.42,1.19.84,1.19,1.26s-.14.56-.42.56a2.63,2.63,0,0,1-1.12-.35,2.51,2.51,0,0,0-1.19-.35,4.09,4.09,0,0,0-2.87,1.19,7.26,7.26,0,0,0-1.75,2.94,10.07,10.07,0,0,0-.49,3.22,24.28,24.28,0,0,0,.7,5.67,28.58,28.58,0,0,0,1.89,5.39l2.45,5.11.7,1.47q1.47,3,2.24,5a25.69,25.69,0,0,1,1.4,4.41,27.92,27.92,0,0,1,.77,6.3,18.37,18.37,0,0,1-2.1,8.26,9.08,9.08,0,0,1-2.8,3.29A6.45,6.45,0,0,1,1572.11,905.9Zm33.58,8.12a3.35,3.35,0,0,1-1.12-.42,3,3,0,0,0-1-.49,4,4,0,0,1-2-2,15.64,15.64,0,0,1-1.12-4.27,18.1,18.1,0,0,0-.7-3.36,9.7,9.7,0,0,1-3.57-.63,8,8,0,0,1-2.73-1.89,13.92,13.92,0,0,1-3-6,18.73,18.73,0,0,1-.63-3.43,35.1,35.1,0,0,1-.21-3.57c-.05-.6-.07-1.65-.07-3.15v-3.15c0-1-.07-2.12-.07-3.43q0-4.2.21-9.52a78.08,78.08,0,0,1,.91-9,19.91,19.91,0,0,1,2.17-6.58,4.45,4.45,0,0,1,4-2.66,7.46,7.46,0,0,1,4.83,2,6.93,6.93,0,0,1,2.8,4.34,160.74,160.74,0,0,1,2,27.23q0,12.26-4.34,18.48a4.32,4.32,0,0,0,.35,1.33l.35,1,.21,1.89c.14,1.26.26,2.15.35,2.66a4.73,4.73,0,0,0,.77,1.54,2.06,2.06,0,0,0,1.75.84h.28c1.49,0,2.24.31,2.24.91C1608.35,913.58,1607.46,914,1605.69,914ZM1599,901.63c1.73,0,3-2.19,3.71-6.58s1.19-11.52,1.19-21v-1.82l-.07-4.41-.07-1.89a23.51,23.51,0,0,0-.35-3.22c-.19-1.07-.37-2.14-.56-3.22a12.74,12.74,0,0,0-2.17-5,4.63,4.63,0,0,0-4.06-2c-.75,0-1.4.52-2,1.54q-1.4,2.46-2.31,9.8a112.36,112.36,0,0,0-.77,11.9c0,1-.07,2.48-.07,4.34v4.2a39.6,39.6,0,0,0,.84,8,25.18,25.18,0,0,0,1.26,4.76,10.43,10.43,0,0,0,2.17,3.22A4.4,4.4,0,0,0,1599,901.63Zm19.33,3.15a1.05,1.05,0,0,1-.84-.42,1.83,1.83,0,0,1-.28-1.05v-2.8q0-4.41-.35-9.94-.29-5.88-.28-9.94,0-3.78-.35-14.63-.42-9.79-.42-14.63a.66.66,0,0,1,.28-.56,1.24,1.24,0,0,1,.77-.28q1.26,0,1.26,1.05,0,13,.21,19.39l.35,12.53q0,2.94.42,9.59l.42,8.68a.19.19,0,0,0,.21.21,2.61,2.61,0,0,0,.91.07H1625c.61,0,.91.42.91,1.26a2.15,2.15,0,0,1-.21,1,.68.68,0,0,1-.63.35l-.49.07H1624C1623.06,904.76,1621.17,904.78,1618.37,904.78Z"/><path class="cls-4" d="M1232.1,671.13a1.19,1.19,0,0,1-.91-.49,2.48,2.48,0,0,1-.56-1.12l-.21-1.33a6.31,6.31,0,0,1-.21-1.05q-7.85-28.07-8.61-31.5-.63-2.52-2.87-14c0,.28-.07,1.24-.07,2.87v25.34l.14,10,.14,9.94-.42.56h-1.61l-.21-.56a18,18,0,0,0,.14-2.8l-.07-12.18-.14-12.18V626.82q-.08-2.94-.07-6.58a4.59,4.59,0,0,0-.07-.77v-.7a1.26,1.26,0,0,1,.42-1.12,2.53,2.53,0,0,1,1.47-.35,1.46,1.46,0,0,1,.91.42,1.87,1.87,0,0,1,.7.91l1.47,6.86q1,4.9,1.68,7.42,1.47,5.82,5,19a136.43,136.43,0,0,0,3.64,13.3,9.77,9.77,0,0,0,.42-3.36q0-6.78.14-12.18l.14-12.18c0-2,0-3.82.07-5.46v-5.39l-.07-9.87a1.41,1.41,0,0,1,1.47-1c.37,0,.56.68.56,2a13.86,13.86,0,0,1-.07,1.47,4.08,4.08,0,0,1-.07.84v4.76q0,9.32-.07,16.59t-.07,16.52c0,1.17-.07,3-.21,5.53l-.14,5.53C1233.92,670.46,1233.31,671.13,1232.1,671.13Zm19.87.56q-8.19,0-8.19-25.76v-2.45q0-19.53,5-19.53a3.38,3.38,0,0,1,1,.21,18.84,18.84,0,0,0,4.41,1c.88.19,1.77,1.1,2.66,2.73a20,20,0,0,1,2.17,6.65,46.49,46.49,0,0,1,.77,8.47l-.14.35c0,1.54,0,2.92.07,4.13l.07,4.2c0,2.38-.1,4.53-.28,6.44a37.8,37.8,0,0,1-1.4,7.49,13.22,13.22,0,0,1-1.47,3.15,7.15,7.15,0,0,1-2,2.1A4.43,4.43,0,0,1,1252,671.69Zm-.28-2q2.73,0,4.06-3.85a31.86,31.86,0,0,0,1.61-8c.18-2.8.28-5,.28-6.72,0-1.86-.14-4.62-.42-8.26-.24-4.06-.35-6.81-.35-8.26l-.28-.56.14-.35a8.44,8.44,0,0,0-1.75-5.32,5,5,0,0,0-4.13-2.24,3.52,3.52,0,0,0-3.85,3.08c-.1.7-.19,1.71-.28,3a38.7,38.7,0,0,1-.42,7.07c0,.7-.07,1.8-.21,3.29l-.14,3.29c0,1,0,1.94.07,2.73l.07,2.8a57.56,57.56,0,0,0,.56,7.56,44.46,44.46,0,0,0,1,5.32,11.57,11.57,0,0,0,1.61,3.71A3,3,0,0,0,1251.69,669.66Zm18.53,1.05c-.38,0-.56-.63-.56-1.89q-.29-4.83-.28-12.18,0-4.62.07-8.26l.07-8.26q0-5.31-.28-13.16a1.79,1.79,0,0,1-.63-1.4,1.35,1.35,0,0,1,.56-1,1.82,1.82,0,0,1,1.12-.56,1.42,1.42,0,0,1,1,.56l.77.63a6.7,6.7,0,0,0,1.61.42,8.65,8.65,0,0,1,1.68.42,15.84,15.84,0,0,1,2.8,2.17,20.13,20.13,0,0,0,2.31,2.1l-.07.14a6.88,6.88,0,0,0,1,1.82,18.55,18.55,0,0,1,1.26,2,25.79,25.79,0,0,1,1.12,8.33,15.27,15.27,0,0,1-.07,1.61v2.24l-.07.7a4.39,4.39,0,0,0,.42,2.1q-.42,2.25-1.05,8.47a31.18,31.18,0,0,1-.7,3.85,14.44,14.44,0,0,1-1.19,3.36,14.6,14.6,0,0,1-6.09,5.81Zm4.62-2a8.64,8.64,0,0,1,.91-.91l.49-.35.56-.49q4.9-4.41,4.9-16.8V648.8a9,9,0,0,1-.07-1.19l-.28-7.07a20.77,20.77,0,0,0-2.45-8.4,9.33,9.33,0,0,0-2.87-3.5,5.89,5.89,0,0,0-3.71-1.4q-.84,0-.84,13,0,15,.84,26.11l-.07,1.33.28.14.14.91Zm19.72,2.59c-.84,0-1.31-.49-1.4-1.47v-.91a4.89,4.89,0,0,0,.07-.84l-.28-.28a8.08,8.08,0,0,0,.56-2.87q0-1.6-.21-4.62l-.14-4.62q0-3.49.21-10.5c.18-4.15.28-7.67.28-10.57l-.14-4.2c-.1-1.26-.14-2.66-.14-4.2a1.85,1.85,0,0,1,.49-1.47,2.12,2.12,0,0,1,1.54-.49,1.52,1.52,0,0,1,1.12.42,16.18,16.18,0,0,0,2,.28,15.52,15.52,0,0,1,3,.63c.88.28,1.33.63,1.33,1.05s-.45.94-1.33,1.4a21.42,21.42,0,0,0-5.67-1.33l-.35.42c0,.42.07,1.43.07,3,0,2,0,3.81-.14,5.39s-.07,3.46-.07,5.46c0,1.31.32,2,1,2l1.12-.07a11,11,0,0,1,1.19-.07q2.73,0,2.73,1.26a2.46,2.46,0,0,1-.35,1.33,1.21,1.21,0,0,1-1,.49,2.15,2.15,0,0,1-1.61-.56l-2.24-.35h-.35l-.35.35v.21c.09.8.14,2.64.14,5.53,0,1.82,0,3.48-.07,5l-.07,5c0,1.82.07,3.69.21,5.6a3,3,0,0,0,.7,2.17,3.91,3.91,0,0,0,2.31.49l1.26-.07c.42,0,.88-.07,1.4-.07,1.35,0,2,.31,2,.91,0,.84-1,1.26-3.08,1.26Zm16.51-.63a1.52,1.52,0,0,1-1.12-.49,1.94,1.94,0,0,1-.42-1.19,1.74,1.74,0,0,1,.56-1.26,1.65,1.65,0,0,1,1.26-.63,1.57,1.57,0,0,1,1.12.63,1.7,1.7,0,0,1,.56,1.19C1313,670.06,1312.37,670.64,1311.07,670.64Zm5.91,6.72v-.14l-.07-.14c0-.14.4-.46,1.19-1s1.59-1.12,2.52-1.68a10.93,10.93,0,0,0,1.61-1.19,8.29,8.29,0,0,0,1.61-3.71,21.21,21.21,0,0,0,.63-5q0-7.49-.28-18.62-.35-10.35-.35-18.55l-.42-.77c-.33-.09-.89-.21-1.68-.35a6.17,6.17,0,0,1-2.38-.56c-.7-.23-1-.53-1-.91,0-.18.19-.37.56-.56a2.28,2.28,0,0,1,.91-.28,28.86,28.86,0,0,1,4.2.49,40.49,40.49,0,0,1,5.18,1.19q2.31.71,2.31,1.26a.86.86,0,0,1-.35.7,1.26,1.26,0,0,1-.77.21,9.15,9.15,0,0,1-1.89-.35,6.15,6.15,0,0,0-1.89-.35c-.42,0-.63.47-.63,1.4q0,3.86.35,14.56.35,8.06.35,14.49v7.7a7.54,7.54,0,0,0-.42,2.94,16.39,16.39,0,0,1-1.68,6.65,8.12,8.12,0,0,1-2.38,3,4.61,4.61,0,0,1-3.08,1.19h-.49Zm22.07-6.16a3.54,3.54,0,0,1-1.47-.63,1.39,1.39,0,0,1-.77-1.05l.35-.56a8.42,8.42,0,0,1,1.26.21,3.47,3.47,0,0,0,4-.91,8.33,8.33,0,0,0,1.82-3.22,26.52,26.52,0,0,0,1-6.86,22.23,22.23,0,0,0-2.94-10.36c-1.22-2.14-2.15-3.85-2.8-5.11a26,26,0,0,1-1.75-4.34,18.12,18.12,0,0,1-.91-5.53,17.7,17.7,0,0,1,1.26-6,6.56,6.56,0,0,1,1.75-2.59,3.75,3.75,0,0,1,2.52-1,2.89,2.89,0,0,1,1.75.63,1.74,1.74,0,0,1,.91,1.33c0,.38-.31.56-.91.56a1.64,1.64,0,0,1-.7-.21,1.75,1.75,0,0,0-.77-.21,2.61,2.61,0,0,0-1.89.84,5.28,5.28,0,0,0-1.26,2.17,15.58,15.58,0,0,0-.84,4.76,10.88,10.88,0,0,0,.35,2.73,5.72,5.72,0,0,0,.14.7,2.54,2.54,0,0,1,.07.42l.42,1.4.35,1.26.56,1.26c.14.33.28.63.42.91s.35.47.49.7l.84,1.47c.18.28.58,1,1.19,2a34.91,34.91,0,0,1,1.68,3.29,17.44,17.44,0,0,1,1,2.8,28.88,28.88,0,0,1,.63,3.08A32.5,32.5,0,0,1,1347,659a21.42,21.42,0,0,1-.91,6.3,8.87,8.87,0,0,1-3.64,4.9,5.67,5.67,0,0,1-3.08.84Zm5.6-45.64a.07.07,0,0,0-.07-.07v.07Z"/><path class="cls-4" d="M633.86,342.06a.89.89,0,0,1-.77-.28,1.37,1.37,0,0,1-.21-.84v-.84a3.67,3.67,0,0,0,.07-.77q0-9.58-.7-24.29H629.1a32.59,32.59,0,0,0-4.9.21q0,5.12.56,12.67.63,8.61.63,12.67c0,.7-.26,1.05-.77,1.05-.7,0-1-.32-1-1q-.08-3.42-.35-9.45t-.42-10.29q-1.34-16.65-1.33-31.92c0-.46.3-.7.91-.7a.76.76,0,0,1,.63.28.63.63,0,0,1,.21.63v5.18c0,1.26.11,3.64.35,7.14l.14,2.38c.09,2.62.14,4.18.14,4.69V312c0,1.22.11,1.82.35,1.82l2.66-.14,1.4-.14c2.33-.18,3.66-.28,4-.28l.07-.14q0-3.07-.35-11.83t-.35-11.9c0-.56.32-.84,1-.84a1.37,1.37,0,0,1,.84.28.69.69,0,0,1,.35.63q0,13.65.49,30t.49,20.16v1a1.76,1.76,0,0,1-.28,1A.67.67,0,0,1,633.86,342.06Zm17.65-.28a1.19,1.19,0,0,1-1-.49,2.38,2.38,0,0,1-.35-1.33V327.5L650,316.3q-.21-7.49-.21-11.2l.07-2v-4.55q0-7.56-.14-7.56h-7.91a2,2,0,0,1-1-.28.87.87,0,0,1-.42-.77,1.09,1.09,0,0,1,.21-.77,2.41,2.41,0,0,1,1.12-.35,14.14,14.14,0,0,1,2.8-.21h7l7.7-.07a1.66,1.66,0,0,1,1.12.28,1.11,1.11,0,0,1,.35.91c0,.7-.45,1.05-1.33,1.05h-6.23l-.63.07.07,4.06v39.69l.07,5.18v.14a6.81,6.81,0,0,1-.07,1,1.06,1.06,0,0,1-.28.56A.75.75,0,0,1,651.51,341.78Zm36.7,1.19a1.43,1.43,0,0,1-1.26-.49,2.77,2.77,0,0,1-.28-1.47v-6.37q0-4.75-.28-11.55c0-.84-.07-2-.07-3.64q-.21-5-.21-7.84l.07-3.92c.05-1.16.07-2.47.07-3.92,0-1.26,0-2.38-.07-3.36,0-.7-.09-1.28-.14-1.75a6.78,6.78,0,0,0-.07-1.12l-.14.49q-.76,5.12-2.31,13.44T681,324.84q-1,4.49-1.26,6.37a2.76,2.76,0,0,1-.63,1.47,1.14,1.14,0,0,1-2,0,3,3,0,0,1-.49-1.61q-.49-3.36-3.57-18.76t-3.43-16q-.21,6.3-.21,14.14,0,6.17.07,11.13t.07,11.13c0,.7.07,1.8.21,3.29l.14,3.36a2.54,2.54,0,0,1-.49,1.82c-1.35,0-2-1.21-2-3.64V325.89l.07-7.07q.07-3.15.07-7.14,0-4.62.07-8.26l.14-8.33v-6.16a.87.87,0,0,1,.28-.63,1.16,1.16,0,0,1,.7-.28.78.78,0,0,1,.77.56q.63,2.1,3.15,12.39t3.78,15.89q.63,3.3,2,11.62l.49-2.73c.14-.84.35-2,.63-3.5q.84-5.46,1-6.16l3.22-17.15.63-3.64.77-3.92.35-2.1a1.75,1.75,0,0,1,.42-1,1,1,0,0,1,.77-.42.82.82,0,0,1,.63.35,1.52,1.52,0,0,1,.28,1v6.93q0,5.25.63,15.89.49,9.81.49,15.75,0,1.89.21,5.81c.09,3.36.14,5.7.14,7a6.16,6.16,0,0,1-.21,2A.88.88,0,0,1,688.21,343Zm13.44-1.19a1.05,1.05,0,0,1-.84-.42,1.83,1.83,0,0,1-.28-1.05v-2.8q0-4.41-.35-9.94-.28-5.88-.28-9.94,0-3.78-.35-14.63-.42-9.79-.42-14.63a.66.66,0,0,1,.28-.56,1.24,1.24,0,0,1,.77-.28q1.26,0,1.26,1.05,0,13,.21,19.39L702,320.5q0,2.94.42,9.59l.42,8.68a.19.19,0,0,0,.21.21,2.61,2.61,0,0,0,.91.07h4.34c.61,0,.91.42.91,1.26a2.15,2.15,0,0,1-.21,1,.68.68,0,0,1-.63.35l-.49.07h-.56C706.34,341.76,704.45,341.78,701.65,341.78Z"/><path class="cls-4" d="M280.83,453.5c-.75,0-1.12-.6-1.12-1.82V446.5l-.21-4.27q-.63-11.48-.63-16.87,0-2.94-.77-18.34c-.1-2.24-.17-3.66-.21-4.27s-.07-1-.07-1.05v-.49c0-.32.23-.53.7-.63a11.86,11.86,0,0,1,2.45-.14h3.5a.93.93,0,0,1,.84.49,2.06,2.06,0,0,1,.28,1.12c0,.47-.42.7-1.26.7l-1.61-.07H280.9c-.38,0-.61.07-.7.21a2.52,2.52,0,0,0-.14,1.12c0,.94.16,4.34.49,10.22s.49,9.31.49,10.29a9.82,9.82,0,0,0,2.38-.42,10.48,10.48,0,0,1,2.38-.42.83.83,0,0,1,.7.49,1.63,1.63,0,0,1,.35.91c0,.52-.38.87-1.12,1.05a28.54,28.54,0,0,1-3.22.35q-1.47.21-1.47.84,0,3.15.7,11.76.63,7.85.63,11.83l-.21.35a2.34,2.34,0,0,1,.21.91C282.37,453.06,281.85,453.5,280.83,453.5Zm19-.14c-1.08,0-1.71-.23-1.89-.7a2,2,0,0,0-.56.07h-.56c-1,0-1.68-.23-2-.7a1,1,0,0,1,.56-.84l.35-.35h2l.28-.28.14-.63.07-.84c0-2.84-.07-5.39-.21-7.63l-.14-2.59-.14-5.11q0-2.73.21-8.19l.14-8.12a71.33,71.33,0,0,0-.35-8.12,7.37,7.37,0,0,0-2.1-.21l-.77.07a5.25,5.25,0,0,1-.91.07c-.89,0-1.33-.39-1.33-1.19,0-.18.21-.37.63-.56a2.84,2.84,0,0,1,1.05-.28,52.82,52.82,0,0,1,5.32.28,11.55,11.55,0,0,1,3.22.63c.84.28,1.26.68,1.26,1.19a1.64,1.64,0,0,1-.21.56l-1.61.14a3.37,3.37,0,0,0-2-.42l-.35.21a17.78,17.78,0,0,1,.21,3.71c0,3.08,0,5.86-.07,8.33l-.14,8.33c0,2.1.09,4.65.28,7.63q.21,5.12.21,7.7v.91a8.77,8.77,0,0,0-.07,1.26,5.13,5.13,0,0,0,.21,2l-.07.14c0,.47.51.7,1.54.7a6.19,6.19,0,0,0,1.05-.07h1.05c1.35,0,2,.33,2,1a1.42,1.42,0,0,1-.42,1.05,1.67,1.67,0,0,1-1.12.35,3.81,3.81,0,0,1-1.12-.14,11.2,11.2,0,0,0-1.19-.07,3.78,3.78,0,0,0-1.26.35A3.22,3.22,0,0,1,299.79,453.36Zm21.09.49a11,11,0,0,1-4.76-.77,4.86,4.86,0,0,1-2.31-2.94,41.52,41.52,0,0,1-1.26-7.07,99.42,99.42,0,0,1-.84-11c0-1.58.09-3.4.28-5.46l.42-4.41c.23-3.5.49-6.13.77-7.91a10.86,10.86,0,0,1,2-4.76,6.75,6.75,0,0,1,4.9-2.45,7,7,0,0,1,1.12-.07c1.44,0,2.17.33,2.17,1a1,1,0,0,1-.49.77,1.6,1.6,0,0,1-.91.28l-.7-.07-.63-.07a3.43,3.43,0,0,0-2.17.77,6,6,0,0,0-1.54,2.24,26.13,26.13,0,0,0-1.89,6.86q-.57,4.41-.7,7.7l-.07,5.39a45.08,45.08,0,0,0,.21,5.11,5.67,5.67,0,0,1,.63,2.38c.14,1,.25,2.45.35,4.27a19.43,19.43,0,0,0,.63,4.2,5.78,5.78,0,0,0,1.75,2.8,5.7,5.7,0,0,0,3.85,1.19,3,3,0,0,0,2.87-2.24,15.18,15.18,0,0,0,1.12-4.9c.14-2.1.21-3.87.21-5.32v-3.85a3.46,3.46,0,0,0-2.45-.7h-.56a3.74,3.74,0,0,1-.77.07q-1.68,0-1.68-.84c0-.79.56-1.19,1.68-1.19.79,0,1.44,0,2,.07l1.54.07a12.68,12.68,0,0,1,2.1.49c.56.19.84.45.84.77a11.53,11.53,0,0,1-.42,2.59,17.78,17.78,0,0,0-.35,2.66c0,2,0,3.74.14,5.32s.07,3.43.07,5.39Q324.45,453.86,320.88,453.85ZM364,457c-.94,0-1.4-1.49-1.4-4.48V447.9q0-10.08-.42-15.75l-.21-2.59a19.29,19.29,0,0,1-.28-3.08c0-1.58,0-3,.14-4.34l.14-4.34a15,15,0,0,0-.28-3.29q-1.41,1-8.47,29.47l-.07,1a14.89,14.89,0,0,1-.56,2.8A2.59,2.59,0,0,1,352,449a1.08,1.08,0,0,1-.84.42,2,2,0,0,1-1.61-.56,2.58,2.58,0,0,1-.49-1.75c0-1.26-.61-4.52-1.82-9.8s-2.45-10.33-3.85-15.19-2.29-7.53-2.8-8.05q-.07,2.46-.56,11.55-1,16.11-1,25.34l.07,2.8a1.34,1.34,0,0,1-1.47.91,1.42,1.42,0,0,1-.7-.42c-.33-.23-.49-.42-.49-.56q0-6.3,1.12-22.12,1.05-14.7,1.05-22a2,2,0,0,0-.14-.7,1.61,1.61,0,0,1-.21-.63c0-.7.6-1,1.82-1a1.25,1.25,0,0,1,1.4,1,12.63,12.63,0,0,1,.28,2.1l.07.84a29,29,0,0,0,2,5.6,53.85,53.85,0,0,1,2,5.25c.28,1.12.53,2,.77,2.73q1.11,4.06,1.47,6l.91,1.82c.14.7.42,1.85.84,3.43.42,1.78.72,3.22.91,4.34a20.42,20.42,0,0,1,.28,3.22q.76-1.19,4.34-14.28t4.27-16.8a.87.87,0,0,0,.07-.35c0-.18.09-.42.14-.7a26.87,26.87,0,0,1,.63-2.73c.37-.93.93-1.4,1.68-1.4a2.11,2.11,0,0,1,1.12.42q.63.42.63.84,0,29.19.91,30.87v3.64c-.05,1.08-.07,2.31-.07,3.71a33.69,33.69,0,0,0,.49,6.72.33.33,0,0,1,.07.21c0,.1.09.21.14.35a3,3,0,0,1,.07.63,2.88,2.88,0,0,1-.49,1.54A1.21,1.21,0,0,1,364,457Zm-2.31-42.91h-.07l-.14.07.21.07ZM389.84,454a2,2,0,0,1-1.33-.28,2.19,2.19,0,0,1-.42-1.26c-.42-3.4-.67-5.53-.77-6.37l-.35-2.8a16,16,0,0,0-3.5-.35l-2.52-.14a22.07,22.07,0,0,0-2.45-.21.44.44,0,0,0-.49.35c0,.14,0,.21-.07.21l-.14,1.4a47.35,47.35,0,0,1-.77,5,12.32,12.32,0,0,1-.84,2.94c-.37.8-.72,1.19-1.05,1.19a1.56,1.56,0,0,1-.91-.35,1.18,1.18,0,0,1-.49-.84l.07-.21.07-.21q1.26-5,2.1-9.87l.84-4.34.84-5.32s.26-1.54.77-4.62q.36-1.89,1.26-6.09c.66-3.17,1.05-5.34,1.19-6.51.05-.14.14-1,.28-2.59.19-1.77.35-3.08.49-3.92a6.75,6.75,0,0,1,.42-2.1h.49a1.49,1.49,0,0,0,.49.07,1.71,1.71,0,0,0,1.26-.42,1.15,1.15,0,0,1,.84.35.83.83,0,0,1,.42.7,71.11,71.11,0,0,0,.49,7.7c.19,1.5.33,2.73.42,3.71q.78,9,3.92,33.88v.21A1.14,1.14,0,0,1,389.84,454Zm-3.22-12.6q-.69-10.08-2.66-29.75l-3.78,18.69a73.85,73.85,0,0,0-1.61,10.15c0,.24.89.45,2.66.63a44.67,44.67,0,0,0,4.69.28Z"/><path class="cls-4" d="M285.34,332.78a1.05,1.05,0,0,1-.84-.42,1.83,1.83,0,0,1-.28-1.05v-2.8q0-4.41-.35-9.94-.28-5.88-.28-9.94,0-3.78-.35-14.63-.42-9.79-.42-14.63a.66.66,0,0,1,.28-.56,1.24,1.24,0,0,1,.77-.28q1.26,0,1.26,1.05,0,13,.21,19.39l.35,12.53q0,2.94.42,9.59l.42,8.68a.19.19,0,0,0,.21.21,2.56,2.56,0,0,0,.91.07H292c.6,0,.91.42.91,1.26a2.15,2.15,0,0,1-.21,1,.68.68,0,0,1-.63.35l-.49.07H291C290,332.76,288.14,332.78,285.34,332.78Zm18.83-.42c-1.07,0-1.7-.23-1.89-.7a2.07,2.07,0,0,0-.56.07h-.56c-1,0-1.68-.23-2-.7a1,1,0,0,1,.56-.84l.35-.35h2l.28-.28.14-.63.07-.84c0-2.84-.07-5.39-.21-7.63l-.14-2.59-.14-5.11q0-2.73.21-8.19l.14-8.12a71.33,71.33,0,0,0-.35-8.12,7.37,7.37,0,0,0-2.1-.21l-.77.07a5.17,5.17,0,0,1-.91.07c-.89,0-1.33-.39-1.33-1.19,0-.18.21-.37.63-.56a2.84,2.84,0,0,1,1-.28,52.66,52.66,0,0,1,5.32.28,11.48,11.48,0,0,1,3.22.63c.84.28,1.26.68,1.26,1.19a1.64,1.64,0,0,1-.21.56l-1.61.14a3.35,3.35,0,0,0-2-.42l-.35.21a17.78,17.78,0,0,1,.21,3.71q0,4.62-.07,8.33l-.14,8.33c0,2.1.09,4.65.28,7.63q.21,5.12.21,7.7v.91a8.77,8.77,0,0,0-.07,1.26,5.13,5.13,0,0,0,.21,2l-.07.14c0,.47.51.7,1.54.7a6.19,6.19,0,0,0,1-.07h1.05c1.35,0,2,.33,2,1a1.42,1.42,0,0,1-.42,1.05,1.65,1.65,0,0,1-1.12.35,3.86,3.86,0,0,1-1.12-.14,11,11,0,0,0-1.19-.07,3.78,3.78,0,0,0-1.26.35A3.22,3.22,0,0,1,304.17,332.36Zm30.68.28a1,1,0,0,1-.84-.42,6.51,6.51,0,0,1-.42-1.26,3.13,3.13,0,0,0-.28-1l.07-.21a44.35,44.35,0,0,0-2.38-8l-1.26-3.64a34.3,34.3,0,0,1-1.33-3.57l-.56-1.68q-6.3-19.45-7.91-21.07a17.84,17.84,0,0,0-.56,4.9c0,1.08,0,2,.07,2.8l.07,2.73-.07,1.68c-.05.52-.07,1.08-.07,1.68a22.37,22.37,0,0,0,.14,2.66c.09,1.5.14,2.24.14,2.24h-.21q0,11.7.49,12.88v6.3a3.29,3.29,0,0,1,.28,1.47,1.33,1.33,0,0,1-.42,1,1.13,1.13,0,0,1-.91.42q-1.47,0-1.47-3.78l.14-2.24a18.14,18.14,0,0,0,.14-2.31q0-3.36-.21-10.08T317.28,304q0-2,.21-6.23t.21-6.16v-.91c0-2.28.42-3.78,1.26-4.48l.21.21.7-.14a1.5,1.5,0,0,1,.63.42.87.87,0,0,1,.28.63l.14.42v.28l.07.07a84.32,84.32,0,0,0,5,13.93q4,9.45,5,12.53c.47,1.64.84,3.08,1.12,4.34a34.55,34.55,0,0,0,3.15,9.17l.14-.21A380.28,380.28,0,0,0,337,289.73l-.07-.84a4.47,4.47,0,0,1-.07-.91c0-1,.33-1.47,1-1.47a1.23,1.23,0,0,1,1.05.63,2.21,2.21,0,0,1,.49,1.4v4.69l-.35.56q0,6.66-.77,21.84t-1.47,16.52l-1.19.28v.07l-.07-.07Zm21.7.77a4.89,4.89,0,0,1-2.45-.77A7.34,7.34,0,0,1,352,331c-.65-.84-1.17-3.19-1.54-7.07s-.61-8.3-.7-13.3c0-1.12,0-2-.07-2.52q-.13-17.56-.56-20.79l.42-1c1.07.14,1.61,1.43,1.61,3.85l.21,18.55q0,2,.35,7.42.42,4.9.42,7.42,0,8,5.25,8,3.23,0,4.13-14.7l.07-1.4q.5-19.25.49-28.49l-.07-.63a2.38,2.38,0,0,1-.07-.63c0-.51.4-.77,1.19-.77q.84,0,1.05.42a14.88,14.88,0,0,1,.14,2.45,38.57,38.57,0,0,1-.42,7.14l.07.42a28,28,0,0,1-.21,2.8l-.14,2.8v.7a2.8,2.8,0,0,1,.07.7c-.09,1.12-.14,2.2-.14,3.22a11.5,11.5,0,0,0-.07,1.54c-.09,4.44-.19,8.29-.28,11.55a35.08,35.08,0,0,1-1.68,10.29C360.49,331.92,358.84,333.41,356.55,333.41Zm18.35-.84c-.88,0-1.33-.28-1.33-.84a48.59,48.59,0,0,1,2-10.92,47.15,47.15,0,0,0,2-11q0-1.95-1.89-10.64t-2.52-9.45v-.28a.17.17,0,0,0,.07-.14v-.07a1.88,1.88,0,0,0-.35-1c-.18-.56-.28-.84-.28-.84,0-.18.14-.35.42-.49a2.23,2.23,0,0,1,.84-.21c.38,0,.68.28.91.84a5.86,5.86,0,0,1,.56,1.75l.07,1.61a49.78,49.78,0,0,1,1.75,7q.92,4.62,1.47,6.51a27.06,27.06,0,0,0,1-5.46q.71-4.62.91-6.93c.28-3.78.59-5.71.91-5.81l.56-.14.56-.07.63.84C382.42,287.94,382,290,382,293v.42l.07.42-.07.07q-.27,2.52-1.4,7.7a47.14,47.14,0,0,0-1.19,8.68,90.17,90.17,0,0,0,1.82,9.31q1.83,8.19,2.38,9.59a2.37,2.37,0,0,0,.35.56,3.33,3.33,0,0,1,.49,1.47.84.84,0,0,1-.35.7.93.93,0,0,1-.7.28,2,2,0,0,1-.91-.21l-1.26-5.32q-1.68-6.3-2.66-11.69-.84,1.26-1.54,7.28a42.51,42.51,0,0,1-1.26,7.7,1.87,1.87,0,0,1,.14.84,2.72,2.72,0,0,1-.28,1.26A.76.76,0,0,1,374.9,332.57Z"/><path class="cls-4" d="M307.62,212.48q-5.25,0-7.77-7.56t-2.52-23.52c0-2.28,0-4.31.14-6.09a39.09,39.09,0,0,1,1-6.93,21.78,21.78,0,0,1,.84-3.29,21.18,21.18,0,0,1,1.47-2.94,8.73,8.73,0,0,1,4.48-3.92,9.4,9.4,0,0,1,3.22-.56c1.4,0,2.1.4,2.1,1.19q0,.84-1.05.84a4,4,0,0,1-1-.21l-1-.14a5.17,5.17,0,0,0-4,1.89,14.82,14.82,0,0,0-2.31,4.83,33,33,0,0,0-1.05,6.23c-.14,1.26-.28,3.32-.42,6.16l-.07,4.62v3.85a71.4,71.4,0,0,0,1,12.39,33.61,33.61,0,0,0,1.61,5.81,10.54,10.54,0,0,0,2.59,3.78,5.44,5.44,0,0,0,3.78,1.61,6.79,6.79,0,0,0,5.95-3.5c0-1.26-.1-2.91-.28-5a25.17,25.17,0,0,0-.56-2.87c-.28-.79-.61-1.19-1-1.19l-1.33.14-1.47.14c-1.08,0-1.61-.39-1.61-1.19,0-.37.65-.72,2-1.05a14.3,14.3,0,0,1,3.29-.49,1.73,1.73,0,0,1,1.61.84,3.56,3.56,0,0,1,.56,2.1,52.47,52.47,0,0,0,.7,6.23,38.29,38.29,0,0,1,.7,6.23c0,.75-.31,1.12-.91,1.12-1.12,0-1.68-.51-1.68-1.54l.07-.21v-.14A14.55,14.55,0,0,1,307.62,212.48Zm21.12-1.12c-1.07,0-1.7-.23-1.89-.7a2.07,2.07,0,0,0-.56.07h-.56c-1,0-1.68-.23-2-.7a1,1,0,0,1,.56-.84l.35-.35h2l.28-.28.14-.63.07-.84c0-2.84-.07-5.39-.21-7.63l-.14-2.59-.14-5.11q0-2.73.21-8.19l.14-8.12a71.33,71.33,0,0,0-.35-8.12,7.37,7.37,0,0,0-2.1-.21l-.77.07a5.17,5.17,0,0,1-.91.07c-.89,0-1.33-.39-1.33-1.19,0-.18.21-.37.63-.56a2.84,2.84,0,0,1,1-.28,52.66,52.66,0,0,1,5.32.28,11.48,11.48,0,0,1,3.22.63c.84.28,1.26.68,1.26,1.19a1.64,1.64,0,0,1-.21.56l-1.61.14a3.35,3.35,0,0,0-2-.42l-.35.21a17.78,17.78,0,0,1,.21,3.71q0,4.62-.07,8.33l-.14,8.33c0,2.1.09,4.65.28,7.63q.21,5.12.21,7.7v.91a8.77,8.77,0,0,0-.07,1.26,5.13,5.13,0,0,0,.21,2l-.07.14c0,.47.51.7,1.54.7a6.19,6.19,0,0,0,1-.07h1.05c1.35,0,2,.33,2,1a1.42,1.42,0,0,1-.42,1,1.65,1.65,0,0,1-1.12.35,3.86,3.86,0,0,1-1.12-.14,11,11,0,0,0-1.19-.07,3.78,3.78,0,0,0-1.26.35A3.22,3.22,0,0,1,328.74,211.36Zm17.45-1-.07-2.59c0-.74-.07-1.58-.07-2.52a9.9,9.9,0,0,1,.07-1.19l.07-1.26a6.22,6.22,0,0,0-.28-1.68q0-4.68-.7-17.43-.69-12.32-.77-16.73a50.73,50.73,0,0,1-5.81-.21c-.93-.23-1.4-.6-1.4-1.12a1.34,1.34,0,0,1,1.33-.77c1.4,0,3.43.1,6.09.28,2.43.24,4.46.35,6.09.35h1.47l1.47-.07c.84,0,1.26.31,1.26.91a.8.8,0,0,1-.49.7,2.34,2.34,0,0,1-1.05.21c-.93,0-1.91,0-2.94-.14l-3-.14c-.18,0-.28.07-.28.21a7.35,7.35,0,0,0-.07,1.33q0,6.79.84,20.58.78,14.28.77,20.51a1.15,1.15,0,0,1-.63.91,1.84,1.84,0,0,1-1.12.42Z"/><path class="cls-4" d="M1132.2,338.48a7.17,7.17,0,0,1-4.13-1.54,8.86,8.86,0,0,1-3.08-3.5q-.84-1.81-1.75-11.55t-.84-14.49v-3.71c-.05-1.07-.07-2.26-.07-3.57a61.74,61.74,0,0,1,.42-7.21,18.68,18.68,0,0,1,.7-3,11.3,11.3,0,0,1,1.33-2.45,7.4,7.4,0,0,1,4.62-3.15,14.1,14.1,0,0,1,3.57-.42,5.33,5.33,0,0,1,2.66.77c.93.52,1.4,1.12,1.4,1.82,0,.52-.38.77-1.12.77a5.3,5.3,0,0,1-1.61-.49,4.65,4.65,0,0,0-1.89-.49,7.58,7.58,0,0,0-3.57.84,6.38,6.38,0,0,0-2.45,2.1,10.51,10.51,0,0,0-1.33,3.08,18.68,18.68,0,0,0-.7,3.92,36,36,0,0,0-.21,4.2l.07,3.92c0,1.12.07,2.34.07,3.64q0,4.83,1,14.21t1.89,10.85a5.21,5.21,0,0,0,2.45,2,8.93,8.93,0,0,0,3.5.7,6,6,0,0,0,4.9-2,1.72,1.72,0,0,1,1.33-.84c.42,0,.63.33.63,1a3.54,3.54,0,0,1-.77,2.24,4.89,4.89,0,0,1-2.1,1.4A12,12,0,0,1,1132.2,338.48Zm17,.42a10,10,0,0,1-2-.14,4.31,4.31,0,0,1-1.4-.42,2.8,2.8,0,0,1-1.26-1.19c0-.56.26-.84.77-.84a5.56,5.56,0,0,1,2,.49,4.36,4.36,0,0,0,1.89.56,3.88,3.88,0,0,0,2.8-1.26,8,8,0,0,0,2-3.29,21.77,21.77,0,0,0,1.4-7.07,25.82,25.82,0,0,0-1-6.93,34.13,34.13,0,0,0-2.59-6.58c-.23-.51-.63-1.28-1.19-2.31-1.17-2.33-2-4.15-2.66-5.46a30.77,30.77,0,0,1-1.61-4.34,22.84,22.84,0,0,1-1-6.79,13.76,13.76,0,0,1,.7-4.41,9.48,9.48,0,0,1,2.38-3.71,5.66,5.66,0,0,1,3.92-1.61,4.27,4.27,0,0,1,2,.7c.79.42,1.19.84,1.19,1.26s-.14.56-.42.56a2.63,2.63,0,0,1-1.12-.35,2.51,2.51,0,0,0-1.19-.35,4.09,4.09,0,0,0-2.87,1.19,7.26,7.26,0,0,0-1.75,2.94,10.07,10.07,0,0,0-.49,3.22,24.28,24.28,0,0,0,.7,5.67,28.58,28.58,0,0,0,1.89,5.39l2.45,5.11.7,1.47q1.47,3,2.24,5a25.69,25.69,0,0,1,1.4,4.41,27.92,27.92,0,0,1,.77,6.3,18.37,18.37,0,0,1-2.1,8.26,9.08,9.08,0,0,1-2.8,3.29A6.45,6.45,0,0,1,1149.21,338.9Zm18.46,0a10,10,0,0,1-2-.14,4.31,4.31,0,0,1-1.4-.42,2.8,2.8,0,0,1-1.26-1.19c0-.56.25-.84.77-.84a5.61,5.61,0,0,1,2,.49,4.29,4.29,0,0,0,1.89.56,3.89,3.89,0,0,0,2.8-1.26,8.11,8.11,0,0,0,2-3.29,21.77,21.77,0,0,0,1.4-7.07,25.82,25.82,0,0,0-1-6.93,34.78,34.78,0,0,0-2.59-6.58c-.24-.51-.63-1.28-1.19-2.31q-1.76-3.5-2.66-5.46a29.58,29.58,0,0,1-1.61-4.34,22.52,22.52,0,0,1-1-6.79,13.76,13.76,0,0,1,.7-4.41,9.37,9.37,0,0,1,2.38-3.71,5.65,5.65,0,0,1,3.92-1.61,4.3,4.3,0,0,1,2,.7c.79.42,1.19.84,1.19,1.26s-.14.56-.42.56a2.59,2.59,0,0,1-1.12-.35,2.51,2.51,0,0,0-1.19-.35,4.07,4.07,0,0,0-2.87,1.19,7.15,7.15,0,0,0-1.75,2.94,10.07,10.07,0,0,0-.49,3.22,24.28,24.28,0,0,0,.7,5.67,27.24,27.24,0,0,0,1.89,5.39l2.45,5.11.7,1.47c1,2,1.72,3.67,2.24,5a26.6,26.6,0,0,1,1.4,4.41,27.92,27.92,0,0,1,.77,6.3,18.37,18.37,0,0,1-2.1,8.26,9.18,9.18,0,0,1-2.8,3.29A6.45,6.45,0,0,1,1167.67,338.9Z"/><path class="cls-4" d="M1530,669.78a5.67,5.67,0,0,1-2.38-.35,1.15,1.15,0,0,1-.63-1.19v-1.33a9.55,9.55,0,0,1-.07-1.26v-.14l.07-10.22-.07-28.91q0-4.47-.14-7.77a2.64,2.64,0,0,1,.35-1.4,1.05,1.05,0,0,1,.91-.56h4.34a5.93,5.93,0,0,1,1.47.14c.47.14.7.54.7,1.19a1.12,1.12,0,0,1-.42.91,1.69,1.69,0,0,1-.91.42h-1.19l-1.12-.07-1.12-.07a1,1,0,0,0-.7.21,1,1,0,0,0-.14.63q0,3.3.07,6v14.7a.12.12,0,0,0,.14.14h.14c1.17-.09,2.43-.14,3.78-.14.75,0,1.12.33,1.12,1a1.34,1.34,0,0,1-.28,1,1.09,1.09,0,0,1-.77.21h-4c-.19,0-.28.12-.28.35l.14,10.36q.14,4.83.14,11.13v2.59h6.58c.84,0,1.26.31,1.26.91,0,.75-.21,1.19-.63,1.33a13.06,13.06,0,0,1-3.43.28Zm14.56-.21c-.89,0-1.33-.28-1.33-.84a48,48,0,0,1,2-10.92,47.15,47.15,0,0,0,2-11q0-2-1.89-10.64t-2.52-9.45v-.28a.17.17,0,0,0,.07-.14v-.07a2,2,0,0,0-.35-1c-.19-.56-.28-.84-.28-.84,0-.18.14-.35.42-.49a2.23,2.23,0,0,1,.84-.21c.37,0,.68.28.91.84a5.86,5.86,0,0,1,.56,1.75l.07,1.61a51.21,51.21,0,0,1,1.75,7q.92,4.62,1.47,6.51a27.06,27.06,0,0,0,1-5.46q.7-4.62.91-6.93c.28-3.78.58-5.71.91-5.81l.56-.14.56-.07.63.84q-1.12,1.62-1.12,6.16v.42l.07.42-.07.07c-.19,1.68-.65,4.25-1.4,7.7a47.14,47.14,0,0,0-1.19,8.68,90.17,90.17,0,0,0,1.82,9.31c1.21,5.46,2,8.66,2.38,9.59a2.37,2.37,0,0,0,.35.56,3.33,3.33,0,0,1,.49,1.47.86.86,0,0,1-.35.7.94.94,0,0,1-.7.28,2,2,0,0,1-.91-.21l-1.26-5.32q-1.68-6.3-2.66-11.69-.84,1.26-1.54,7.28a44.51,44.51,0,0,1-1.26,7.7,2,2,0,0,1,.14.84,2.72,2.72,0,0,1-.28,1.26A.77.77,0,0,1,1544.6,669.57Zm18.34.63a59.4,59.4,0,0,1-.77-10.08q0-2.24.21-6.51l.14-6.51a3.92,3.92,0,0,1-.49-1.61q.71-1.11.7-6.44,0-12.74-.35-13.58c.42-1.16.75-1.75,1-1.75h3.08a5,5,0,0,1,2.17.77,11.09,11.09,0,0,1,2.45,1.54q1.76,1.62,1.75,8.26a53.16,53.16,0,0,1-.21,5.46,6.62,6.62,0,0,1-.49,2.1,8.45,8.45,0,0,1-.91,1.75,8.32,8.32,0,0,1-3.57,2.8,15.61,15.61,0,0,1-2.94,1.12v8.33q0,1.75.35,6.86l.14,2.24.14,4.55c0,.84-.44,1.26-1.33,1.26Zm2.24-25.06a4.14,4.14,0,0,0,3.43-1.89,7.58,7.58,0,0,0,.91-1.89,10.77,10.77,0,0,0,.56-2.31,23.26,23.26,0,0,0,.42-4.69v-1.89c0-.65,0-1.28-.07-1.89a10,10,0,0,0-.28-1.75,3.94,3.94,0,0,0-.77-1.47,3.23,3.23,0,0,0-1.19-1.05,4.48,4.48,0,0,0-2-.42,1.48,1.48,0,0,0-1.19.42,2.36,2.36,0,0,0-.35,1.47q0,1.68.21,5l.14,5a32.75,32.75,0,0,1-.14,3.29l-.14,3.29Zm25.88,25.06c-.56-.6-1.16-2.21-1.82-4.83s-1.26-5.55-1.82-8.82a65.61,65.61,0,0,0-1.61-7.91c-.56-2.33-1.09-3.5-1.61-3.5H1584c-1,0-1.54.33-1.54,1q0,5,.56,15.33a46.91,46.91,0,0,0,.63,7.35l-.56,1.19h-1l-.56-.56q-1.11-32.34-1.12-44.1a10.52,10.52,0,0,1,.07-1.26,2.69,2.69,0,0,1,.49-.91,1.06,1.06,0,0,1,1-.49,8.89,8.89,0,0,1,5.74,1.75,6.1,6.1,0,0,1,2.17,5v5.11a10.08,10.08,0,0,1-.91,3.57,30.29,30.29,0,0,1-1.89,4.13l-.91,1.75q.78,3.57,3,12.88t2.52,9.8a.79.79,0,0,1,.14.35c.1.19.26.47.49.84a3.91,3.91,0,0,1,.49,1.68c0,.66-.25,1-.77,1Zm-8.26-26.81a3,3,0,0,0,2.38-1.33,10.17,10.17,0,0,0,1.68-3.43,28.2,28.2,0,0,0,1.12-6.79,14,14,0,0,0-.21-2.66,11.11,11.11,0,0,0-.56-2.24q-.84-2.45-4-2.45c-.23,0-.42.21-.56.63a3.39,3.39,0,0,0-.21,1.19q0,4.7.14,8.47c.05,2.52.07,5.35.07,8.47ZM1602,670.27c-.84,0-1.3-.49-1.4-1.47v-.91a4.06,4.06,0,0,0,.07-.84l-.28-.28a7.86,7.86,0,0,0,.56-2.87q0-1.6-.21-4.62l-.14-4.62q0-3.49.21-10.5.29-6.23.28-10.57l-.14-4.2c-.09-1.26-.14-2.66-.14-4.2a1.88,1.88,0,0,1,.49-1.47,2.14,2.14,0,0,1,1.54-.49,1.51,1.51,0,0,1,1.12.42,16.56,16.56,0,0,0,2,.28,15.36,15.36,0,0,1,3,.63c.89.28,1.33.63,1.33,1.05s-.44.94-1.33,1.4a21.42,21.42,0,0,0-5.67-1.33l-.35.42c0,.42.07,1.43.07,3,0,2,0,3.81-.14,5.39s-.07,3.46-.07,5.46c0,1.31.33,2,1,2l1.12-.07a11.2,11.2,0,0,1,1.19-.07q2.73,0,2.73,1.26a2.38,2.38,0,0,1-.35,1.33,1.19,1.19,0,0,1-1,.49,2.16,2.16,0,0,1-1.61-.56l-2.24-.35h-.35l-.35.35v.21c.1.8.14,2.64.14,5.53,0,1.82,0,3.48-.07,5l-.07,5c0,1.82.07,3.69.21,5.6a3.05,3.05,0,0,0,.7,2.17,3.91,3.91,0,0,0,2.31.49l1.26-.07c.42,0,.89-.07,1.4-.07,1.36,0,2,.31,2,.91,0,.84-1,1.26-3.08,1.26Zm17.35-.07a3.65,3.65,0,0,1-1.47-.63,1.44,1.44,0,0,1-.77-1.05l.35-.56a8,8,0,0,1,1.26.21,3.86,3.86,0,0,0,1.26.28,3.72,3.72,0,0,0,2.73-1.19,8.2,8.2,0,0,0,1.82-3.22,26.1,26.1,0,0,0,1-6.86,22.23,22.23,0,0,0-2.94-10.36c-1.21-2.14-2.14-3.85-2.8-5.11a27.77,27.77,0,0,1-1.75-4.34,18.43,18.43,0,0,1-.91-5.53,17.7,17.7,0,0,1,1.26-6,6.67,6.67,0,0,1,1.75-2.59,3.79,3.79,0,0,1,2.52-1,2.87,2.87,0,0,1,1.75.63,1.71,1.71,0,0,1,.91,1.33c0,.38-.3.56-.91.56a1.68,1.68,0,0,1-.7-.21,1.72,1.72,0,0,0-.77-.21,2.61,2.61,0,0,0-1.89.84,5.28,5.28,0,0,0-1.26,2.17,15.58,15.58,0,0,0-.84,4.76,11.36,11.36,0,0,0,.35,2.73c0,.28.1.52.14.7a1.78,1.78,0,0,1,.07.42l.42,1.4.35,1.26.56,1.26c.14.33.28.63.42.91a6.91,6.91,0,0,1,.49.7l.84,1.47c.19.28.59,1,1.19,2a30.72,30.72,0,0,1,1.68,3.29,15.73,15.73,0,0,1,1,2.8,24.64,24.64,0,0,1,.63,3.08,32.5,32.5,0,0,1,.21,3.85,21.09,21.09,0,0,1-.91,6.3,8.82,8.82,0,0,1-3.64,4.9,5.62,5.62,0,0,1-3.08.84Zm5.6-45.64a.06.06,0,0,0-.07-.07v.07Zm10.26,45.64a3.65,3.65,0,0,1-1.47-.63,1.44,1.44,0,0,1-.77-1.05l.35-.56a8,8,0,0,1,1.26.21,3.86,3.86,0,0,0,1.26.28,3.72,3.72,0,0,0,2.73-1.19,8.2,8.2,0,0,0,1.82-3.22,26.1,26.1,0,0,0,1-6.86,22.23,22.23,0,0,0-2.94-10.36c-1.21-2.14-2.14-3.85-2.8-5.11a27.77,27.77,0,0,1-1.75-4.34,18.43,18.43,0,0,1-.91-5.53,17.7,17.7,0,0,1,1.26-6,6.67,6.67,0,0,1,1.75-2.59,3.79,3.79,0,0,1,2.52-1,2.87,2.87,0,0,1,1.75.63,1.71,1.71,0,0,1,.91,1.33c0,.38-.3.56-.91.56a1.68,1.68,0,0,1-.7-.21,1.72,1.72,0,0,0-.77-.21,2.61,2.61,0,0,0-1.89.84,5.28,5.28,0,0,0-1.26,2.17,15.58,15.58,0,0,0-.84,4.76,11.36,11.36,0,0,0,.35,2.73c.05.28.1.52.14.7a1.78,1.78,0,0,1,.07.42l.42,1.4.35,1.26.56,1.26c.14.33.28.63.42.91a6.91,6.91,0,0,1,.49.7l.84,1.47c.19.28.59,1,1.19,2a30.72,30.72,0,0,1,1.68,3.29,15.73,15.73,0,0,1,1,2.8,24.64,24.64,0,0,1,.63,3.08,32.5,32.5,0,0,1,.21,3.85,21.09,21.09,0,0,1-.91,6.3,8.82,8.82,0,0,1-3.64,4.9,5.62,5.62,0,0,1-3.08.84Zm5.6-45.64a.06.06,0,0,0-.07-.07v.07Z"/><path class="cls-4" d="M378.62,905.48q-5.25,0-7.77-7.56t-2.52-23.52c0-2.28,0-4.31.14-6.09a39.09,39.09,0,0,1,1-6.93,21.78,21.78,0,0,1,.84-3.29,21.18,21.18,0,0,1,1.47-2.94,8.73,8.73,0,0,1,4.48-3.92,9.4,9.4,0,0,1,3.22-.56c1.4,0,2.1.4,2.1,1.19q0,.84-1.05.84a4,4,0,0,1-1-.21l-1-.14a5.17,5.17,0,0,0-4,1.89,14.82,14.82,0,0,0-2.31,4.83,33,33,0,0,0-1.05,6.23c-.14,1.26-.28,3.32-.42,6.16l-.07,4.62v3.85a71.4,71.4,0,0,0,1,12.39,33.61,33.61,0,0,0,1.61,5.81,10.54,10.54,0,0,0,2.59,3.78,5.44,5.44,0,0,0,3.78,1.61,6.79,6.79,0,0,0,5.95-3.5c0-1.26-.1-2.91-.28-5a25.17,25.17,0,0,0-.56-2.87c-.28-.79-.61-1.19-1-1.19l-1.33.14-1.47.14c-1.08,0-1.61-.39-1.61-1.19,0-.37.65-.72,2-1.05a14.3,14.3,0,0,1,3.29-.49,1.73,1.73,0,0,1,1.61.84,3.56,3.56,0,0,1,.56,2.1,52.47,52.47,0,0,0,.7,6.23,38.29,38.29,0,0,1,.7,6.23c0,.75-.31,1.12-.91,1.12-1.12,0-1.68-.51-1.68-1.54l.07-.21v-.14A14.55,14.55,0,0,1,378.62,905.48Zm31.13-.49a2,2,0,0,1-1.33-.28q-.29-.21-.42-1.26c-.42-3.4-.68-5.53-.77-6.37l-.35-2.8a16.07,16.07,0,0,0-3.5-.35l-2.52-.14a22.26,22.26,0,0,0-2.45-.21.44.44,0,0,0-.49.35c0,.14,0,.21-.07.21l-.14,1.4a50.25,50.25,0,0,1-.77,5,12.32,12.32,0,0,1-.84,2.94c-.37.8-.72,1.19-1.05,1.19a1.56,1.56,0,0,1-.91-.35,1.14,1.14,0,0,1-.49-.84l.07-.21.07-.21q1.26-5,2.1-9.87l.84-4.34.84-5.32s.26-1.54.77-4.62q.35-1.89,1.26-6.09,1-4.75,1.19-6.51c0-.14.14-1,.28-2.59.19-1.77.35-3.08.49-3.92a6.75,6.75,0,0,1,.42-2.1h.49a1.45,1.45,0,0,0,.49.07,1.71,1.71,0,0,0,1.26-.42,1.15,1.15,0,0,1,.84.35.83.83,0,0,1,.42.7,68.65,68.65,0,0,0,.49,7.7c.19,1.5.33,2.73.42,3.71q.76,9,3.92,33.88v.21A1.16,1.16,0,0,1,409.75,905Zm-3.22-12.6q-.7-10.08-2.66-29.75l-3.78,18.69a73.85,73.85,0,0,0-1.61,10.15c0,.24.89.45,2.66.63a44.51,44.51,0,0,0,4.69.28Zm16,11-.07-2.59c0-.74-.07-1.58-.07-2.52a9.9,9.9,0,0,1,.07-1.19l.07-1.26a6.22,6.22,0,0,0-.28-1.68q0-4.68-.7-17.43-.69-12.32-.77-16.73a50.73,50.73,0,0,1-5.81-.21c-.93-.23-1.4-.6-1.4-1.12a1.34,1.34,0,0,1,1.33-.77c1.4,0,3.43.1,6.09.28,2.43.24,4.46.35,6.09.35h1.47l1.47-.07c.84,0,1.26.31,1.26.91a.8.8,0,0,1-.49.7,2.34,2.34,0,0,1-1,.21c-.93,0-1.91,0-2.94-.14l-3-.14c-.18,0-.28.07-.28.21a7.35,7.35,0,0,0-.07,1.33q0,6.79.84,20.58.78,14.28.77,20.51a1.15,1.15,0,0,1-.63.91,1.84,1.84,0,0,1-1.12.42Zm16.94,1.82a3.54,3.54,0,0,1-1.47-.63,1.39,1.39,0,0,1-.77-1.05l.35-.56a8.42,8.42,0,0,1,1.26.21,3.47,3.47,0,0,0,4-.91,8.33,8.33,0,0,0,1.82-3.22,26.52,26.52,0,0,0,1-6.86,22.23,22.23,0,0,0-2.94-10.36c-1.22-2.14-2.15-3.85-2.8-5.11a26,26,0,0,1-1.75-4.34,18.12,18.12,0,0,1-.91-5.53,17.7,17.7,0,0,1,1.26-6,6.56,6.56,0,0,1,1.75-2.59,3.75,3.75,0,0,1,2.52-1,2.89,2.89,0,0,1,1.75.63,1.74,1.74,0,0,1,.91,1.33c0,.38-.31.56-.91.56a1.64,1.64,0,0,1-.7-.21,1.75,1.75,0,0,0-.77-.21,2.61,2.61,0,0,0-1.89.84,5.28,5.28,0,0,0-1.26,2.17,15.58,15.58,0,0,0-.84,4.76,10.88,10.88,0,0,0,.35,2.73,5.72,5.72,0,0,0,.14.7,2.54,2.54,0,0,1,.07.42l.42,1.4.35,1.26.56,1.26c.14.33.28.63.42.91s.35.47.49.7l.84,1.47c.18.28.58,1,1.19,2a34.91,34.91,0,0,1,1.68,3.29,17.44,17.44,0,0,1,1.05,2.8,28.88,28.88,0,0,1,.63,3.08,32.5,32.5,0,0,1,.21,3.85,21.42,21.42,0,0,1-.91,6.3,8.87,8.87,0,0,1-3.64,4.9,5.67,5.67,0,0,1-3.08.84Zm5.6-45.64a.07.07,0,0,0-.07-.07v.07Zm12,45.57a1.35,1.35,0,0,1-1-.42,1.6,1.6,0,0,1-.35-1.05l-.07-2.17q0-2.52.42-7.42c.24-3.64.35-6.09.35-7.35l-.07-3.15c0-.93-.07-2-.07-3.08q0-2.79.21-8.33t.21-8.4l-.07-4.06-.28-.35v-.42c0-1.21.49-1.82,1.47-1.82a12.66,12.66,0,0,1,3.64.91c1.73.56,2.59,1,2.59,1.4v.21a12.61,12.61,0,0,1,1.68,4.06,22.5,22.5,0,0,1,.49,5.18,25.7,25.7,0,0,1-1.12,8.33h.07A17.67,17.67,0,0,1,464,879l-1,1.47a7.34,7.34,0,0,1,2.1,2.87,11.57,11.57,0,0,1,1.12,3.64c.05.42.1.94.14,1.54s.1,1.33.14,2.17l.07,1.82v1q0,6.72-4.2,9.94A8.52,8.52,0,0,1,457,905.13Zm2.17-26q4.62,0,4.62-9.31c0-.51,0-1.51-.14-3l-.07-1.33-.14-.14a16.21,16.21,0,0,0-.77-3.64,3.15,3.15,0,0,0-1.12-1.54,2.58,2.58,0,0,0-1.68-.63c-1,0-1.54,3.06-1.54,9.17,0,1.17,0,2,.07,2.38v3.78c0,.75-.07,1.59-.07,2.52v.84l.14.42.14.49Zm-1.05,23.31a4.79,4.79,0,0,0,3.08-1.12,7.69,7.69,0,0,0,2.31-2.87,8.46,8.46,0,0,0,.84-3.57l.07-.28v-1.33a30.63,30.63,0,0,0-.49-5.6,8.86,8.86,0,0,0-2.73-5.18,4.1,4.1,0,0,0-2.66-.91q-.35,5.82-.35,9.52v1.61a19.33,19.33,0,0,0,.21,3.22,9.32,9.32,0,0,0-.35,3.36v1.82Zm22.21,3a1,1,0,0,1-.56-.28,1.09,1.09,0,0,1-.42-.49q.63-1.68.63-12.25,0-2-.21-5.81l-.35-5-.42-.91.21-.84c-.28-.65-.7-1.75-1.26-3.29s-1.12-3.1-1.68-4.69q-2.52-6.64-3.29-9.59a22.46,22.46,0,0,1-.63-2.59l1-.77q.69.15,2,4.48,1,3.09,1.89,6.09l.84,2.66c.84,2.9,1.44,4.39,1.82,4.48l.28-1.26-.14-.35q.56-.69,1.4-5c.6-3.26,1.19-6,1.75-8.26.6-2.61,1.21-3.92,1.82-3.92a1,1,0,0,1,.63.21.63.63,0,0,1,.28.49,59.86,59.86,0,0,1-2.1,8.26c-.7,2.29-1.29,4.44-1.75,6.44a28.2,28.2,0,0,0-.84,6.37,2.86,2.86,0,0,1,.35,1.19,3.32,3.32,0,0,1-.21,1,3.45,3.45,0,0,0-.21,1c0,.24.09,1.29.28,3.15a23.61,23.61,0,0,1,.28,3.22c0,2.06,0,3.9.07,5.53v5.88C481.83,903.83,481.34,905.41,480.36,905.41Z"/><path class="cls-4" d="M676.1,905.13a1.19,1.19,0,0,1-.91-.49,2.48,2.48,0,0,1-.56-1.12l-.21-1.33a6.31,6.31,0,0,1-.21-1.05q-7.85-28.07-8.61-31.5-.63-2.52-2.87-14c-.05.28-.07,1.24-.07,2.87v25.34l.14,10,.14,9.94-.42.56h-1.61l-.21-.56a18,18,0,0,0,.14-2.8l-.07-12.18-.14-12.18V860.82q-.07-2.94-.07-6.58a4.59,4.59,0,0,0-.07-.77v-.7a1.26,1.26,0,0,1,.42-1.12,2.53,2.53,0,0,1,1.47-.35,1.46,1.46,0,0,1,.91.42,1.87,1.87,0,0,1,.7.91l1.47,6.86q1,4.9,1.68,7.42,1.47,5.82,5,19a136.43,136.43,0,0,0,3.64,13.3,9.77,9.77,0,0,0,.42-3.36q0-6.78.14-12.18l.14-12.18c0-2,0-3.82.07-5.46v-5.39l-.07-9.87a1.41,1.41,0,0,1,1.47-1c.37,0,.56.68.56,2a13.86,13.86,0,0,1-.07,1.47,4.08,4.08,0,0,1-.07.84v4.76q0,9.32-.07,16.59T678.27,892c0,1.17-.07,3-.21,5.53l-.14,5.53C677.92,904.46,677.31,905.13,676.1,905.13Zm13.92.14c-.84,0-1.31-.49-1.4-1.47v-.91a4.89,4.89,0,0,0,.07-.84l-.28-.28a8.08,8.08,0,0,0,.56-2.87q0-1.6-.21-4.62l-.14-4.62q0-3.49.21-10.5c.18-4.15.28-7.67.28-10.57l-.14-4.2c-.1-1.26-.14-2.66-.14-4.2a1.85,1.85,0,0,1,.49-1.47,2.12,2.12,0,0,1,1.54-.49,1.52,1.52,0,0,1,1.12.42,16.18,16.18,0,0,0,2,.28,15.52,15.52,0,0,1,3,.63c.88.28,1.33.63,1.33,1.05s-.45.94-1.33,1.4a21.42,21.42,0,0,0-5.67-1.33l-.35.42c0,.42.07,1.43.07,3,0,2-.05,3.81-.14,5.39s-.07,3.46-.07,5.46c0,1.31.32,2,1,2l1.12-.07a11,11,0,0,1,1.19-.07q2.73,0,2.73,1.26a2.46,2.46,0,0,1-.35,1.33,1.21,1.21,0,0,1-1,.49,2.15,2.15,0,0,1-1.61-.56l-2.24-.35h-.35l-.35.35v.21c.09.8.14,2.64.14,5.53,0,1.82,0,3.48-.07,5l-.07,5c0,1.82.07,3.69.21,5.6a3,3,0,0,0,.7,2.17,3.91,3.91,0,0,0,2.31.49l1.26-.07c.42,0,.88-.07,1.4-.07,1.35,0,2,.31,2,.91,0,.84-1,1.26-3.08,1.26Zm16.65-.7c-.89,0-1.33-.28-1.33-.84a48,48,0,0,1,2-10.92,47.7,47.7,0,0,0,2-11q0-2-1.89-10.64t-2.52-9.45v-.28a.21.21,0,0,0,.07-.14v-.07a2,2,0,0,0-.35-1c-.19-.56-.28-.84-.28-.84,0-.18.14-.35.42-.49a2.15,2.15,0,0,1,.84-.21c.37,0,.67.28.91.84a6.16,6.16,0,0,1,.56,1.75l.07,1.61a52.72,52.72,0,0,1,1.75,7q.9,4.62,1.47,6.51a27.06,27.06,0,0,0,1.05-5.46c.46-3.08.77-5.39.91-6.93.28-3.78.58-5.71.91-5.81l.56-.14.56-.07.63.84q-1.12,1.62-1.12,6.16v.42l.07.42-.07.07q-.28,2.52-1.4,7.7a46.27,46.27,0,0,0-1.19,8.68,87.15,87.15,0,0,0,1.82,9.31q1.82,8.19,2.38,9.59a2,2,0,0,0,.35.56,3.47,3.47,0,0,1,.49,1.47.86.86,0,0,1-.35.7.94.94,0,0,1-.7.28,2,2,0,0,1-.91-.21L713,898.69q-1.68-6.3-2.66-11.69c-.56.84-1.08,3.27-1.54,7.28a44.51,44.51,0,0,1-1.26,7.7,2,2,0,0,1,.14.84,2.85,2.85,0,0,1-.28,1.26A.77.77,0,0,1,706.67,904.57Zm22-1.19-.07-2.59c-.05-.74-.07-1.58-.07-2.52a8.19,8.19,0,0,1,.07-1.19l.07-1.26a6.22,6.22,0,0,0-.28-1.68q0-4.68-.7-17.43Q727,864.4,726.9,860a50.73,50.73,0,0,1-5.81-.21c-.93-.23-1.4-.6-1.4-1.12a1.33,1.33,0,0,1,1.33-.77c1.4,0,3.43.1,6.09.28,2.43.24,4.46.35,6.09.35h1.47l1.47-.07c.84,0,1.26.31,1.26.91a.8.8,0,0,1-.49.7,2.34,2.34,0,0,1-1,.21c-.93,0-1.91,0-2.94-.14l-3-.14c-.19,0-.28.07-.28.21a6.46,6.46,0,0,0-.07,1.33q0,6.79.84,20.58.76,14.28.77,20.51a1.15,1.15,0,0,1-.63.91,1.86,1.86,0,0,1-1.12.42Zm16.09,1.26a1.53,1.53,0,0,1-1.12-.49,1.94,1.94,0,0,1-.42-1.19,1.78,1.78,0,0,1,.56-1.26,1.65,1.65,0,0,1,1.26-.63,1.55,1.55,0,0,1,1.12.63,1.7,1.7,0,0,1,.56,1.19C746.7,904.06,746.05,904.64,744.74,904.64Zm5.91,6.72v-.14l-.07-.14c0-.14.4-.46,1.19-1s1.59-1.12,2.52-1.68a10.29,10.29,0,0,0,1.61-1.19,8.29,8.29,0,0,0,1.61-3.71,21.21,21.21,0,0,0,.63-5q0-7.49-.28-18.62-.35-10.35-.35-18.55l-.42-.77c-.32-.09-.88-.21-1.68-.35a6.21,6.21,0,0,1-2.38-.56c-.7-.23-1-.53-1-.91,0-.18.19-.37.56-.56a2.33,2.33,0,0,1,.91-.28,28.86,28.86,0,0,1,4.2.49,40.49,40.49,0,0,1,5.18,1.19q2.31.71,2.31,1.26a.84.84,0,0,1-.35.7,1.24,1.24,0,0,1-.77.21,9.38,9.38,0,0,1-1.89-.35,6.15,6.15,0,0,0-1.89-.35c-.42,0-.63.47-.63,1.4q0,3.86.35,14.56.36,8.06.35,14.49v7.7a7.54,7.54,0,0,0-.42,2.94,16.39,16.39,0,0,1-1.68,6.65,8,8,0,0,1-2.38,3,4.61,4.61,0,0,1-3.08,1.19h-.49Zm22.07-6.16a3.65,3.65,0,0,1-1.47-.63,1.41,1.41,0,0,1-.77-1.05l.35-.56a8,8,0,0,1,1.26.21,3.76,3.76,0,0,0,1.26.28,3.72,3.72,0,0,0,2.73-1.19A8.33,8.33,0,0,0,777.9,899a26.52,26.52,0,0,0,1-6.86,22.23,22.23,0,0,0-2.94-10.36c-1.21-2.14-2.15-3.85-2.8-5.11a26.83,26.83,0,0,1-1.75-4.34,18.12,18.12,0,0,1-.91-5.53,17.7,17.7,0,0,1,1.26-6,6.56,6.56,0,0,1,1.75-2.59,3.75,3.75,0,0,1,2.52-1,2.87,2.87,0,0,1,1.75.63,1.71,1.71,0,0,1,.91,1.33c0,.38-.3.56-.91.56a1.64,1.64,0,0,1-.7-.21,1.75,1.75,0,0,0-.77-.21,2.61,2.61,0,0,0-1.89.84,5.28,5.28,0,0,0-1.26,2.17,15.58,15.58,0,0,0-.84,4.76,11.36,11.36,0,0,0,.35,2.73c.05.28.09.52.14.7a1.78,1.78,0,0,1,.07.42l.42,1.4.35,1.26.56,1.26c.14.33.28.63.42.91a6.91,6.91,0,0,1,.49.7l.84,1.47c.19.28.58,1,1.19,2a30.72,30.72,0,0,1,1.68,3.29,15.73,15.73,0,0,1,1.05,2.8,28.88,28.88,0,0,1,.63,3.08,32.5,32.5,0,0,1,.21,3.85,21.09,21.09,0,0,1-.91,6.3,8.82,8.82,0,0,1-3.64,4.9,5.64,5.64,0,0,1-3.08.84Zm5.6-45.64a.06.06,0,0,0-.07-.07v.07Z"/><line class="cls-5" x1="801.82" y1="382.01" x2="617.64" y2="598.86"/><line class="cls-5" x1="1523.05" y1="709.95" x2="1433.87" y2="833.95"/><line class="cls-6" x1="707.06" y1="649.36" x2="782.06" y2="649.36"/><line class="cls-6" x1="1447.06" y1="883.36" x2="1522.06" y2="883.36"/><line class="cls-7" x1="1409.06" y1="649.36" x2="1484.06" y2="649.36"/><line class="cls-7" x1="736.06" y1="316.36" x2="775.06" y2="316.36"/><line class="cls-7" x1="326.06" y1="228.36" x2="326.06" y2="272.36"/><line class="cls-7" x1="326.06" y1="349.36" x2="326.06" y2="393.36"/><line class="cls-7" x1="1050.06" y1="316.36" x2="1089.06" y2="316.36"/><line class="cls-6" x1="1023.76" y1="383.66" x2="1237.76" y2="597.66"/><line class="cls-7" x1="562.81" y1="710.02" x2="453.81" y2="834.02"/><line class="cls-7" x1="630.9" y1="708.83" x2="709.9" y2="832.83"/></svg>